<ttFont>
<head>
    <!-- Most of this table will be recalculated by the compiler -->
    <tableVersion value="1.0"/>
    <fontRevision value="3.006"/>
    <checkSumAdjustment value="0x6fea4c3"/>
    <magicNumber value="0x5f0f3cf5"/>
    <flags value="00000000 00000011"/>
    <unitsPerEm value="1000"/>
    <created value="Fri Aug  9 14:26:15 2019"/>
    <modified value="Thu May 28 16:17:56 2020"/>
    <xMin value="-164"/>
    <yMin value="-250"/>
    <xMax value="902"/>
    <yMax value="906"/>
    <macStyle value="00000000 00000000"/>
    <lowestRecPPEM value="3"/>
    <fontDirectionHint value="2"/>
    <indexToLocFormat value="0"/>
    <glyphDataFormat value="0"/>
  </head>
        <CharString name=".notdef">
          96 -12 -20 1 blend
          0 rmoveto
          432 74 120 1 blend
          0 rlineto
          0 660 rlineto
          -432 -74 -120 1 blend
          0 rlineto
          0 -660 rlineto
          48 32 101 164 45 72 2 blend
          rmoveto
          102 176 -47 -76 -75 -120 2 blend
          rlineto
          64 106 -17 -28 -6 -10 2 blend
          rlineto
          4 0 rlineto
          62 -106 -16 -26 6 10 2 blend
          rlineto
          100 -176 -46 -74 75 120 2 blend
          rlineto
          -332 126 204 1 blend
          0 rlineto
          166 334 -64 -104 -9 -14 2 blend
          rmoveto
          -56 92 10 16 3 4 2 blend
          rlineto
          -94 168 47 76 -82 -132 2 blend
          rlineto
          302 -113 -182 1 blend
          0 rlineto
          -94 -168 47 76 82 132 2 blend
          rlineto
          -54 -92 9 14 -3 -4 2 blend
          rlineto
          -4 0 rlineto
          -176 -292 9 14 25 40 2 blend
          rmoveto
          0 536 -124 -200 1 blend
          rlineto
          154 -270 -45 -72 63 102 2 blend
          rlineto
          -154 -266 45 72 61 98 2 blend
          rlineto
          354 -17 -26 1 blend
          0 rmoveto
          -152 266 44 70 -61 -98 2 blend
          rlineto
          152 270 -44 -70 -63 -102 2 blend
          rlineto
          0 -536 124 200 1 blend
          rlineto
        </CharString>
        <CharString name="A">
          1 vsindex
          10 -20 1 blend
          0 rmoveto
          32 144 1 blend
          0 rlineto
          140 396 -66 -80 2 blend
          rlineto
          28 80 24 68 24 82 -12 -18 -8 10 -10 -16 6 blend
          rrcurveto
          4 0 rlineto
          24 -82 24 -68 28 -80 -8 17 -8 -11 -12 18 6 blend
          rrcurveto
          138 -396 -64 80 2 blend
          rlineto
          34 148 1 blend
          0 rlineto
          -236 660 38 -10 2 blend
          rlineto
          -28 -180 1 blend
          0 rlineto
          -236 -660 38 10 2 blend
          rlineto
          102 236 40 -98 2 blend
          rmoveto
          293 25 1 blend
          0 rlineto
          0 28 105 1 blend
          rlineto
          -293 -25 1 blend
          0 rlineto
          0 -28 -105 1 blend
          rlineto
        </CharString>
        <CharString name="AE">
          1 vsindex
          26 -48 1 blend
          0 rmoveto
          34 146 1 blend
          0 rlineto
          220 392 -70 -44 2 blend
          rlineto
          44 82 44 80 42 76 -22 -30 -22 -20 -18 -14 6 blend
          rrcurveto
          4 0 rlineto
          0 -630 108 1 blend
          rlineto
          344 76 1 blend
          0 rlineto
          0 28 116 1 blend
          rlineto
          -312 64 1 blend
          0 rlineto
          0 310 -194 1 blend
          rlineto
          250 -48 1 blend
          0 rlineto
          0 28 116 1 blend
          rlineto
          -250 48 1 blend
          0 rlineto
          0 266 -164 1 blend
          rlineto
          302 -64 1 blend
          0 rlineto
          0 28 116 1 blend
          rlineto
          -350 -166 1 blend
          0 rlineto
          -372 -660 76 10 2 blend
          rlineto
          148 226 4 -94 2 blend
          rmoveto
          268 70 1 blend
          0 rlineto
          0 28 105 1 blend
          rlineto
          -268 -70 1 blend
          0 rlineto
          0 -28 -105 1 blend
          rlineto
        </CharString>
        <CharString name="Aacute">
          1 vsindex
          10 -20 1 blend
          0 rmoveto
          32 144 1 blend
          0 rlineto
          140 396 -66 -80 2 blend
          rlineto
          28 80 24 68 24 82 -12 -18 -8 10 -10 -16 6 blend
          rrcurveto
          4 0 rlineto
          24 -82 24 -68 28 -80 -8 17 -8 -11 -12 18 6 blend
          rrcurveto
          138 -396 -64 80 2 blend
          rlineto
          34 148 1 blend
          0 rlineto
          -236 660 38 -10 2 blend
          rlineto
          -28 -180 1 blend
          0 rlineto
          -236 -660 38 10 2 blend
          rlineto
          102 236 40 -98 2 blend
          rmoveto
          293 25 1 blend
          0 rlineto
          0 28 105 1 blend
          rlineto
          -293 -25 1 blend
          0 rlineto
          0 -28 -105 1 blend
          rlineto
          96 474 62 1 blend
          rmoveto
          156 112 80 8 2 blend
          rlineto
          -20 24 -50 86 2 blend
          rlineto
          -152 -120 -74 -26 2 blend
          rlineto
          16 -16 44 -68 2 blend
          rlineto
        </CharString>
        <CharString name="Acircumflex">
          1 vsindex
          10 -20 1 blend
          0 rmoveto
          32 144 1 blend
          0 rlineto
          140 396 -66 -80 2 blend
          rlineto
          28 80 24 68 24 82 -12 -18 -8 10 -10 -16 6 blend
          rrcurveto
          4 0 rlineto
          24 -82 24 -68 28 -80 -8 17 -8 -11 -12 18 6 blend
          rrcurveto
          138 -396 -64 80 2 blend
          rlineto
          34 148 1 blend
          0 rlineto
          -236 660 38 -10 2 blend
          rlineto
          -28 -180 1 blend
          0 rlineto
          -236 -660 38 10 2 blend
          rlineto
          102 236 40 -98 2 blend
          rmoveto
          293 25 1 blend
          0 rlineto
          0 28 105 1 blend
          rlineto
          -293 -25 1 blend
          0 rlineto
          0 -28 -105 1 blend
          rlineto
          32 474 22 68 2 blend
          rmoveto
          114 100 -12 -20 2 blend
          rlineto
          4 0 rlineto
          114 -100 -12 20 2 blend
          rlineto
          14 16 60 28 2 blend
          rlineto
          -116 114 32 -4 2 blend
          rlineto
          -28 -160 1 blend
          0 rlineto
          -116 -114 32 4 2 blend
          rlineto
          14 -16 60 -28 2 blend
          rlineto
        </CharString>
        <CharString name="Adieresis">
          1 vsindex
          10 -20 1 blend
          0 rmoveto
          32 144 1 blend
          0 rlineto
          140 396 -66 -80 2 blend
          rlineto
          28 80 24 68 24 82 -12 -18 -8 10 -10 -16 6 blend
          rrcurveto
          4 0 rlineto
          24 -82 24 -68 28 -80 -8 17 -8 -11 -12 18 6 blend
          rrcurveto
          138 -396 -64 80 2 blend
          rlineto
          34 148 1 blend
          0 rlineto
          -236 660 38 -10 2 blend
          rlineto
          -28 -180 1 blend
          0 rlineto
          -236 -660 38 10 2 blend
          rlineto
          102 236 40 -98 2 blend
          rmoveto
          293 25 1 blend
          0 rlineto
          0 28 105 1 blend
          rlineto
          -293 -25 1 blend
          0 rlineto
          0 -28 -105 1 blend
          rlineto
          52 492 -8 64 2 blend
          rmoveto
          18 28 1 blend
          0 14 12 18 22 2 blend
          0 20 24 1 blend
          rrcurveto
          0 20 -14 12 -18 24 -18 22 -28 4 blend
          0 rrcurveto
          -18 -28 1 blend
          0 -14 -12 -18 -22 2 blend
          0 -20 -24 1 blend
          rrcurveto
          0 -20 14 -12 18 -24 18 -22 28 4 blend
          0 rrcurveto
          192 36 1 blend
          0 rmoveto
          18 28 1 blend
          0 14 12 18 22 2 blend
          0 20 24 1 blend
          rrcurveto
          0 20 -14 12 -18 24 -18 22 -28 4 blend
          0 rrcurveto
          -18 -28 1 blend
          0 -14 -12 -18 -22 2 blend
          0 -20 -24 1 blend
          rrcurveto
          0 -20 14 -12 18 -24 18 -22 28 4 blend
          0 rrcurveto
        </CharString>
        <CharString name="Agrave">
          1 vsindex
          10 -20 1 blend
          0 rmoveto
          32 144 1 blend
          0 rlineto
          140 396 -66 -80 2 blend
          rlineto
          28 80 24 68 24 82 -12 -18 -8 10 -10 -16 6 blend
          rrcurveto
          4 0 rlineto
          24 -82 24 -68 28 -80 -8 17 -8 -11 -12 18 6 blend
          rrcurveto
          138 -396 -64 80 2 blend
          rlineto
          34 148 1 blend
          0 rlineto
          -236 660 38 -10 2 blend
          rlineto
          -28 -180 1 blend
          0 rlineto
          -236 -660 38 10 2 blend
          rlineto
          102 236 40 -98 2 blend
          rmoveto
          293 25 1 blend
          0 rlineto
          0 28 105 1 blend
          rlineto
          -293 -25 1 blend
          0 rlineto
          0 -28 -105 1 blend
          rlineto
          200 474 20 62 2 blend
          rmoveto
          16 16 44 68 2 blend
          rlineto
          -152 120 -74 26 2 blend
          rlineto
          -20 -24 -50 -86 2 blend
          rlineto
          156 -112 80 -8 2 blend
          rlineto
        </CharString>
        <CharString name="Aring">
          1 vsindex
          10 -20 1 blend
          0 rmoveto
          32 144 1 blend
          0 rlineto
          140 396 -66 -80 2 blend
          rlineto
          28 80 24 68 24 82 -12 -18 -8 10 -10 -16 6 blend
          rrcurveto
          4 0 rlineto
          24 -82 24 -68 28 -80 -8 17 -8 -11 -12 18 6 blend
          rrcurveto
          138 -396 -64 80 2 blend
          rlineto
          34 148 1 blend
          0 rlineto
          -236 660 38 -10 2 blend
          rlineto
          -28 -180 1 blend
          0 rlineto
          -236 -660 38 10 2 blend
          rlineto
          102 236 40 -98 2 blend
          rmoveto
          293 25 1 blend
          0 rlineto
          0 28 105 1 blend
          rlineto
          -293 -25 1 blend
          0 rlineto
          0 -28 -105 1 blend
          rlineto
          148 464 10 94 2 blend
          rmoveto
          54 36 1 blend
          0 40 32 10 8 2 blend
          0 52 10 1 blend
          rrcurveto
          0 52 -40 32 -54 10 -10 8 -36 4 blend
          0 rrcurveto
          -54 -36 1 blend
          0 -40 -32 -10 -8 2 blend
          0 -52 -10 1 blend
          rrcurveto
          0 -52 40 -32 54 -10 10 -8 36 4 blend
          0 rrcurveto
          0 22 38 1 blend
          rmoveto
          -38 14 1 blend
          0 -30 20 16 -2 2 blend
          0 42 -18 1 blend
          rrcurveto
          0 42 30 20 38 -18 -16 -2 -14 4 blend
          0 rrcurveto
          38 -14 1 blend
          0 30 -20 -16 2 2 blend
          0 -42 18 1 blend
          rrcurveto
          0 -42 -30 -20 -38 18 16 2 14 4 blend
          0 rrcurveto
        </CharString>
        <CharString name="Atilde">
          1 vsindex
          10 -20 1 blend
          0 rmoveto
          32 144 1 blend
          0 rlineto
          140 396 -66 -80 2 blend
          rlineto
          28 80 24 68 24 82 -12 -18 -8 10 -10 -16 6 blend
          rrcurveto
          4 0 rlineto
          24 -82 24 -68 28 -80 -8 17 -8 -11 -12 18 6 blend
          rrcurveto
          138 -396 -64 80 2 blend
          rlineto
          34 148 1 blend
          0 rlineto
          -236 660 38 -10 2 blend
          rlineto
          -28 -180 1 blend
          0 rlineto
          -236 -660 38 10 2 blend
          rlineto
          102 236 40 -98 2 blend
          rmoveto
          293 25 1 blend
          0 rlineto
          0 28 105 1 blend
          rlineto
          -293 -25 1 blend
          0 rlineto
          0 -28 -105 1 blend
          rlineto
          226 486 2 62 2 blend
          rmoveto
          52 21 1 blend
          0 28 49 2 57 29 -7 4 53 4 blend
          rrcurveto
          -24 2 -86 6 2 blend
          rlineto
          -6 -48 -21 -32 -31 2 14 9 24 15 5 blend
          0 rrcurveto
          -58 30 1 blend
          0 -20 82 -78 -16 -30 8 3 blend
          0 rrcurveto
          -52 -21 1 blend
          0 -28 -49 -2 -57 -29 7 -4 -53 4 blend
          rrcurveto
          24 -2 86 -6 2 blend
          rlineto
          4 48 23 32 31 -14 -11 -24 -15 4 blend
          0 rrcurveto
          58 -30 1 blend
          0 20 -82 78 16 30 -8 3 blend
          0 rrcurveto
        </CharString>
        <CharString name="B">
          1 vsindex
          100 -28 1 blend
          0 rmoveto
          184 70 1 blend
          0 rlineto
          150 -10 1 blend
          0 94 66 22 -8 2 blend
          0 126 8 1 blend
          rrcurveto
          0 92 -58 54 -88 14 -6 8 -6 26 4 5 blend
          rrcurveto
          0 4 rlineto
          68 -18 1 blend
          20 36 54 -4 10 2 blend
          0 70 -14 1 blend
          rrcurveto
          0 108 -82 52 -132 20 -28 -18 -4 4 blend
          0 rrcurveto
          -172 -62 1 blend
          0 rlineto
          0 -660 10 1 blend
          rlineto
          32 366 140 30 2 blend
          rmoveto
          0 266 -144 1 blend
          rlineto
          126 -68 1 blend
          0 rlineto
          128 -72 1 blend
          0 68 -36 -42 20 2 blend
          0 -98 58 1 blend
          rrcurveto
          0 -82 -58 -50 -144 42 32 24 88 4 blend
          0 rrcurveto
          -120 62 1 blend
          0 rlineto
          0 -338 74 1 blend
          rmoveto
          0 310 -172 1 blend
          rlineto
          140 -70 1 blend
          0 rlineto
          142 -74 1 blend
          0 82 -48 -50 30 2 blend
          0 -100 52 1 blend
          rrcurveto
          0 -112 -86 -50 -138 64 54 26 70 4 blend
          0 rrcurveto
          -140 70 1 blend
          0 rlineto
        </CharString>
        <CharString name="C">
          1 vsindex
          328 26 1 blend
          -12 rmoveto
          86 -4 1 blend
          0 58 36 50 58 16 -6 8 8 4 blend
          rrcurveto
          -20 20 -70 82 2 blend
          rlineto
          -50 -56 -52 -28 -70 22 26 12 8 20 5 blend
          0 rrcurveto
          -148 64 1 blend
          0 -92 124 36 -56 2 blend
          0 190 -68 1 blend
          rrcurveto
          0 190 92 120 152 -72 -26 -50 -76 4 blend
          0 rrcurveto
          62 -18 1 blend
          0 50 -28 36 -42 -18 14 -4 14 4 blend
          rrcurveto
          20 22 70 82 2 blend
          rlineto
          -34 40 -58 -12 8 -12 3 blend
          38 -76 -10 1 blend
          0 rrcurveto
          -168 4 1 blend
          0 -110 -132 -40 8 2 blend
          0 -208 -10 1 blend
          rrcurveto
          0 -208 110 -136 162 -14 34 26 4 4 blend
          0 rrcurveto
        </CharString>
        <CharString name="Ccedilla">
          1 vsindex
          328 26 1 blend
          -12 rmoveto
          86 -4 1 blend
          0 58 36 50 58 16 -6 8 8 4 blend
          rrcurveto
          -20 20 -70 82 2 blend
          rlineto
          -50 -56 -52 -28 -70 22 26 12 8 20 5 blend
          0 rrcurveto
          -148 64 1 blend
          0 -92 124 36 -56 2 blend
          0 190 -68 1 blend
          rrcurveto
          0 190 92 120 152 -72 -26 -50 -76 4 blend
          0 rrcurveto
          62 -18 1 blend
          0 50 -28 36 -42 -18 14 -4 14 4 blend
          rrcurveto
          20 22 70 82 2 blend
          rlineto
          -34 40 -58 -12 8 -12 3 blend
          38 -76 -10 1 blend
          0 rrcurveto
          -168 4 1 blend
          0 -110 -132 -40 8 2 blend
          0 -208 -10 1 blend
          rrcurveto
          0 -208 110 -136 162 -14 34 26 4 4 blend
          0 rrcurveto
          -64 -204 -48 -28 2 blend
          rmoveto
          90 6 48 26 42 -2 30 6 4 blend
          0 50 22 1 blend
          rrcurveto
          0 40 -28 18 -42 10 2 2 4 -10 2 5 blend
          rrcurveto
          30 68 -2 -4 2 blend
          rlineto
          -28 -70 1 blend
          0 rlineto
          -40 -86 -10 -14 2 blend
          rlineto
          54 8 1 blend
          -8 24 -10 1 blend
          -14 0 -30 12 1 blend
          rrcurveto
          0 -30 -26 -18 -88 -6 2 2 8 12 2 5 blend
          rrcurveto
          6 -26 6 -40 2 blend
          rlineto
        </CharString>
        <CharString name="D">
          100 -17 -28 1 blend
          0 rmoveto
          148 33 54 1 blend
          0 rlineto
          204 -10 -16 1 blend
          0 92 136 26 44 -23 -38 2 blend
          0 196 21 34 1 blend
          rrcurveto
          0 196 -92 132 -204 20 34 -26 -44 -24 -40 4 6 4 blend
          0 rrcurveto
          -148 -27 -44 1 blend
          0 rlineto
          0 -660 6 10 1 blend
          rlineto
          32 28 84 140 66 110 2 blend
          rmoveto
          0 604 -138 -230 1 blend
          rlineto
          112 -61 -102 1 blend
          0 rlineto
          188 -56 -94 1 blend
          0 78 -126 -3 -4 56 94 2 blend
          0 -174 14 22 1 blend
          rrcurveto
          0 -174 -78 -130 -188 13 22 3 4 55 92 56 94 4 blend
          0 rrcurveto
          -112 61 102 1 blend
          0 rlineto
        </CharString>
        <CharString name="E">
          1 vsindex
          100 -28 1 blend
          0 rmoveto
          364 66 1 blend
          0 rlineto
          0 28 116 1 blend
          rlineto
          -332 74 1 blend
          0 rlineto
          0 310 -194 1 blend
          rlineto
          270 -58 1 blend
          0 rlineto
          0 28 116 1 blend
          rlineto
          -270 58 1 blend
          0 rlineto
          0 266 -164 1 blend
          rlineto
          322 -74 1 blend
          0 rlineto
          0 28 116 1 blend
          rlineto
          -354 -66 1 blend
          0 rlineto
          0 -660 10 1 blend
          rlineto
        </CharString>
        <CharString name="Eacute">
          1 vsindex
          100 -28 1 blend
          0 rmoveto
          364 66 1 blend
          0 rlineto
          0 28 116 1 blend
          rlineto
          -332 74 1 blend
          0 rlineto
          0 310 -194 1 blend
          rlineto
          270 -58 1 blend
          0 rlineto
          0 28 116 1 blend
          rlineto
          -270 58 1 blend
          0 rlineto
          0 266 -164 1 blend
          rlineto
          322 -74 1 blend
          0 rlineto
          0 28 116 1 blend
          rlineto
          -354 -66 1 blend
          0 rlineto
          0 -660 10 1 blend
          rlineto
          138 710 18 -36 2 blend
          rmoveto
          156 112 80 8 2 blend
          rlineto
          -20 24 -50 86 2 blend
          rlineto
          -152 -120 -74 -26 2 blend
          rlineto
          16 -16 44 -68 2 blend
          rlineto
        </CharString>
        <CharString name="Ecircumflex">
          1 vsindex
          100 -28 1 blend
          0 rmoveto
          364 66 1 blend
          0 rlineto
          0 28 116 1 blend
          rlineto
          -332 74 1 blend
          0 rlineto
          0 310 -194 1 blend
          rlineto
          270 -58 1 blend
          0 rlineto
          0 28 116 1 blend
          rlineto
          -270 58 1 blend
          0 rlineto
          0 266 -164 1 blend
          rlineto
          322 -74 1 blend
          0 rlineto
          0 28 116 1 blend
          rlineto
          -354 -66 1 blend
          0 rlineto
          0 -660 10 1 blend
          rlineto
          74 710 40 -30 2 blend
          rmoveto
          114 100 -12 -20 2 blend
          rlineto
          4 0 rlineto
          114 -100 -12 20 2 blend
          rlineto
          14 16 60 28 2 blend
          rlineto
          -116 114 32 -4 2 blend
          rlineto
          -28 -160 1 blend
          0 rlineto
          -116 -114 32 4 2 blend
          rlineto
          14 -16 60 -28 2 blend
          rlineto
        </CharString>
        <CharString name="Edieresis">
          1 vsindex
          100 -28 1 blend
          0 rmoveto
          364 66 1 blend
          0 rlineto
          0 28 116 1 blend
          rlineto
          -332 74 1 blend
          0 rlineto
          0 310 -194 1 blend
          rlineto
          270 -58 1 blend
          0 rlineto
          0 28 116 1 blend
          rlineto
          -270 58 1 blend
          0 rlineto
          0 266 -164 1 blend
          rlineto
          322 -74 1 blend
          0 rlineto
          0 28 116 1 blend
          rlineto
          -354 -66 1 blend
          0 rlineto
          0 -660 10 1 blend
          rlineto
          94 728 10 -34 2 blend
          rmoveto
          18 28 1 blend
          0 14 12 18 22 2 blend
          0 20 24 1 blend
          rrcurveto
          0 20 -14 12 -18 24 -18 22 -28 4 blend
          0 rrcurveto
          -18 -28 1 blend
          0 -14 -12 -18 -22 2 blend
          0 -20 -24 1 blend
          rrcurveto
          0 -20 14 -12 18 -24 18 -22 28 4 blend
          0 rrcurveto
          192 36 1 blend
          0 rmoveto
          18 28 1 blend
          0 14 12 18 22 2 blend
          0 20 24 1 blend
          rrcurveto
          0 20 -14 12 -18 24 -18 22 -28 4 blend
          0 rrcurveto
          -18 -28 1 blend
          0 -14 -12 -18 -22 2 blend
          0 -20 -24 1 blend
          rrcurveto
          0 -20 14 -12 18 -24 18 -22 28 4 blend
          0 rrcurveto
        </CharString>
        <CharString name="Egrave">
          1 vsindex
          100 -28 1 blend
          0 rmoveto
          364 66 1 blend
          0 rlineto
          0 28 116 1 blend
          rlineto
          -332 74 1 blend
          0 rlineto
          0 310 -194 1 blend
          rlineto
          270 -58 1 blend
          0 rlineto
          0 28 116 1 blend
          rlineto
          -270 58 1 blend
          0 rlineto
          0 266 -164 1 blend
          rlineto
          322 -74 1 blend
          0 rlineto
          0 28 116 1 blend
          rlineto
          -354 -66 1 blend
          0 rlineto
          0 -660 10 1 blend
          rlineto
          242 710 38 -36 2 blend
          rmoveto
          16 16 44 68 2 blend
          rlineto
          -152 120 -74 26 2 blend
          rlineto
          -20 -24 -50 -86 2 blend
          rlineto
          156 -112 80 -8 2 blend
          rlineto
        </CharString>
        <CharString name="Eth">
          38 336 -8 -14 -38 -58 2 blend
          rmoveto
          282 48 80 1 blend
          0 rlineto
          0 28 58 84 1 blend
          rlineto
          -198 -53 -88 1 blend
          0 rlineto
          -84 -2 5 8 -2 -4 2 blend
          rlineto
          0 -26 -56 -80 1 blend
          rlineto
          82 -336 -5 -8 38 58 2 blend
          rmoveto
          148 33 54 1 blend
          0 rlineto
          204 -10 -16 1 blend
          0 92 136 26 44 -23 -38 2 blend
          0 196 21 34 1 blend
          rrcurveto
          0 196 -92 132 -204 20 34 -26 -44 -24 -40 4 6 4 blend
          0 rrcurveto
          -148 -27 -44 1 blend
          0 rlineto
          0 -660 6 10 1 blend
          rlineto
          32 28 84 140 66 110 2 blend
          rmoveto
          0 604 -138 -230 1 blend
          rlineto
          112 -61 -102 1 blend
          0 rlineto
          188 -56 -94 1 blend
          0 78 -126 -3 -4 56 94 2 blend
          0 -174 14 22 1 blend
          rrcurveto
          0 -174 -78 -130 -188 13 22 3 4 55 92 56 94 4 blend
          0 rrcurveto
          -112 61 102 1 blend
          0 rlineto
        </CharString>
        <CharString name="F">
          1 vsindex
          100 -28 1 blend
          0 rmoveto
          32 140 1 blend
          0 rlineto
          0 326 -88 1 blend
          rlineto
          270 -54 1 blend
          0 rlineto
          0 28 116 1 blend
          rlineto
          -270 54 1 blend
          0 rlineto
          0 278 -154 1 blend
          rlineto
          320 -68 1 blend
          0 rlineto
          0 28 116 1 blend
          rlineto
          -352 -72 1 blend
          0 rlineto
          0 -660 10 1 blend
          rlineto
        </CharString>
        <CharString name="G">
          1 vsindex
          334 38 1 blend
          -12 rmoveto
          86 6 1 blend
          0 66 30 40 16 6 6 3 blend
          44 rrcurveto
          0 256 54 1 blend
          rlineto
          -196 -52 1 blend
          0 rlineto
          0 -28 -112 1 blend
          rlineto
          164 -68 1 blend
          0 rlineto
          0 -218 128 1 blend
          rlineto
          -34 -34 -60 -20 -64 22 26 40 16 46 5 blend
          0 rrcurveto
          -154 38 1 blend
          0 -92 124 38 -56 2 blend
          0 190 -68 1 blend
          rrcurveto
          0 190 96 120 158 -72 -30 -50 -70 4 blend
          0 rrcurveto
          74 -22 1 blend
          0 48 -32 34 -38 -16 18 -2 10 4 blend
          rrcurveto
          20 22 70 82 2 blend
          rlineto
          -34 36 -54 42 -88 -12 12 -16 -4 -8 5 blend
          0 rrcurveto
          -174 0 -114 -132 -36 8 2 blend
          0 -208 -10 1 blend
          rrcurveto
          0 -208 110 -136 168 -14 36 26 14 4 blend
          0 rrcurveto
        </CharString>
        <CharString name="H">
          100 -17 -28 1 blend
          0 rmoveto
          32 84 140 1 blend
          0 rlineto
          0 338 -48 -80 1 blend
          rlineto
          370 -105 -176 1 blend
          0 rlineto
          0 -338 48 80 1 blend
          rlineto
          32 84 140 1 blend
          0 rlineto
          0 660 -6 -10 1 blend
          rlineto
          -32 -84 -140 1 blend
          0 rlineto
          0 -294 31 52 1 blend
          rlineto
          -370 105 176 1 blend
          0 rlineto
          0 294 -31 -52 1 blend
          rlineto
          -32 -84 -140 1 blend
          0 rlineto
          0 -660 6 10 1 blend
          rlineto
        </CharString>
        <CharString name="I">
          1 vsindex
          100 -28 1 blend
          0 rmoveto
          32 140 1 blend
          0 rlineto
          0 660 -10 1 blend
          rlineto
          -32 -140 1 blend
          0 rlineto
          0 -660 10 1 blend
          rlineto
        </CharString>
        <CharString name="Iacute">
          1 vsindex
          100 -28 1 blend
          0 rmoveto
          32 140 1 blend
          0 rlineto
          0 660 -10 1 blend
          rlineto
          -32 -140 1 blend
          0 rlineto
          0 -660 10 1 blend
          rlineto
          -36 710 62 -36 2 blend
          rmoveto
          156 112 80 8 2 blend
          rlineto
          -20 24 -50 86 2 blend
          rlineto
          -152 -120 -74 -26 2 blend
          rlineto
          16 -16 44 -68 2 blend
          rlineto
        </CharString>
        <CharString name="Icircumflex">
          1 vsindex
          100 -28 1 blend
          0 rmoveto
          32 140 1 blend
          0 rlineto
          0 660 -10 1 blend
          rlineto
          -32 -140 1 blend
          0 rlineto
          0 -660 10 1 blend
          rlineto
          -100 710 84 -30 2 blend
          rmoveto
          114 100 -12 -20 2 blend
          rlineto
          4 0 rlineto
          114 -100 -12 20 2 blend
          rlineto
          14 16 60 28 2 blend
          rlineto
          -116 114 32 -4 2 blend
          rlineto
          -28 -160 1 blend
          0 rlineto
          -116 -114 32 4 2 blend
          rlineto
          14 -16 60 -28 2 blend
          rlineto
        </CharString>
        <CharString name="Idieresis">
          1 vsindex
          100 -28 1 blend
          0 rmoveto
          32 140 1 blend
          0 rlineto
          0 660 -10 1 blend
          rlineto
          -32 -140 1 blend
          0 rlineto
          0 -660 10 1 blend
          rlineto
          -80 728 54 -34 2 blend
          rmoveto
          18 28 1 blend
          0 14 12 18 22 2 blend
          0 20 24 1 blend
          rrcurveto
          0 20 -14 12 -18 24 -18 22 -28 4 blend
          0 rrcurveto
          -18 -28 1 blend
          0 -14 -12 -18 -22 2 blend
          0 -20 -24 1 blend
          rrcurveto
          0 -20 14 -12 18 -24 18 -22 28 4 blend
          0 rrcurveto
          192 36 1 blend
          0 rmoveto
          18 28 1 blend
          0 14 12 18 22 2 blend
          0 20 24 1 blend
          rrcurveto
          0 20 -14 12 -18 24 -18 22 -28 4 blend
          0 rrcurveto
          -18 -28 1 blend
          0 -14 -12 -18 -22 2 blend
          0 -20 -24 1 blend
          rrcurveto
          0 -20 14 -12 18 -24 18 -22 28 4 blend
          0 rrcurveto
        </CharString>
        <CharString name="Igrave">
          1 vsindex
          100 -28 1 blend
          0 rmoveto
          32 140 1 blend
          0 rlineto
          0 660 -10 1 blend
          rlineto
          -32 -140 1 blend
          0 rlineto
          0 -660 10 1 blend
          rlineto
          68 710 82 -36 2 blend
          rmoveto
          16 16 44 68 2 blend
          rlineto
          -152 120 -74 26 2 blend
          rlineto
          -20 -24 -50 -86 2 blend
          rlineto
          156 -112 80 -8 2 blend
          rlineto
        </CharString>
        <CharString name="J">
          1 vsindex
          200 20 1 blend
          -12 rmoveto
          116 42 1 blend
          0 42 82 32 28 2 blend
          0 104 30 1 blend
          rrcurveto
          0 486 -68 1 blend
          rlineto
          -32 -140 1 blend
          0 rlineto
          0 -482 78 1 blend
          rlineto
          0 -110 -40 -50 -84 24 14 26 32 4 blend
          0 rrcurveto
          -58 26 1 blend
          0 -40 22 -34 58 8 -2 18 -26 4 blend
          rrcurveto
          -26 -16 -82 -58 2 blend
          rlineto
          32 -60 54 -34 70 12 -28 12 -4 26 5 blend
          0 rrcurveto
        </CharString>
        <CharString name="K">
          1 vsindex
          100 -28 1 blend
          0 rmoveto
          32 140 1 blend
          0 rlineto
          0 234 -72 1 blend
          rlineto
          142 160 -80 -72 2 blend
          rlineto
          226 -394 -82 144 2 blend
          rlineto
          38 150 1 blend
          0 rlineto
          -240 418 8 -32 2 blend
          rlineto
          212 242 -18 22 2 blend
          rlineto
          -40 -148 1 blend
          0 rlineto
          -336 -380 172 138 2 blend
          rlineto
          -2 -2 1 blend
          0 rlineto
          0 380 -138 1 blend
          rlineto
          -32 -140 1 blend
          0 rlineto
          0 -660 10 1 blend
          rlineto
        </CharString>
        <CharString name="L">
          1 vsindex
          100 -28 1 blend
          0 rmoveto
          342 76 1 blend
          0 rlineto
          0 28 116 1 blend
          rlineto
          -310 64 1 blend
          0 rlineto
          0 632 -126 1 blend
          rlineto
          -32 -140 1 blend
          0 rlineto
          0 -660 10 1 blend
          rlineto
        </CharString>
        <CharString name="M">
          100 -18 -28 1 blend
          0 rmoveto
          30 78 124 1 blend
          0 rlineto
          0 460 -162 -268 1 blend
          rlineto
          0 52 -2 66 -2 54 10 14 -8 -12 24 54 -6 -6 6 12 5 blend
          rrcurveto
          4 0 rlineto
          52 -146 -12 -30 1 blend
          rlineto
          150 -412 -46 -70 120 197 2 blend
          rlineto
          34 44 58 1 blend
          0 rlineto
          149 412 -43 -69 -120 -197 2 blend
          rlineto
          51 146 1 3 12 30 2 blend
          rlineto
          4 0 rlineto
          -2 -54 -2 -66 -6 -6 -6 -12 -8 -12 -24 -54 4 blend
          0 -52 -10 -14 1 blend
          rrcurveto
          0 -460 162 268 1 blend
          rlineto
          32 78 124 1 blend
          0 rlineto
          0 660 -6 -10 1 blend
          rlineto
          -52 -88 -132 1 blend
          0 rlineto
          -142 -400 30 48 80 134 2 blend
          rlineto
          -18 -50 -16 -50 -18 -50 4 6 8 14 6 6 12 10 6 6 2 12 6 blend
          rrcurveto
          -4 0 rlineto
          -18 50 -18 50 -18 50 6 6 -2 -12 6 8 -12 -10 4 6 -8 -14 6 blend
          rrcurveto
          -142 400 30 44 -80 -134 2 blend
          rlineto
          -52 -88 -132 1 blend
          0 rlineto
          0 -660 6 10 1 blend
          rlineto
        </CharString>
        <CharString name="N">
          100 -17 -28 1 blend
          0 rmoveto
          30 81 134 1 blend
          0 rlineto
          0 434 -148 -246 1 blend
          rlineto
          0 62 -2 56 -2 62 11 18 -6 -12 25 38 -5 -6 6 12 5 blend
          rrcurveto
          4 0 rlineto
          24 -42 26 -44 26 -3 -4 -10 -8 -4 -6 -8 -8 -2 -4 5 blend
          -44 rrcurveto
          292 -484 -96 -148 124 194 2 blend
          rlineto
          34 93 142 1 blend
          0 rlineto
          0 660 -6 -10 1 blend
          rlineto
          -30 -81 -134 1 blend
          0 rlineto
          0 -428 142 240 1 blend
          rlineto
          0 -62 2 -60 2 -64 -10 -18 6 12 -20 -38 5 6 -6 -6 5 blend
          rrcurveto
          -4 0 rlineto
          -24 42 -26 44 -26 3 4 10 8 4 6 8 8 2 4 5 blend
          44 rrcurveto
          -292 484 96 148 -124 -194 2 blend
          rlineto
          -34 -93 -142 1 blend
          0 rlineto
          0 -660 6 10 1 blend
          rlineto
        </CharString>
        <CharString name="Ntilde">
          1 vsindex
          100 -28 1 blend
          0 rmoveto
          30 134 1 blend
          0 rlineto
          0 434 -246 1 blend
          rlineto
          0 62 -2 56 -2 62 18 -12 38 -6 12 5 blend
          rrcurveto
          4 0 rlineto
          24 -42 26 -44 26 -4 -8 -6 -8 -4 5 blend
          -44 rrcurveto
          292 -484 -148 194 2 blend
          rlineto
          34 142 1 blend
          0 rlineto
          0 660 -10 1 blend
          rlineto
          -30 -134 1 blend
          0 rlineto
          0 -428 240 1 blend
          rlineto
          0 -62 2 -60 2 -64 -18 12 -38 6 -6 5 blend
          rrcurveto
          -4 0 rlineto
          -24 42 -26 44 -26 4 8 6 8 4 5 blend
          44 rrcurveto
          -292 484 148 -194 2 blend
          rlineto
          -34 -142 1 blend
          0 rlineto
          0 -660 10 1 blend
          rlineto
          308 722 30 -36 2 blend
          rmoveto
          52 21 1 blend
          0 28 49 2 57 29 -7 4 53 4 blend
          rrcurveto
          -24 2 -86 6 2 blend
          rlineto
          -6 -48 -21 -32 -31 2 14 9 24 15 5 blend
          0 rrcurveto
          -58 30 1 blend
          0 -20 82 -78 -16 -30 8 3 blend
          0 rrcurveto
          -52 -21 1 blend
          0 -28 -49 -2 -57 -29 7 -4 -53 4 blend
          rrcurveto
          24 -2 86 -6 2 blend
          rlineto
          4 48 23 32 31 -14 -11 -24 -15 4 blend
          0 rrcurveto
          58 -30 1 blend
          0 20 -82 78 16 30 -8 3 blend
          0 rrcurveto
        </CharString>
        <CharString name="O">
          324 13 22 1 blend
          -12 rmoveto
          156 15 24 1 blend
          0 112 136 6 10 -6 -10 2 blend
          0 208 4 6 1 blend
          rrcurveto
          0 208 -112 132 -156 3 5 -6 -10 -7 -11 -15 -24 4 blend
          0 rrcurveto
          -156 -14 -24 1 blend
          0 -112 -132 -6 -10 7 12 2 blend
          0 -208 -3 -6 1 blend
          rrcurveto
          0 -208 112 -136 156 -4 -6 6 10 6 10 14 24 4 blend
          0 rrcurveto
          0 30 71 118 1 blend
          rmoveto
          -140 37 62 1 blend
          0 -94 124 28 46 -30 -50 2 blend
          0 190 -43 -72 1 blend
          rrcurveto
          0 190 94 120 140 -44 -72 -28 -46 -31 -52 -37 -62 4 blend
          0 rrcurveto
          140 -37 -62 1 blend
          0 94 -120 -28 -46 31 52 2 blend
          0 -190 44 72 1 blend
          rrcurveto
          0 -190 -94 -124 -140 43 72 28 46 30 50 37 62 4 blend
          0 rrcurveto
        </CharString>
        <CharString name="Oacute">
          1 vsindex
          324 22 1 blend
          -12 rmoveto
          156 24 1 blend
          0 112 136 10 -10 2 blend
          0 208 6 1 blend
          rrcurveto
          0 208 -112 132 -156 5 -10 -11 -24 4 blend
          0 rrcurveto
          -156 -24 1 blend
          0 -112 -132 -10 12 2 blend
          0 -208 -6 1 blend
          rrcurveto
          0 -208 112 -136 156 -6 10 10 24 4 blend
          0 rrcurveto
          0 30 118 1 blend
          rmoveto
          -140 62 1 blend
          0 -94 124 46 -50 2 blend
          0 190 -72 1 blend
          rrcurveto
          0 190 94 120 140 -72 -46 -52 -62 4 blend
          0 rrcurveto
          140 -62 1 blend
          0 94 -120 -46 52 2 blend
          0 -190 72 1 blend
          rrcurveto
          0 -190 -94 -124 -140 72 46 50 62 4 blend
          0 rrcurveto
          -52 692 -10 -154 2 blend
          rmoveto
          156 112 80 8 2 blend
          rlineto
          -20 24 -50 86 2 blend
          rlineto
          -152 -120 -74 -26 2 blend
          rlineto
          16 -16 44 -68 2 blend
          rlineto
        </CharString>
        <CharString name="Ocircumflex">
          1 vsindex
          324 22 1 blend
          -12 rmoveto
          156 24 1 blend
          0 112 136 10 -10 2 blend
          0 208 6 1 blend
          rrcurveto
          0 208 -112 132 -156 5 -10 -11 -24 4 blend
          0 rrcurveto
          -156 -24 1 blend
          0 -112 -132 -10 12 2 blend
          0 -208 -6 1 blend
          rrcurveto
          0 -208 112 -136 156 -6 10 10 24 4 blend
          0 rrcurveto
          0 30 118 1 blend
          rmoveto
          -140 62 1 blend
          0 -94 124 46 -50 2 blend
          0 190 -72 1 blend
          rrcurveto
          0 190 94 120 140 -72 -46 -52 -62 4 blend
          0 rrcurveto
          140 -62 1 blend
          0 94 -120 -46 52 2 blend
          0 -190 72 1 blend
          rrcurveto
          0 -190 -94 -124 -140 72 46 50 62 4 blend
          0 rrcurveto
          -116 692 12 -148 2 blend
          rmoveto
          114 100 -12 -20 2 blend
          rlineto
          4 0 rlineto
          114 -100 -12 20 2 blend
          rlineto
          14 16 60 28 2 blend
          rlineto
          -116 114 32 -4 2 blend
          rlineto
          -28 -160 1 blend
          0 rlineto
          -116 -114 32 4 2 blend
          rlineto
          14 -16 60 -28 2 blend
          rlineto
        </CharString>
        <CharString name="Odieresis">
          1 vsindex
          324 22 1 blend
          -12 rmoveto
          156 24 1 blend
          0 112 136 10 -10 2 blend
          0 208 6 1 blend
          rrcurveto
          0 208 -112 132 -156 5 -10 -11 -24 4 blend
          0 rrcurveto
          -156 -24 1 blend
          0 -112 -132 -10 12 2 blend
          0 -208 -6 1 blend
          rrcurveto
          0 -208 112 -136 156 -6 10 10 24 4 blend
          0 rrcurveto
          0 30 118 1 blend
          rmoveto
          -140 62 1 blend
          0 -94 124 46 -50 2 blend
          0 190 -72 1 blend
          rrcurveto
          0 190 94 120 140 -72 -46 -52 -62 4 blend
          0 rrcurveto
          140 -62 1 blend
          0 94 -120 -46 52 2 blend
          0 -190 72 1 blend
          rrcurveto
          0 -190 -94 -124 -140 72 46 50 62 4 blend
          0 rrcurveto
          -96 710 -18 -152 2 blend
          rmoveto
          18 28 1 blend
          0 14 12 18 22 2 blend
          0 20 24 1 blend
          rrcurveto
          0 20 -14 12 -18 24 -18 22 -28 4 blend
          0 rrcurveto
          -18 -28 1 blend
          0 -14 -12 -18 -22 2 blend
          0 -20 -24 1 blend
          rrcurveto
          0 -20 14 -12 18 -24 18 -22 28 4 blend
          0 rrcurveto
          192 36 1 blend
          0 rmoveto
          18 28 1 blend
          0 14 12 18 22 2 blend
          0 20 24 1 blend
          rrcurveto
          0 20 -14 12 -18 24 -18 22 -28 4 blend
          0 rrcurveto
          -18 -28 1 blend
          0 -14 -12 -18 -22 2 blend
          0 -20 -24 1 blend
          rrcurveto
          0 -20 14 -12 18 -24 18 -22 28 4 blend
          0 rrcurveto
        </CharString>
        <CharString name="Ograve">
          1 vsindex
          324 22 1 blend
          -12 rmoveto
          156 24 1 blend
          0 112 136 10 -10 2 blend
          0 208 6 1 blend
          rrcurveto
          0 208 -112 132 -156 5 -10 -11 -24 4 blend
          0 rrcurveto
          -156 -24 1 blend
          0 -112 -132 -10 12 2 blend
          0 -208 -6 1 blend
          rrcurveto
          0 -208 112 -136 156 -6 10 10 24 4 blend
          0 rrcurveto
          0 30 118 1 blend
          rmoveto
          -140 62 1 blend
          0 -94 124 46 -50 2 blend
          0 190 -72 1 blend
          rrcurveto
          0 190 94 120 140 -72 -46 -52 -62 4 blend
          0 rrcurveto
          140 -62 1 blend
          0 94 -120 -46 52 2 blend
          0 -190 72 1 blend
          rrcurveto
          0 -190 -94 -124 -140 72 46 50 62 4 blend
          0 rrcurveto
          52 692 10 -154 2 blend
          rmoveto
          16 16 44 68 2 blend
          rlineto
          -152 120 -74 26 2 blend
          rlineto
          -20 -24 -50 -86 2 blend
          rlineto
          156 -112 80 -8 2 blend
          rlineto
        </CharString>
        <CharString name="Oslash">
          80 -20 30 44 -20 -26 2 blend
          rmoveto
          506 684 28 46 -6 -10 2 blend
          rlineto
          -22 16 -48 -66 40 52 2 blend
          rlineto
          -506 -684 -27 -46 6 10 2 blend
          rlineto
          22 -16 47 66 -40 -52 2 blend
          rlineto
          248 8 -19 -26 20 26 2 blend
          rmoveto
          156 15 24 1 blend
          0 112 136 6 10 -6 -10 2 blend
          0 208 4 6 1 blend
          rrcurveto
          0 208 -112 132 -156 3 5 -6 -10 -7 -11 -15 -24 4 blend
          0 rrcurveto
          -156 -14 -24 1 blend
          0 -112 -132 -6 -10 7 12 2 blend
          0 -208 -3 -6 1 blend
          rrcurveto
          0 -208 112 -136 156 -4 -6 6 10 6 10 14 24 4 blend
          0 rrcurveto
          0 30 71 118 1 blend
          rmoveto
          -140 37 62 1 blend
          0 -94 124 28 46 -30 -50 2 blend
          0 190 -43 -72 1 blend
          rrcurveto
          0 190 94 120 140 -44 -72 -28 -46 -31 -52 -37 -62 4 blend
          0 rrcurveto
          140 -37 -62 1 blend
          0 94 -120 -28 -46 31 52 2 blend
          0 -190 44 72 1 blend
          rrcurveto
          0 -190 -94 -124 -140 43 72 28 46 30 50 37 62 4 blend
          0 rrcurveto
        </CharString>
        <CharString name="Otilde">
          1 vsindex
          324 22 1 blend
          -12 rmoveto
          156 24 1 blend
          0 112 136 10 -10 2 blend
          0 208 6 1 blend
          rrcurveto
          0 208 -112 132 -156 5 -10 -11 -24 4 blend
          0 rrcurveto
          -156 -24 1 blend
          0 -112 -132 -10 12 2 blend
          0 -208 -6 1 blend
          rrcurveto
          0 -208 112 -136 156 -6 10 10 24 4 blend
          0 rrcurveto
          0 30 118 1 blend
          rmoveto
          -140 62 1 blend
          0 -94 124 46 -50 2 blend
          0 190 -72 1 blend
          rrcurveto
          0 190 94 120 140 -72 -46 -52 -62 4 blend
          0 rrcurveto
          140 -62 1 blend
          0 94 -120 -46 52 2 blend
          0 -190 72 1 blend
          rrcurveto
          0 -190 -94 -124 -140 72 46 50 62 4 blend
          0 rrcurveto
          78 704 -8 -154 2 blend
          rmoveto
          52 21 1 blend
          0 28 49 2 57 29 -7 4 53 4 blend
          rrcurveto
          -24 2 -86 6 2 blend
          rlineto
          -6 -48 -21 -32 -31 2 14 9 24 15 5 blend
          0 rrcurveto
          -58 30 1 blend
          0 -20 82 -78 -16 -30 8 3 blend
          0 rrcurveto
          -52 -21 1 blend
          0 -28 -49 -2 -57 -29 7 -4 -53 4 blend
          rrcurveto
          24 -2 86 -6 2 blend
          rlineto
          4 48 23 32 31 -14 -11 -24 -15 4 blend
          0 rrcurveto
          58 -30 1 blend
          0 20 -82 78 16 30 -8 3 blend
          0 rrcurveto
        </CharString>
        <CharString name="P">
          1 vsindex
          100 -28 1 blend
          0 rmoveto
          32 140 1 blend
          0 rlineto
          0 292 -86 1 blend
          rlineto
          130 -60 1 blend
          0 rlineto
          148 -12 1 blend
          0 84 62 40 7 2 blend
          0 126 33 1 blend
          rrcurveto
          0 132 -86 48 -150 32 -36 4 8 4 blend
          0 rrcurveto
          -158 -80 1 blend
          0 rlineto
          0 -660 10 1 blend
          rlineto
          32 320 140 22 2 blend
          rmoveto
          0 312 -140 1 blend
          rlineto
          114 -56 1 blend
          0 rlineto
          144 -78 1 blend
          0 70 -36 -32 14 2 blend
          0 -116 58 1 blend
          rrcurveto
          0 -114 -68 -46 -142 56 36 12 74 4 blend
          0 rrcurveto
          -118 56 1 blend
          0 rlineto
        </CharString>
        <CharString name="Q">
          1 vsindex
          324 22 1 blend
          -12 rmoveto
          156 24 1 blend
          0 112 136 10 -10 2 blend
          0 208 6 1 blend
          rrcurveto
          0 208 -112 132 -156 5 -10 -11 -24 4 blend
          0 rrcurveto
          -156 -24 1 blend
          0 -112 -132 -10 12 2 blend
          0 -208 -6 1 blend
          rrcurveto
          0 -208 112 -136 156 -6 10 10 24 4 blend
          0 rrcurveto
          0 28 112 1 blend
          rmoveto
          -140 62 1 blend
          0 -94 126 46 -54 2 blend
          0 190 -62 1 blend
          rrcurveto
          0 190 94 120 140 -72 -46 -52 -62 4 blend
          0 rrcurveto
          140 -62 1 blend
          0 94 -120 -46 52 2 blend
          0 -190 72 1 blend
          rrcurveto
          0 -190 -94 -126 -140 62 46 54 62 4 blend
          0 rrcurveto
          190 -168 30 -148 2 blend
          rmoveto
          30 25 1 blend
          0 30 6 16 6 13 4 10 8 4 blend
          rrcurveto
          -8 28 -22 94 2 blend
          rlineto
          -16 -4 -20 -4 -2 -6 3 blend
          -4 -30 2 1 blend
          0 rrcurveto
          -90 34 1 blend
          0 -62 44 -28 76 -6 -26 4 -18 4 blend
          rrcurveto
          -36 0 -138 -18 2 blend
          rlineto
          28 -86 74 -66 112 20 -26 30 -16 38 5 blend
          0 rrcurveto
        </CharString>
        <CharString name="R">
          1 vsindex
          100 -28 1 blend
          0 rmoveto
          32 140 1 blend
          0 rlineto
          0 312 -94 1 blend
          rlineto
          150 -76 1 blend
          0 rlineto
          130 10 1 blend
          0 82 62 38 3 2 blend
          0 116 41 1 blend
          rrcurveto
          0 122 -82 40 -38 2 blend
          48 -130 -10 1 blend
          0 rrcurveto
          -182 -64 1 blend
          0 rlineto
          0 -660 10 1 blend
          rlineto
          32 340 140 14 2 blend
          rmoveto
          0 292 -132 1 blend
          rlineto
          138 -76 1 blend
          0 rlineto
          122 -54 1 blend
          0 68 -38 -32 20 2 blend
          0 -104 48 1 blend
          rrcurveto
          0 -102 -68 -48 -122 46 32 18 54 4 blend
          0 rrcurveto
          -138 76 1 blend
          0 rlineto
          334 -340 -156 -14 2 blend
          rmoveto
          38 154 1 blend
          0 rlineto
          -194 324 -17 53 2 blend
          rlineto
          -36 -2 -80 -112 2 blend
          rlineto
          192 -322 -57 59 2 blend
          rlineto
        </CharString>
        <CharString name="S">
          1 vsindex
          268 10 1 blend
          -12 rmoveto
          124 38 1 blend
          0 82 74 10 24 2 blend
          0 100 10 1 blend
          rrcurveto
          0 102 -67 39 -73 33 -12 21 17 -8 -1 5 blend
          rrcurveto
          -102 46 23 -15 2 blend
          rlineto
          -47 21 -69 31 -12 2 32 -20 4 blend
          0 82 -51 1 blend
          rrcurveto
          0 76 62 50 92 -47 -36 -35 -50 4 blend
          0 rrcurveto
          68 -30 1 blend
          0 54 -28 38 -42 -10 12 6 12 4 blend
          rrcurveto
          20 22 70 90 2 blend
          rlineto
          -38 41 -62 37 -80 -21 13 -17 -9 2 5 blend
          0 rrcurveto
          -106 -36 1 blend
          0 -80 -64 -20 -27 2 blend
          0 -94 -17 1 blend
          rrcurveto
          0 -98 78 -39 56 -25 4 -17 -20 14 -3 5 blend
          rrcurveto
          102 -46 -21 12 2 blend
          rlineto
          66 -30 56 -28 -11 8 -23 18 4 blend
          0 -88 57 1 blend
          rrcurveto
          0 -84 -68 -58 -106 55 46 41 54 4 blend
          0 rrcurveto
          -80 28 1 blend
          0 -70 36 -48 56 8 -16 2 -18 4 blend
          rrcurveto
          -22 -22 -68 -90 2 blend
          rlineto
          50 -58 72 -42 98 20 -8 18 14 -12 5 blend
          0 rrcurveto
        </CharString>
        <CharString name="T">
          244 -29 -48 1 blend
          0 rmoveto
          32 84 140 1 blend
          0 rlineto
          0 632 -76 -126 1 blend
          rlineto
          214 -25 -42 1 blend
          0 rlineto
          0 28 70 116 1 blend
          rlineto
          -460 -34 -56 1 blend
          0 rlineto
          0 -28 -70 -116 1 blend
          rlineto
          214 -25 -42 1 blend
          0 rlineto
          0 -632 76 126 1 blend
          rlineto
        </CharString>
        <CharString name="Thorn">
          1 vsindex
          100 -28 1 blend
          0 rmoveto
          32 140 1 blend
          0 rlineto
          0 172 -60 1 blend
          rlineto
          140 -60 1 blend
          0 rlineto
          148 -12 1 blend
          0 84 62 40 7 2 blend
          0 126 33 1 blend
          rrcurveto
          0 132 -84 48 -148 32 -36 4 8 4 blend
          0 rrcurveto
          -140 60 1 blend
          0 rlineto
          0 120 -26 1 blend
          rlineto
          -32 -140 1 blend
          0 rlineto
          0 -660 10 1 blend
          rlineto
          32 200 140 48 2 blend
          rmoveto
          0 312 -140 1 blend
          rlineto
          128 -56 1 blend
          0 rlineto
          142 -78 1 blend
          0 68 -36 -32 14 2 blend
          0 -116 58 1 blend
          rrcurveto
          0 -114 -68 -46 -142 56 36 12 74 4 blend
          0 rrcurveto
          -128 56 1 blend
          0 rlineto
        </CharString>
        <CharString name="U">
          1 vsindex
          314 24 1 blend
          -12 rmoveto
          106 76 1 blend
          0 112 54 -28 50 2 blend
          0 204 18 1 blend
          rrcurveto
          0 414 -78 1 blend
          rlineto
          -30 -136 1 blend
          0 rlineto
          0 -406 50 1 blend
          rlineto
          0 -182 -90 -54 -98 66 58 12 30 4 blend
          0 rrcurveto
          -96 28 1 blend
          0 -88 54 58 -12 2 blend
          0 182 -66 1 blend
          rrcurveto
          0 406 -50 1 blend
          rlineto
          -32 -140 1 blend
          0 rlineto
          0 -414 78 1 blend
          rlineto
          0 -204 110 -54 106 -18 -22 -50 76 4 blend
          0 rrcurveto
        </CharString>
        <CharString name="Uacute">
          1 vsindex
          314 24 1 blend
          -12 rmoveto
          106 76 1 blend
          0 112 54 -28 50 2 blend
          0 204 18 1 blend
          rrcurveto
          0 414 -78 1 blend
          rlineto
          -30 -136 1 blend
          0 rlineto
          0 -406 50 1 blend
          rlineto
          0 -182 -90 -54 -98 66 58 12 30 4 blend
          0 rrcurveto
          -96 28 1 blend
          0 -88 54 58 -12 2 blend
          0 182 -66 1 blend
          rrcurveto
          0 406 -50 1 blend
          rlineto
          -32 -140 1 blend
          0 rlineto
          0 -414 78 1 blend
          rlineto
          0 -204 110 -54 106 -18 -22 -50 76 4 blend
          0 rrcurveto
          -52 722 -12 -36 2 blend
          rmoveto
          156 112 80 8 2 blend
          rlineto
          -20 24 -50 86 2 blend
          rlineto
          -152 -120 -74 -26 2 blend
          rlineto
          16 -16 44 -68 2 blend
          rlineto
        </CharString>
        <CharString name="Ucircumflex">
          1 vsindex
          314 24 1 blend
          -12 rmoveto
          106 76 1 blend
          0 112 54 -28 50 2 blend
          0 204 18 1 blend
          rrcurveto
          0 414 -78 1 blend
          rlineto
          -30 -136 1 blend
          0 rlineto
          0 -406 50 1 blend
          rlineto
          0 -182 -90 -54 -98 66 58 12 30 4 blend
          0 rrcurveto
          -96 28 1 blend
          0 -88 54 58 -12 2 blend
          0 182 -66 1 blend
          rrcurveto
          0 406 -50 1 blend
          rlineto
          -32 -140 1 blend
          0 rlineto
          0 -414 78 1 blend
          rlineto
          0 -204 110 -54 106 -18 -22 -50 76 4 blend
          0 rrcurveto
          -116 722 10 -30 2 blend
          rmoveto
          114 100 -12 -20 2 blend
          rlineto
          4 0 rlineto
          114 -100 -12 20 2 blend
          rlineto
          14 16 60 28 2 blend
          rlineto
          -116 114 32 -4 2 blend
          rlineto
          -28 -160 1 blend
          0 rlineto
          -116 -114 32 4 2 blend
          rlineto
          14 -16 60 -28 2 blend
          rlineto
        </CharString>
        <CharString name="Udieresis">
          1 vsindex
          314 24 1 blend
          -12 rmoveto
          106 76 1 blend
          0 112 54 -28 50 2 blend
          0 204 18 1 blend
          rrcurveto
          0 414 -78 1 blend
          rlineto
          -30 -136 1 blend
          0 rlineto
          0 -406 50 1 blend
          rlineto
          0 -182 -90 -54 -98 66 58 12 30 4 blend
          0 rrcurveto
          -96 28 1 blend
          0 -88 54 58 -12 2 blend
          0 182 -66 1 blend
          rrcurveto
          0 406 -50 1 blend
          rlineto
          -32 -140 1 blend
          0 rlineto
          0 -414 78 1 blend
          rlineto
          0 -204 110 -54 106 -18 -22 -50 76 4 blend
          0 rrcurveto
          -96 740 -20 -34 2 blend
          rmoveto
          18 28 1 blend
          0 14 12 18 22 2 blend
          0 20 24 1 blend
          rrcurveto
          0 20 -14 12 -18 24 -18 22 -28 4 blend
          0 rrcurveto
          -18 -28 1 blend
          0 -14 -12 -18 -22 2 blend
          0 -20 -24 1 blend
          rrcurveto
          0 -20 14 -12 18 -24 18 -22 28 4 blend
          0 rrcurveto
          192 36 1 blend
          0 rmoveto
          18 28 1 blend
          0 14 12 18 22 2 blend
          0 20 24 1 blend
          rrcurveto
          0 20 -14 12 -18 24 -18 22 -28 4 blend
          0 rrcurveto
          -18 -28 1 blend
          0 -14 -12 -18 -22 2 blend
          0 -20 -24 1 blend
          rrcurveto
          0 -20 14 -12 18 -24 18 -22 28 4 blend
          0 rrcurveto
        </CharString>
        <CharString name="Ugrave">
          1 vsindex
          314 24 1 blend
          -12 rmoveto
          106 76 1 blend
          0 112 54 -28 50 2 blend
          0 204 18 1 blend
          rrcurveto
          0 414 -78 1 blend
          rlineto
          -30 -136 1 blend
          0 rlineto
          0 -406 50 1 blend
          rlineto
          0 -182 -90 -54 -98 66 58 12 30 4 blend
          0 rrcurveto
          -96 28 1 blend
          0 -88 54 58 -12 2 blend
          0 182 -66 1 blend
          rrcurveto
          0 406 -50 1 blend
          rlineto
          -32 -140 1 blend
          0 rlineto
          0 -414 78 1 blend
          rlineto
          0 -204 110 -54 106 -18 -22 -50 76 4 blend
          0 rrcurveto
          52 722 8 -36 2 blend
          rmoveto
          16 16 44 68 2 blend
          rlineto
          -152 120 -74 26 2 blend
          rlineto
          -20 -24 -50 -86 2 blend
          rlineto
          156 -112 80 -8 2 blend
          rlineto
        </CharString>
        <CharString name="V">
          1 vsindex
          222 -44 1 blend
          0 rmoveto
          32 176 1 blend
          0 rlineto
          222 660 -26 -10 2 blend
          rlineto
          -32 -144 1 blend
          0 rlineto
          -132 -396 62 112 2 blend
          rlineto
          -27 -82 -17 -60 -28 -81 10 13 4 -7 10 11 6 blend
          rrcurveto
          -4 0 rlineto
          -28 81 -18 60 -26 82 10 -11 4 7 10 -13 6 blend
          rrcurveto
          -124 396 60 -112 2 blend
          rlineto
          -34 -148 1 blend
          0 rlineto
          216 -660 -28 10 2 blend
          rlineto
        </CharString>
        <CharString name="W">
          182 -34 -60 1 blend
          0 rmoveto
          32 118 182 1 blend
          0 rlineto
          128 474 -54 -80 -130 -216 2 blend
          rlineto
          12 52 14 44 12 52 -1 -2 0 -2 -7 -7 2 10 -4 -5 8 -4 6 blend
          rrcurveto
          4 0 rlineto
          12 -52 12 -44 12 -52 -4 -6 -8 4 -8 -4 -2 -10 0 -2 0 2 6 blend
          rrcurveto
          126 -474 -48 -76 130 216 2 blend
          rlineto
          32 120 186 1 blend
          0 rlineto
          154 660 -29 -44 -6 -10 2 blend
          rlineto
          -32 -81 -132 1 blend
          0 rlineto
          -90 -400 34 52 70 116 2 blend
          rlineto
          -16 -72 -14 -72 -16 -72 6 9 3 6 4 6 3 3 8 9 -4 3 6 blend
          rrcurveto
          -4 0 rlineto
          -18 72 -18 72 -18 72 6 6 4 -3 3 6 -2 -2 3 6 -4 -7 6 blend
          rrcurveto
          -106 400 28 46 -70 -116 2 blend
          rlineto
          -36 -78 -108 1 blend
          0 rlineto
          -110 -400 32 46 70 116 2 blend
          rlineto
          -18 -72 -18 -72 -16 -72 3 6 3 5 5 6 3 3 4 4 -4 4 6 blend
          rrcurveto
          -4 0 rlineto
          -16 72 -16 72 -16 72 8 9 4 -4 7 8 -4 -4 5 9 -2 -4 6 blend
          rrcurveto
          -86 400 30 52 -70 -116 2 blend
          rlineto
          -34 -88 -142 1 blend
          0 rlineto
          152 -660 -22 -40 6 10 2 blend
          rlineto
        </CharString>
        <CharString name="X">
          1 vsindex
          18 -8 1 blend
          0 rmoveto
          32 152 1 blend
          0 rlineto
          122 212 -74 -96 2 blend
          rlineto
          18 32 18 32 22 -4 2 -4 2 -8 5 blend
          40 rrcurveto
          4 0 rlineto
          24 -8 1 blend
          -40 20 -32 18 -32 -6 -2 -2 -2 4 blend
          rrcurveto
          122 -212 -70 96 2 blend
          rlineto
          34 158 1 blend
          0 rlineto
          -200 340 24 -14 2 blend
          rlineto
          186 320 -20 4 2 blend
          rlineto
          -32 -152 1 blend
          0 rlineto
          -116 -204 78 98 2 blend
          rlineto
          -18 6 1 blend
          -30 -12 -22 -20 -36 -2 -14 6 -6 4 blend
          rrcurveto
          -4 0 rlineto
          -22 36 4 6 2 blend
          -14 22 -18 14 4 2 blend
          30 rrcurveto
          -116 204 72 -98 2 blend
          rlineto
          -34 -158 1 blend
          0 rlineto
          186 -318 -20 2 2 blend
          rlineto
          -200 -342 24 8 2 blend
          rlineto
        </CharString>
        <CharString name="Y">
          202 -10 -16 1 blend
          0 rmoveto
          32 84 140 1 blend
          0 rlineto
          0 272 -29 -48 1 blend
          rlineto
          198 388 -1 -2 23 38 2 blend
          rlineto
          -32 -89 -148 1 blend
          0 rlineto
          -106 -214 35 58 47 78 2 blend
          rlineto
          -22 -48 -26 -46 -26 -48 3 5 -1 -1 6 9 1 1 5 9 -2 -3 6 blend
          rrcurveto
          -4 0 rlineto
          -26 48 -22 46 -24 48 5 9 2 3 4 6 -1 -1 5 8 1 1 6 blend
          rrcurveto
          -106 214 35 58 -47 -78 2 blend
          rlineto
          -34 -90 -150 1 blend
          0 rlineto
          198 -388 -2 -2 -23 -38 2 blend
          rlineto
          0 -272 29 48 1 blend
          rlineto
        </CharString>
        <CharString name="Yacute">
          1 vsindex
          202 -16 1 blend
          0 rmoveto
          32 140 1 blend
          0 rlineto
          0 272 -48 1 blend
          rlineto
          198 388 -2 38 2 blend
          rlineto
          -32 -148 1 blend
          0 rlineto
          -106 -214 58 78 2 blend
          rlineto
          -22 -48 -26 -46 -26 -48 5 -1 9 1 9 -3 6 blend
          rrcurveto
          -4 0 rlineto
          -26 48 -22 46 -24 48 9 3 6 -1 8 1 6 blend
          rrcurveto
          -106 214 58 -78 2 blend
          rlineto
          -34 -150 1 blend
          0 rlineto
          198 -388 -2 -38 2 blend
          rlineto
          0 -272 48 1 blend
          rlineto
          -36 710 60 -36 2 blend
          rmoveto
          156 112 80 8 2 blend
          rlineto
          -20 24 -50 86 2 blend
          rlineto
          -152 -120 -74 -26 2 blend
          rlineto
          16 -16 44 -68 2 blend
          rlineto
        </CharString>
        <CharString name="Z">
          1 vsindex
          52 -20 1 blend
          0 rmoveto
          436 44 1 blend
          0 rlineto
          0 28 116 1 blend
          rlineto
          -396 128 1 blend
          0 rlineto
          392 614 -126 -212 2 blend
          rlineto
          0 18 86 1 blend
          rlineto
          -398 -54 1 blend
          0 rlineto
          0 -28 -116 1 blend
          rlineto
          358 -118 1 blend
          0 rlineto
          -392 -614 126 212 2 blend
          rlineto
          0 -18 -86 1 blend
          rlineto
        </CharString>
        <CharString name="a">
          198 -6 -10 1 blend
          -12 rmoveto
          64 -6 -10 1 blend
          0 60 36 50 40 -12 -16 -8 -12 -6 -10 -2 -4 4 blend
          rrcurveto
          2 2 2 1 blend
          0 rlineto
          4 -64 6 8 10 16 2 blend
          rlineto
          26 70 114 1 blend
          0 rlineto
          0 310 -19 -32 1 blend
          rlineto
          0 96 -34 84 -112 41 68 -28 -44 -8 -14 -10 -18 4 blend
          0 rrcurveto
          -78 0 -66 -38 -30 -24 -4 -6 8 14 -24 -40 -10 -18 4 blend
          rrcurveto
          16 -22 26 44 -56 -88 2 blend
          rlineto
          30 22 58 34 68 14 22 4 6 -12 -20 -14 -22 -20 -32 5 blend
          0 rrcurveto
          100 -34 -56 1 blend
          0 20 -86 -2 -78 0 2 44 70 4 6 28 42 4 blend
          rrcurveto
          -216 -24 -98 -50 14 24 2 4 12 18 -4 -8 4 blend
          0 -107 -1 3 1 blend
          rrcurveto
          0 -91 64 -38 74 5 9 -4 -8 -20 -34 12 20 4 blend
          0 rrcurveto
          2 28 34 58 66 104 2 blend
          rmoveto
          -58 18 28 1 blend
          0 -50 28 22 34 -12 -15 2 blend
          0 74 -32 -51 1 blend
          rrcurveto
          0 82 72 48 210 24 -32 -54 -32 -46 -18 -22 -76 -128 -8 -12 5 blend
          rrcurveto
          0 -174 70 106 1 blend
          rlineto
          -64 -54 -52 -28 -58 28 46 20 34 22 36 12 14 18 30 5 blend
          0 rrcurveto
        </CharString>
        <CharString name="aacute">
          1 vsindex
          198 -10 1 blend
          -12 rmoveto
          64 -10 1 blend
          0 60 36 50 40 -16 -12 -10 -4 4 blend
          rrcurveto
          2 2 1 blend
          0 rlineto
          4 -64 8 16 2 blend
          rlineto
          26 114 1 blend
          0 rlineto
          0 310 -32 1 blend
          rlineto
          0 96 -34 84 -112 68 -44 -14 -18 4 blend
          0 rrcurveto
          -78 0 -66 -38 -30 -24 -6 14 -40 -18 4 blend
          rrcurveto
          16 -22 44 -88 2 blend
          rlineto
          30 22 58 34 68 22 6 -20 -22 -32 5 blend
          0 rrcurveto
          100 -56 1 blend
          0 20 -86 -2 -78 2 70 6 42 4 blend
          rrcurveto
          -216 -24 -98 -50 24 4 18 -8 4 blend
          0 -107 3 1 blend
          rrcurveto
          0 -91 64 -38 74 9 -8 -34 20 4 blend
          0 rrcurveto
          2 28 58 104 2 blend
          rmoveto
          -58 28 1 blend
          0 -50 28 34 -15 2 blend
          0 74 -51 1 blend
          rrcurveto
          0 82 72 48 210 24 -54 -46 -22 -128 -12 5 blend
          rrcurveto
          0 -174 106 1 blend
          rlineto
          -64 -54 -52 -28 -58 46 34 36 14 30 5 blend
          0 rrcurveto
          16 558 -24 -106 2 blend
          rmoveto
          148 150 82 8 2 blend
          rlineto
          -24 20 -72 94 2 blend
          rlineto
          -142 -154 -76 -34 2 blend
          rlineto
          18 -16 66 -68 2 blend
          rlineto
        </CharString>
        <CharString name="acircumflex">
          1 vsindex
          198 -10 1 blend
          -12 rmoveto
          64 -10 1 blend
          0 60 36 50 40 -16 -12 -10 -4 4 blend
          rrcurveto
          2 2 1 blend
          0 rlineto
          4 -64 8 16 2 blend
          rlineto
          26 114 1 blend
          0 rlineto
          0 310 -32 1 blend
          rlineto
          0 96 -34 84 -112 68 -44 -14 -18 4 blend
          0 rrcurveto
          -78 0 -66 -38 -30 -24 -6 14 -40 -18 4 blend
          rrcurveto
          16 -22 44 -88 2 blend
          rlineto
          30 22 58 34 68 22 6 -20 -22 -32 5 blend
          0 rrcurveto
          100 -56 1 blend
          0 20 -86 -2 -78 2 70 6 42 4 blend
          rrcurveto
          -216 -24 -98 -50 24 4 18 -8 4 blend
          0 -107 3 1 blend
          rrcurveto
          0 -91 64 -38 74 9 -8 -34 20 4 blend
          0 rrcurveto
          2 28 58 104 2 blend
          rmoveto
          -58 28 1 blend
          0 -50 28 34 -15 2 blend
          0 74 -51 1 blend
          rrcurveto
          0 82 72 48 210 24 -54 -46 -22 -128 -12 5 blend
          rrcurveto
          0 -174 106 1 blend
          rlineto
          -64 -54 -52 -28 -58 46 34 36 14 30 5 blend
          0 rrcurveto
          -54 558 -44 -120 2 blend
          rmoveto
          112 130 16 -46 2 blend
          rlineto
          4 0 rlineto
          112 -130 16 46 2 blend
          rlineto
          18 16 46 44 2 blend
          rlineto
          -118 146 12 -18 2 blend
          rlineto
          -28 -148 1 blend
          0 rlineto
          -118 -146 12 18 2 blend
          rlineto
          18 -16 46 -44 2 blend
          rlineto
        </CharString>
        <CharString name="acute">
          1 vsindex
          222 574 18 -2 2 blend
          rmoveto
          148 150 82 8 2 blend
          rlineto
          -24 20 -72 94 2 blend
          rlineto
          -142 -154 -76 -34 2 blend
          rlineto
          18 -16 66 -68 2 blend
          rlineto
        </CharString>
        <CharString name="adieresis">
          1 vsindex
          198 -10 1 blend
          -12 rmoveto
          64 -10 1 blend
          0 60 36 50 40 -16 -12 -10 -4 4 blend
          rrcurveto
          2 2 1 blend
          0 rlineto
          4 -64 8 16 2 blend
          rlineto
          26 114 1 blend
          0 rlineto
          0 310 -32 1 blend
          rlineto
          0 96 -34 84 -112 68 -44 -14 -18 4 blend
          0 rrcurveto
          -78 0 -66 -38 -30 -24 -6 14 -40 -18 4 blend
          rrcurveto
          16 -22 44 -88 2 blend
          rlineto
          30 22 58 34 68 22 6 -20 -22 -32 5 blend
          0 rrcurveto
          100 -56 1 blend
          0 20 -86 -2 -78 2 70 6 42 4 blend
          rrcurveto
          -216 -24 -98 -50 24 4 18 -8 4 blend
          0 -107 3 1 blend
          rrcurveto
          0 -91 64 -38 74 9 -8 -34 20 4 blend
          0 rrcurveto
          2 28 58 104 2 blend
          rmoveto
          -58 28 1 blend
          0 -50 28 34 -15 2 blend
          0 74 -51 1 blend
          rrcurveto
          0 82 72 48 210 24 -54 -46 -22 -128 -12 5 blend
          rrcurveto
          0 -174 106 1 blend
          rlineto
          -64 -54 -52 -28 -58 46 34 36 14 30 5 blend
          0 rrcurveto
          -26 586 -56 -144 2 blend
          rmoveto
          18 29 1 blend
          0 14 14 19 21 2 blend
          0 18 27 1 blend
          rrcurveto
          0 18 -14 14 -18 27 -19 21 -29 4 blend
          0 rrcurveto
          -18 -29 1 blend
          0 -14 -14 -19 -21 2 blend
          0 -18 -27 1 blend
          rrcurveto
          0 -18 14 -14 18 -27 19 -21 29 4 blend
          0 rrcurveto
          172 56 1 blend
          0 rmoveto
          18 29 1 blend
          0 14 14 19 21 2 blend
          0 18 27 1 blend
          rrcurveto
          0 18 -14 14 -18 27 -19 21 -29 4 blend
          0 rrcurveto
          -18 -29 1 blend
          0 -14 -14 -19 -21 2 blend
          0 -18 -27 1 blend
          rrcurveto
          0 -18 14 -14 18 -27 19 -21 29 4 blend
          0 rrcurveto
        </CharString>
        <CharString name="ae">
          198 -6 -10 1 blend
          -12 rmoveto
          60 4 7 1 blend
          0 82 40 62 62 -20 -33 -14 -23 6 10 -4 -7 4 blend
          rrcurveto
          34 -50 50 -52 88 6 9 2 5 4 7 16 25 -11 -18 5 blend
          0 rrcurveto
          72 -9 -16 1 blend
          0 36 20 36 1 blend
          20 36 26 12 18 6 12 2 blend
          rrcurveto
          -14 22 -26 -40 52 80 2 blend
          rlineto
          -34 -26 -40 -14 -54 -2 -2 4 6 6 6 2 4 12 20 5 blend
          0 rrcurveto
          -102 32 50 1 blend
          0 -78 94 2 128 26 36 -50 -68 -14 -14 -42 -72 4 blend
          rrcurveto
          338 -38 -62 1 blend
          0 rlineto
          2 12 0 10 3 4 14 14 2 blend
          0 10 12 20 1 blend
          rrcurveto
          0 142 -5 -8 1 blend
          -66 78 -110 21 34 -15 -26 2 blend
          0 rrcurveto
          -72 8 16 1 blend
          0 -64 -50 -34 -76 12 22 16 28 -4 -10 20 34 4 blend
          rrcurveto
          -14 76 -46 50 -80 -8 -18 -20 -36 -4 -2 -16 -26 13 22 5 blend
          0 rrcurveto
          -72 4 0 1 blend
          0 -66 -38 -30 -24 -5 -2 8 14 -24 -40 -10 -18 4 blend
          rrcurveto
          16 -22 26 44 -56 -88 2 blend
          rlineto
          30 22 58 34 62 14 22 4 6 -12 -20 -14 -22 -16 -26 5 blend
          0 rrcurveto
          100 -33 -55 1 blend
          0 20 -86 -2 -78 -1 -1 46 69 4 6 26 43 4 blend
          rrcurveto
          -208 -24 -100 -50 10 18 3 4 12 20 -5 -8 4 blend
          0 -108 0 4 1 blend
          rrcurveto
          0 -90 64 -38 74 4 8 -4 -8 -20 -34 12 20 4 blend
          0 rrcurveto
          2 28 35 58 66 104 2 blend
          rmoveto
          -58 17 28 1 blend
          0 -50 28 22 34 -12 -15 2 blend
          0 74 -30 -51 1 blend
          rrcurveto
          0 82 76 48 200 24 -33 -53 -31 -47 -19 -23 -75 -125 -8 -12 5 blend
          rrcurveto
          0 -28 2 2 6 9 2 blend
          rlineto
          0 -48 8 -50 14 -30 3 2 19 31 -4 -4 24 32 -5 -8 7 12 6 blend
          rrcurveto
          -58 -64 -78 -36 -54 23 38 28 46 33 55 18 24 15 25 5 blend
          0 rrcurveto
          198 248 13 18 -34 -60 2 blend
          rmoveto
          10 116 70 82 84 -1 0 -48 -66 -27 -44 -34 -58 -28 -46 5 blend
          0 rrcurveto
          90 -30 -52 1 blend
          0 56 -66 -24 -32 22 38 2 blend
          0 -132 60 86 1 blend
          rrcurveto
          -310 110 174 1 blend
          0 rlineto
        </CharString>
        <CharString name="agrave">
          1 vsindex
          198 -10 1 blend
          -12 rmoveto
          64 -10 1 blend
          0 60 36 50 40 -16 -12 -10 -4 4 blend
          rrcurveto
          2 2 1 blend
          0 rlineto
          4 -64 8 16 2 blend
          rlineto
          26 114 1 blend
          0 rlineto
          0 310 -32 1 blend
          rlineto
          0 96 -34 84 -112 68 -44 -14 -18 4 blend
          0 rrcurveto
          -78 0 -66 -38 -30 -24 -6 14 -40 -18 4 blend
          rrcurveto
          16 -22 44 -88 2 blend
          rlineto
          30 22 58 34 68 22 6 -20 -22 -32 5 blend
          0 rrcurveto
          100 -56 1 blend
          0 20 -86 -2 -78 2 70 6 42 4 blend
          rrcurveto
          -216 -24 -98 -50 24 4 18 -8 4 blend
          0 -107 3 1 blend
          rrcurveto
          0 -91 64 -38 74 9 -8 -34 20 4 blend
          0 rrcurveto
          2 28 58 104 2 blend
          rmoveto
          -58 28 1 blend
          0 -50 28 34 -15 2 blend
          0 74 -51 1 blend
          rrcurveto
          0 82 72 48 210 24 -54 -46 -22 -128 -12 5 blend
          rrcurveto
          0 -174 106 1 blend
          rlineto
          -64 -54 -52 -28 -58 46 34 36 14 30 5 blend
          0 rrcurveto
          104 558 -32 -106 2 blend
          rmoveto
          18 16 66 68 2 blend
          rlineto
          -142 154 -76 34 2 blend
          rlineto
          -24 -20 -72 -94 2 blend
          rlineto
          148 -150 82 -8 2 blend
          rlineto
        </CharString>
        <CharString name="ampersand">
          1 vsindex
          224 22 1 blend
          -12 rmoveto
          78 38 1 blend
          0 58 40 50 56 32 6 14 14 4 blend
          rrcurveto
          58 69 42 91 28 16 14 6 -2 2 5 blend
          98 rrcurveto
          -30 -126 1 blend
          0 rlineto
          -26 -94 -38 -82 -56 -64 4 12 -4 18 6 16 6 blend
          rrcurveto
          -44 -50 -56 -36 -62 2 12 10 12 20 5 blend
          0 rrcurveto
          -84 32 1 blend
          0 -72 60 40 -32 2 blend
          0 92 -52 1 blend
          rrcurveto
          0 164 294 60 -54 -20 -24 3 blend
          0 164 12 1 blend
          rrcurveto
          0 66 -36 50 -68 28 -32 10 -36 4 blend
          0 rrcurveto
          -76 -40 1 blend
          0 -54 -60 -18 -22 2 blend
          0 -84 -10 1 blend
          rrcurveto
          0 -146 134 -186 128 -114 19 12 9 43 7 5 blend
          rrcurveto
          54 -48 50 -30 42 -16 16 4 25 -1 28 4 6 blend
          rrcurveto
          12 28 28 110 2 blend
          rlineto
          -42 16 -48 30 -50 44 -1 -11 -6 -8 -5 -14 6 blend
          rrcurveto
          -120 104 -130 182 -16 -29 -13 -50 4 blend
          0 138 -42 1 blend
          rrcurveto
          0 62 36 52 62 -20 -12 -30 -35 4 blend
          0 rrcurveto
          56 -31 1 blend
          0 20 -46 -7 32 2 blend
          0 -44 16 1 blend
          rrcurveto
          0 -152 -296 -56 30 -10 66 3 blend
          0 -180 -40 1 blend
          rrcurveto
          0 -110 86 -68 100 12 -13 -22 51 4 blend
          0 rrcurveto
        </CharString>
        <CharString name="aring">
          1 vsindex
          198 -10 1 blend
          -12 rmoveto
          64 -10 1 blend
          0 60 36 50 40 -16 -12 -10 -4 4 blend
          rrcurveto
          2 2 1 blend
          0 rlineto
          4 -64 8 16 2 blend
          rlineto
          26 114 1 blend
          0 rlineto
          0 310 -32 1 blend
          rlineto
          0 96 -34 84 -112 68 -44 -14 -18 4 blend
          0 rrcurveto
          -78 0 -66 -38 -30 -24 -6 14 -40 -18 4 blend
          rrcurveto
          16 -22 44 -88 2 blend
          rlineto
          30 22 58 34 68 22 6 -20 -22 -32 5 blend
          0 rrcurveto
          100 -56 1 blend
          0 20 -86 -2 -78 2 70 6 42 4 blend
          rrcurveto
          -216 -24 -98 -50 24 4 18 -8 4 blend
          0 -107 3 1 blend
          rrcurveto
          0 -91 64 -38 74 9 -8 -34 20 4 blend
          0 rrcurveto
          2 28 58 104 2 blend
          rmoveto
          -58 28 1 blend
          0 -50 28 34 -15 2 blend
          0 74 -51 1 blend
          rrcurveto
          0 82 72 48 210 24 -54 -46 -22 -128 -12 5 blend
          rrcurveto
          0 -174 106 1 blend
          rlineto
          -64 -54 -52 -28 -58 46 34 36 14 30 5 blend
          0 rrcurveto
          60 530 -28 -82 2 blend
          rmoveto
          52 42 1 blend
          0 40 38 6 10 2 blend
          0 56 2 1 blend
          rrcurveto
          0 56 -40 38 -52 2 -6 10 -42 4 blend
          0 rrcurveto
          -52 -42 1 blend
          0 -40 -38 -6 -10 2 blend
          0 -56 -2 1 blend
          rrcurveto
          0 -56 40 -38 52 -2 6 -10 42 4 blend
          0 rrcurveto
          0 22 40 1 blend
          rmoveto
          -38 17 1 blend
          0 -30 28 13 -10 2 blend
          0 44 -18 1 blend
          rrcurveto
          0 44 30 28 38 -18 -13 -10 -17 4 blend
          0 rrcurveto
          38 -17 1 blend
          0 30 -28 -13 10 2 blend
          0 -44 18 1 blend
          rrcurveto
          0 -44 -30 -28 -38 18 13 10 17 4 blend
          0 rrcurveto
        </CharString>
        <CharString name="asciicircum">
          1 vsindex
          68 292 -22 -22 2 blend
          rmoveto
          32 108 1 blend
          0 rlineto
          82 214 -44 -104 2 blend
          rlineto
          52 132 -8 4 2 blend
          rlineto
          4 0 rlineto
          52 -132 -8 -4 2 blend
          rlineto
          82 -214 -44 104 2 blend
          rlineto
          32 108 1 blend
          0 rlineto
          -150 378 -6 22 2 blend
          rlineto
          -36 -100 1 blend
          0 rlineto
          -150 -378 -6 -22 2 blend
          rlineto
        </CharString>
        <CharString name="asciitilde">
          1 vsindex
          326 270 28 -36 2 blend
          rmoveto
          38 14 1 blend
          0 40 26 26 52 14 2 28 28 4 blend
          rrcurveto
          -22 14 -66 54 2 blend
          rlineto
          -24 -48 -26 -16 -30 4 14 3 -6 3 5 blend
          0 rrcurveto
          -58 4 1 blend
          0 -48 92 -76 16 -20 -8 3 blend
          0 rrcurveto
          -38 -14 1 blend
          0 -40 -26 -26 -54 -14 -2 -28 -26 4 blend
          rrcurveto
          22 -12 66 -56 2 blend
          rlineto
          24 48 26 16 30 -4 -14 -2 6 -4 5 blend
          0 rrcurveto
          58 -4 1 blend
          0 48 -92 76 -16 20 8 3 blend
          0 rrcurveto
        </CharString>
        <CharString name="asterisk">
          1 vsindex
          130 478 22 -157 2 blend
          rmoveto
          64 82 20 9 2 blend
          rlineto
          62 -82 22 -9 2 blend
          rlineto
          22 16 48 35 2 blend
          rlineto
          -54 86 -7 21 2 blend
          rlineto
          88 34 25 18 2 blend
          rlineto
          -8 24 -19 59 2 blend
          rlineto
          -92 -24 -29 -1 2 blend
          rlineto
          -6 98 -8 25 2 blend
          rlineto
          -26 -62 1 blend
          0 rlineto
          -6 -100 -8 -22 2 blend
          rlineto
          -92 26 -29 -2 2 blend
          rlineto
          -8 -24 -19 -59 2 blend
          rlineto
          88 -34 24 -18 2 blend
          rlineto
          -54 -86 -6 -21 2 blend
          rlineto
          22 -16 48 -35 2 blend
          rlineto
        </CharString>
        <CharString name="at">
          382 -142 34 56 -22 -36 2 blend
          rmoveto
          68 2 4 1 blend
          0 62 18 56 36 1 2 -2 -4 4 6 -2 -4 4 blend
          rrcurveto
          -14 24 -17 -22 50 68 2 blend
          rlineto
          -48 -30 -54 -20 -68 6 8 8 10 -2 -6 4 4 13 20 5 blend
          0 rrcurveto
          -182 27 32 1 blend
          0 -120 124 -6 -20 -26 -36 2 blend
          0 194 -6 4 1 blend
          rrcurveto
          0 240 174 156 184 -20 -18 -10 -6 -12 -12 -17 -16 4 blend
          0 rrcurveto
          170 9 32 1 blend
          0 110 -110 -28 -40 -8 -22 2 blend
          0 -176 32 40 1 blend
          rrcurveto
          0 -146 -82 -82 -64 32 44 24 28 10 14 9 4 4 blend
          0 rrcurveto
          -64 21 24 1 blend
          0 -22 46 24 96 8 8 -16 -22 -11 -12 -32 -46 4 blend
          rrcurveto
          34 184 9 14 32 44 2 blend
          rlineto
          -26 -52 -78 1 blend
          0 rlineto
          -8 -40 -6 -8 0 -2 2 blend
          rlineto
          -2 -2 0 1 blend
          0 rlineto
          -20 32 -28 16 -36 4 4 3 4 6 2 -1 -2 -8 4 5 blend
          0 rrcurveto
          -118 4 4 1 blend
          0 -66 -128 -18 -26 0 6 2 blend
          0 -94 -24 -34 1 blend
          rrcurveto
          0 -90 52 -44 60 -8 -2 4 2 -10 -18 16 22 4 blend
          0 rrcurveto
          46 -2 -6 1 blend
          0 40 32 36 38 8 14 -6 -6 -8 -10 4 2 4 blend
          rrcurveto
          2 2 0 1 blend
          0 rlineto
          4 -52 38 -24 52 6 8 4 4 5 11 -4 -4 5 7 5 blend
          0 rrcurveto
          80 20 30 1 blend
          0 98 90 20 30 3 2 2 blend
          0 168 15 18 1 blend
          rrcurveto
          0 188 -118 124 -190 15 26 -16 -24 17 28 -22 -32 4 blend
          0 rrcurveto
          -206 -32 -48 1 blend
          0 -184 -168 -16 -26 -12 -20 2 blend
          0 -258 -16 -26 1 blend
          rrcurveto
          0 -216 138 -128 192 -28 -48 32 50 4 8 8 10 4 blend
          0 rrcurveto
          -26 234 13 22 62 94 2 blend
          rmoveto
          -46 15 16 1 blend
          0 -38 28 14 22 -4 -7 2 blend
          0 80 -31 -43 1 blend
          rrcurveto
          0 88 58 104 94 -23 -34 -16 -26 -18 -26 -32 -42 4 blend
          0 rrcurveto
          32 -8 -14 1 blend
          0 20 -12 26 -40 -4 -5 2 2 -10 -19 16 26 4 blend
          rrcurveto
          -32 -178 6 10 38 52 2 blend
          rlineto
          -42 -48 -38 -22 -34 12 20 12 18 14 22 8 12 9 16 5 blend
          0 rrcurveto
        </CharString>
        <CharString name="atilde">
          1 vsindex
          198 -10 1 blend
          -12 rmoveto
          64 -10 1 blend
          0 60 36 50 40 -16 -12 -10 -4 4 blend
          rrcurveto
          2 2 1 blend
          0 rlineto
          4 -64 8 16 2 blend
          rlineto
          26 114 1 blend
          0 rlineto
          0 310 -32 1 blend
          rlineto
          0 96 -34 84 -112 68 -44 -14 -18 4 blend
          0 rrcurveto
          -78 0 -66 -38 -30 -24 -6 14 -40 -18 4 blend
          rrcurveto
          16 -22 44 -88 2 blend
          rlineto
          30 22 58 34 68 22 6 -20 -22 -32 5 blend
          0 rrcurveto
          100 -56 1 blend
          0 20 -86 -2 -78 2 70 6 42 4 blend
          rrcurveto
          -216 -24 -98 -50 24 4 18 -8 4 blend
          0 -107 3 1 blend
          rrcurveto
          0 -91 64 -38 74 9 -8 -34 20 4 blend
          0 rrcurveto
          2 28 58 104 2 blend
          rmoveto
          -58 28 1 blend
          0 -50 28 34 -15 2 blend
          0 74 -51 1 blend
          rrcurveto
          0 82 72 48 210 24 -54 -46 -22 -128 -12 5 blend
          rrcurveto
          0 -174 106 1 blend
          rlineto
          -64 -54 -52 -28 -58 46 34 36 14 30 5 blend
          0 rrcurveto
          137 564 -41 -112 2 blend
          rmoveto
          63 17 1 blend
          0 16 66 4 56 34 -21 -2 57 4 blend
          rrcurveto
          -26 2 -80 4 2 blend
          rlineto
          -2 -52 -16 -46 -37 -2 16 6 36 21 5 blend
          0 rrcurveto
          -59 33 1 blend
          0 -20 100 -76 -18 -44 16 3 blend
          0 rrcurveto
          -64 -16 1 blend
          0 -16 -65 -4 -57 -34 20 2 -56 4 blend
          rrcurveto
          26 -2 80 -4 2 blend
          rlineto
          2 54 16 44 38 2 -18 -6 -34 -22 5 blend
          0 rrcurveto
          58 -32 1 blend
          0 20 -100 77 18 44 -17 3 blend
          0 rrcurveto
        </CharString>
        <CharString name="b">
          1 vsindex
          274 62 1 blend
          -12 rmoveto
          114 -8 1 blend
          0 98 96 4 2 2 blend
          0 162 11 1 blend
          rrcurveto
          0 148 -62 96 -130 5 -15 4 12 4 blend
          0 rrcurveto
          -60 16 1 blend
          0 -60 -36 -50 -42 16 18 15 10 4 blend
          rrcurveto
          2 96 2 -24 2 blend
          rlineto
          0 214 -52 1 blend
          rlineto
          -30 -142 1 blend
          0 rlineto
          0 -722 26 1 blend
          rlineto
          26 108 1 blend
          0 rlineto
          4 48 10 6 2 blend
          rlineto
          2 2 1 blend
          0 rlineto
          46 -36 54 -24 46 -8 -8 -10 2 -2 5 blend
          0 rrcurveto
          2 28 -44 112 2 blend
          rmoveto
          -38 16 1 blend
          0 -56 18 -56 48 34 -12 36 -30 4 blend
          rrcurveto
          0 296 -112 1 blend
          rlineto
          60 54 56 30 50 -38 -28 -36 -20 -24 5 blend
          0 rrcurveto
          118 -72 1 blend
          0 44 -94 -20 60 2 blend
          0 -122 40 1 blend
          rrcurveto
          0 -134 -74 -96 -104 38 40 64 64 4 blend
          0 rrcurveto
        </CharString>
        <CharString name="backslash">
          1 vsindex
          322 -112 1 blend
          -160 rmoveto
          30 80 1 blend
          0 rlineto
          -320 144 1 blend
          870 rlineto
          -30 -80 1 blend
          0 rlineto
          320 -144 1 blend
          -870 rlineto
        </CharString>
        <CharString name="bar">
          1 vsindex
          96 -12 1 blend
          -250 rmoveto
          28 82 1 blend
          0 rlineto
          0 1000 rlineto
          -28 -82 1 blend
          0 rlineto
          0 -1000 rlineto
        </CharString>
        <CharString name="braceleft">
          1 vsindex
          222 16 1 blend
          -152 rmoveto
          30 40 1 blend
          0 rlineto
          0 22 68 1 blend
          rlineto
          -32 16 1 blend
          0 rlineto
          -64 27 1 blend
          0 -16 36 5 -26 2 blend
          0 72 -20 1 blend
          rrcurveto
          0 66 6 56 -15 -2 -9 3 blend
          0 74 -16 1 blend
          rrcurveto
          0 54 -10 36 -38 26 -17 -8 -15 4 blend
          12 rrcurveto
          0 4 rlineto
          38 15 1 blend
          12 10 34 17 -6 2 blend
          0 56 24 1 blend
          rrcurveto
          0 74 -6 56 -16 2 -9 3 blend
          0 66 -15 1 blend
          rrcurveto
          0 72 16 36 64 -20 -5 -26 -27 4 blend
          0 rrcurveto
          32 -16 1 blend
          0 rlineto
          0 22 68 1 blend
          rlineto
          -30 -40 1 blend
          0 rlineto
          -72 -20 1 blend
          0 -36 -26 -4 -10 2 blend
          0 -100 -10 1 blend
          rrcurveto
          0 -74 8 -66 4 2 36 3 blend
          0 -72 10 1 blend
          rrcurveto
          0 -40 -16 -40 -70 0 6 -6 4 6 -2 5 blend
          rrcurveto
          0 -24 -76 1 blend
          rlineto
          70 0 16 -40 -6 -2 6 4 4 blend
          0 -42 8 1 blend
          rrcurveto
          0 -70 -8 -66 8 -2 36 3 blend
          0 -74 4 1 blend
          rrcurveto
          0 -100 36 -26 72 -10 4 -10 20 4 blend
          0 rrcurveto
        </CharString>
        <CharString name="braceright">
          1 vsindex
          18 34 1 blend
          -152 rmoveto
          30 40 1 blend
          0 rlineto
          72 20 1 blend
          0 36 26 4 10 2 blend
          0 100 10 1 blend
          rrcurveto
          0 74 -8 66 -4 -2 -36 3 blend
          0 70 -8 1 blend
          rrcurveto
          0 42 16 40 70 0 -8 6 -4 -6 2 5 blend
          rrcurveto
          0 24 76 1 blend
          rlineto
          -70 0 -16 40 6 2 -6 -4 4 blend
          0 40 -6 1 blend
          rrcurveto
          0 72 8 66 -10 2 -36 3 blend
          0 74 -4 1 blend
          rrcurveto
          0 100 -36 26 -72 10 -4 10 -20 4 blend
          0 rrcurveto
          -30 -40 1 blend
          0 rlineto
          0 -22 -68 1 blend
          rlineto
          32 -16 1 blend
          0 rlineto
          64 -27 1 blend
          0 16 -36 -5 26 2 blend
          0 -72 20 1 blend
          rrcurveto
          0 -66 -6 -56 15 2 9 3 blend
          0 -74 16 1 blend
          rrcurveto
          0 -56 10 -34 38 -24 17 6 15 4 blend
          -12 rrcurveto
          0 -4 rlineto
          -38 -15 1 blend
          -12 -10 -36 -17 8 2 blend
          0 -54 -26 1 blend
          rrcurveto
          0 -74 6 -56 16 -2 9 3 blend
          0 -66 15 1 blend
          rrcurveto
          0 -72 -16 -36 -64 20 5 26 27 4 blend
          0 rrcurveto
          -32 16 1 blend
          0 rlineto
          0 -22 -68 1 blend
          rlineto
        </CharString>
        <CharString name="bracketleft">
          1 vsindex
          100 -16 1 blend
          -152 rmoveto
          152 72 1 blend
          0 rlineto
          0 22 68 1 blend
          rlineto
          -128 32 1 blend
          0 rlineto
          0 816 -136 1 blend
          rlineto
          128 -32 1 blend
          0 rlineto
          0 22 68 1 blend
          rlineto
          -152 -72 1 blend
          0 rlineto
          0 -860 rlineto
        </CharString>
        <CharString name="bracketright">
          1 vsindex
          18 34 1 blend
          -152 rmoveto
          152 72 1 blend
          0 rlineto
          0 860 rlineto
          -152 -72 1 blend
          0 rlineto
          0 -22 -68 1 blend
          rlineto
          128 -32 1 blend
          0 rlineto
          0 -816 136 1 blend
          rlineto
          -128 32 1 blend
          0 rlineto
          0 -22 -68 1 blend
          rlineto
        </CharString>
        <CharString name="brokenbar">
          1 vsindex
          96 274 -12 46 2 blend
          rmoveto
          28 82 1 blend
          0 rlineto
          0 476 -46 1 blend
          rlineto
          -28 -82 1 blend
          0 rlineto
          0 -476 46 1 blend
          rlineto
          0 -524 -46 1 blend
          rmoveto
          28 82 1 blend
          0 rlineto
          0 472 -22 1 blend
          rlineto
          -28 -82 1 blend
          0 rlineto
          0 -472 22 1 blend
          rlineto
        </CharString>
        <CharString name="c">
          1 vsindex
          268 16 1 blend
          -12 rmoveto
          62 -10 1 blend
          0 50 26 40 38 14 -12 10 6 4 blend
          rrcurveto
          -18 20 -48 88 2 blend
          rlineto
          -33 -31 -47 -25 -54 9 13 21 15 24 5 blend
          0 rrcurveto
          -110 56 1 blend
          0 -72 90 30 -42 2 blend
          0 132 -56 1 blend
          rrcurveto
          0 132 80 92 102 -56 -42 -44 -38 4 blend
          0 rrcurveto
          52 -34 1 blend
          0 40 -22 30 -30 -24 18 -8 14 4 blend
          rrcurveto
          18 20 62 86 2 blend
          rlineto
          -32 -6 1 blend
          32 -42 28 -66 -6 -8 6 3 blend
          0 rrcurveto
          -114 -28 1 blend
          0 -100 -92 -26 -4 2 blend
          0 -160 -6 1 blend
          rrcurveto
          0 -158 92 -92 122 -8 18 -4 20 4 blend
          0 rrcurveto
        </CharString>
        <CharString name="ccedilla">
          1 vsindex
          268 16 1 blend
          -12 rmoveto
          62 -10 1 blend
          0 50 26 40 38 14 -12 10 6 4 blend
          rrcurveto
          -18 20 -48 88 2 blend
          rlineto
          -33 -31 -47 -25 -54 9 13 21 15 24 5 blend
          0 rrcurveto
          -110 56 1 blend
          0 -72 90 30 -42 2 blend
          0 132 -56 1 blend
          rrcurveto
          0 132 80 92 102 -56 -42 -44 -38 4 blend
          0 rrcurveto
          52 -34 1 blend
          0 40 -22 30 -30 -24 18 -8 14 4 blend
          rrcurveto
          18 20 62 86 2 blend
          rlineto
          -32 -6 1 blend
          32 -42 28 -66 -6 -8 6 3 blend
          0 rrcurveto
          -114 -28 1 blend
          0 -100 -92 -26 -4 2 blend
          0 -160 -6 1 blend
          rrcurveto
          0 -158 92 -92 122 -8 18 -4 20 4 blend
          0 rrcurveto
          -72 -204 -60 -28 2 blend
          rmoveto
          90 6 48 26 42 -2 30 6 4 blend
          0 50 22 1 blend
          rrcurveto
          0 40 -28 18 -42 10 2 2 4 -10 2 5 blend
          rrcurveto
          30 68 -2 -4 2 blend
          rlineto
          -28 -70 1 blend
          0 rlineto
          -40 -86 -10 -14 2 blend
          rlineto
          54 8 1 blend
          -8 24 -10 1 blend
          -14 0 -30 12 1 blend
          rrcurveto
          0 -30 -26 -18 -88 -6 2 2 8 12 2 5 blend
          rrcurveto
          6 -26 6 -40 2 blend
          rlineto
        </CharString>
        <CharString name="cedilla">
          1 vsindex
          202 -216 -30 -28 2 blend
          rmoveto
          90 6 48 26 42 -2 30 6 4 blend
          0 50 22 1 blend
          rrcurveto
          0 40 -28 18 -42 10 2 2 4 -10 2 5 blend
          rrcurveto
          30 68 -2 -4 2 blend
          rlineto
          -28 -70 1 blend
          0 rlineto
          -40 -86 -10 -14 2 blend
          rlineto
          54 8 1 blend
          -8 24 -10 1 blend
          -14 0 -30 12 1 blend
          rrcurveto
          0 -30 -26 -18 -88 -6 2 2 8 12 2 5 blend
          rrcurveto
          6 -26 6 -40 2 blend
          rlineto
        </CharString>
        <CharString name="cent">
          1 vsindex
          276 84 56 -40 2 blend
          rmoveto
          62 -10 1 blend
          0 50 28 40 36 16 -10 10 8 4 blend
          rrcurveto
          -18 20 -50 88 2 blend
          rlineto
          -34 -31 -46 -25 -54 12 15 20 9 22 5 blend
          0 rrcurveto
          -110 28 1 blend
          0 -72 80 28 -32 2 blend
          0 120 -44 1 blend
          rrcurveto
          0 120 80 80 102 -44 -40 -32 -10 4 blend
          0 rrcurveto
          50 -32 1 blend
          0 40 -22 32 -30 -22 16 -10 12 4 blend
          rrcurveto
          18 20 60 86 2 blend
          rlineto
          -32 30 -42 30 -66 -2 4 -10 -8 6 5 blend
          0 rrcurveto
          -114 -48 1 blend
          0 -100 -80 -26 -16 2 blend
          0 -148 -18 1 blend
          rrcurveto
          0 -146 92 -82 122 -20 16 -14 42 4 blend
          0 rrcurveto
          -24 -110 -28 22 2 blend
          rmoveto
          28 64 1 blend
          0 rlineto
          0 678 22 1 blend
          rlineto
          -28 -64 1 blend
          0 rlineto
          0 -678 -22 1 blend
          rlineto
        </CharString>
        <CharString name="colon">
          1 vsindex
          104 378 56 -80 2 blend
          rmoveto
          18 40 1 blend
          0 18 14 24 32 2 blend
          0 24 34 1 blend
          rrcurveto
          0 26 -18 14 -18 32 -24 32 -40 4 blend
          0 rrcurveto
          -18 -40 1 blend
          0 -18 -14 -24 -32 2 blend
          0 -26 -32 1 blend
          rrcurveto
          0 -24 18 -14 18 -34 24 -32 40 4 blend
          0 rrcurveto
          0 -390 80 1 blend
          rmoveto
          18 40 1 blend
          0 18 14 24 32 2 blend
          0 24 34 1 blend
          rrcurveto
          0 26 -18 14 -18 32 -24 32 -40 4 blend
          0 rrcurveto
          -18 -40 1 blend
          0 -18 -14 -24 -32 2 blend
          0 -26 -32 1 blend
          rrcurveto
          0 -24 18 -14 18 -34 24 -32 40 4 blend
          0 rrcurveto
        </CharString>
        <CharString name="comma">
          1 vsindex
          60 -150 20 -54 2 blend
          rmoveto
          52 32 40 54 78 4 28 36 4 blend
          0 68 50 1 blend
          rrcurveto
          0 38 -18 24 -26 60 -22 34 -48 4 blend
          0 rrcurveto
          -18 -40 1 blend
          0 -18 -12 -28 -26 2 blend
          0 -24 -32 1 blend
          rrcurveto
          0 -24 16 -12 20 -36 32 -22 32 4 blend
          0 rrcurveto
          12 10 1 blend
          0 12 2 8 14 8 5 8 -2 4 blend
          rrcurveto
          -34 42 -17 49 2 blend
          rlineto
          14 -54 -14 -54 2 blend
          rlineto
          0 -58 -30 -42 -42 -24 1 8 -11 -6 -39 -2 6 blend
          rrcurveto
          12 -24 22 -66 2 blend
          rlineto
        </CharString>
        <CharString name="copyright">
          1 vsindex
          370 -12 6 4 2 blend
          rmoveto
          172 6 1 blend
          0 146 132 8 -6 2 blend
          0 202 6 1 blend
          rrcurveto
          0 200 -146 130 -172 7 -8 -7 -6 4 blend
          0 rrcurveto
          -172 -6 1 blend
          0 -146 -130 -8 8 2 blend
          0 -200 -8 1 blend
          rrcurveto
          0 -202 146 -132 172 -6 8 6 6 4 blend
          0 rrcurveto
          0 26 42 1 blend
          rmoveto
          -154 8 1 blend
          0 -134 124 24 -18 2 blend
          0 184 -24 1 blend
          rrcurveto
          0 182 134 122 154 -22 -24 -20 -8 4 blend
          0 rrcurveto
          154 -8 1 blend
          0 134 -122 -24 20 2 blend
          0 -182 22 1 blend
          rrcurveto
          0 -184 -134 -124 -154 24 24 18 8 4 blend
          0 rrcurveto
          4 110 10 -42 2 blend
          rmoveto
          66 -17 1 blend
          0 36 24 34 38 7 -4 4 -8 4 blend
          rrcurveto
          -18 18 -36 60 2 blend
          rlineto
          -32 -32 -28 -18 -56 8 14 10 6 26 5 blend
          0 rrcurveto
          -84 34 1 blend
          0 -56 60 25 -22 2 blend
          0 98 -38 1 blend
          rrcurveto
          0 100 62 66 80 -48 -34 -22 -21 4 blend
          0 rrcurveto
          42 -18 1 blend
          0 34 -16 26 -30 -16 4 -7 10 4 blend
          rrcurveto
          20 18 43 52 2 blend
          rlineto
          -28 34 -4 -2 2 blend
          -40 24 -52 4 -12 2 blend
          0 rrcurveto
          -94 -8 1 blend
          0 -84 -74 -10 -2 2 blend
          0 -122 4 1 blend
          rrcurveto
          0 -120 78 -68 94 4 -8 22 3 blend
          0 rrcurveto
        </CharString>
        <CharString name="currency">
          1 vsindex
          52 118 50 -42 2 blend
          rmoveto
          65 68 6 3 2 blend
          rlineto
          32 -31 42 -17 45 -1 18 -9 11 -12 5 blend
          0 rrcurveto
          44 -12 1 blend
          0 43 17 -9 -11 2 blend
          31 31 -18 1 blend
          rrcurveto
          66 -68 5 -3 2 blend
          rlineto
          20 22 65 63 2 blend
          rlineto
          -66 68 5 -8 2 blend
          rlineto
          23 32 15 41 -2 -2 -2 -5 4 blend
          0 47 -4 1 blend
          rrcurveto
          0 49 -15 42 -24 32 -7 3 -6 3 -3 5 blend
          rrcurveto
          67 69 -7 -9 2 blend
          rlineto
          -20 22 -65 63 2 blend
          rlineto
          -66 -69 -4 -1 2 blend
          rlineto
          -32 30 -42 17 -44 1 -17 8 -10 11 5 blend
          0 rrcurveto
          -45 12 1 blend
          0 -42 -17 8 10 2 blend
          -31 -30 17 1 blend
          rrcurveto
          -66 69 -4 1 2 blend
          rlineto
          -20 -22 -65 -63 2 blend
          rlineto
          66 -69 -7 9 2 blend
          rlineto
          -24 -32 -14 -42 4 3 2 6 4 blend
          0 -49 7 1 blend
          rrcurveto
          0 -47 14 -41 24 -32 4 -2 5 -3 2 5 blend
          rrcurveto
          -66 -68 6 8 2 blend
          rlineto
          20 -22 65 -63 2 blend
          rlineto
          184 48 -16 122 2 blend
          rmoveto
          -78 36 1 blend
          0 -66 66 34 -34 2 blend
          0 96 -44 1 blend
          rrcurveto
          0 96 66 68 78 -44 -34 -36 -36 4 blend
          0 rrcurveto
          78 -36 1 blend
          0 66 -68 -34 36 2 blend
          0 -96 44 1 blend
          rrcurveto
          0 -96 -66 -66 -78 44 34 34 36 4 blend
          0 rrcurveto
        </CharString>
        <CharString name="d">
          1 vsindex
          252 -12 1 blend
          -12 rmoveto
          66 -22 1 blend
          0 54 36 40 40 -6 -12 -6 -6 4 blend
          rrcurveto
          2 2 1 blend
          0 rlineto
          4 -64 8 18 2 blend
          rlineto
          26 114 1 blend
          0 rlineto
          0 722 -26 1 blend
          rlineto
          -30 -142 1 blend
          0 rlineto
          0 -202 40 1 blend
          rlineto
          2 -90 4 18 2 blend
          rlineto
          -50 38 -40 22 -58 20 -8 8 -2 4 5 blend
          0 rrcurveto
          -116 14 1 blend
          0 -98 -4 1 blend
          -98 0 -154 -10 1 blend
          rrcurveto
          0 -162 78 -88 120 2 -12 4 3 blend
          0 rrcurveto
          2 28 44 112 2 blend
          rmoveto
          -108 62 1 blend
          0 -60 90 32 -56 2 blend
          0 132 -42 1 blend
          rrcurveto
          0 124 78 100 102 -36 -44 -68 -66 4 blend
          0 rrcurveto
          50 -28 1 blend
          0 44 -18 54 -48 -18 12 -34 30 4 blend
          rrcurveto
          0 -296 112 1 blend
          rlineto
          -54 -54 -50 -30 -56 36 26 30 22 30 5 blend
          0 rrcurveto
        </CharString>
        <CharString name="degree">
          1 vsindex
          152 454 38 -68 2 blend
          rmoveto
          56 30 1 blend
          0 54 42 12 22 2 blend
          0 72 14 1 blend
          rrcurveto
          0 74 -54 42 -56 12 -12 22 -30 4 blend
          0 rrcurveto
          -56 -30 1 blend
          0 -54 -42 -12 -22 2 blend
          0 -74 -12 1 blend
          rrcurveto
          0 -72 54 -42 56 -14 12 -22 30 4 blend
          0 rrcurveto
          0 26 54 1 blend
          rmoveto
          -48 10 1 blend
          0 -34 38 8 -10 2 blend
          0 50 -8 1 blend
          rrcurveto
          0 52 34 38 48 -10 -8 -10 -10 4 blend
          0 rrcurveto
          48 -10 1 blend
          0 34 -38 -8 10 2 blend
          0 -52 10 1 blend
          rrcurveto
          0 -50 -34 -38 -48 8 8 10 10 4 blend
          0 rrcurveto
        </CharString>
        <CharString name="dieresis">
          1 vsindex
          180 602 -14 -40 2 blend
          rmoveto
          18 29 1 blend
          0 14 14 19 21 2 blend
          0 18 27 1 blend
          rrcurveto
          0 18 -14 14 -18 27 -19 21 -29 4 blend
          0 rrcurveto
          -18 -29 1 blend
          0 -14 -14 -19 -21 2 blend
          0 -18 -27 1 blend
          rrcurveto
          0 -18 14 -14 18 -27 19 -21 29 4 blend
          0 rrcurveto
          172 56 1 blend
          0 rmoveto
          18 29 1 blend
          0 14 14 19 21 2 blend
          0 18 27 1 blend
          rrcurveto
          0 18 -14 14 -18 27 -19 21 -29 4 blend
          0 rrcurveto
          -18 -29 1 blend
          0 -14 -14 -19 -21 2 blend
          0 -18 -27 1 blend
          rrcurveto
          0 -18 14 -14 18 -27 19 -21 29 4 blend
          0 rrcurveto
        </CharString>
        <CharString name="divide">
          1 vsindex
          34 316 -46 1 blend
          rmoveto
          404 68 1 blend
          0 rlineto
          0 28 92 1 blend
          rlineto
          -404 -68 1 blend
          0 rlineto
          0 -28 -92 1 blend
          rlineto
          202 -202 34 -4 2 blend
          rmoveto
          18 34 1 blend
          0 14 14 26 22 2 blend
          0 22 28 1 blend
          rrcurveto
          0 20 -14 14 -18 30 -26 22 -34 4 blend
          0 rrcurveto
          -18 -34 1 blend
          0 -14 -14 -26 -22 2 blend
          0 -20 -30 1 blend
          rrcurveto
          0 -22 14 -14 18 -28 26 -22 34 4 blend
          0 rrcurveto
          0 360 rmoveto
          18 34 1 blend
          0 14 14 26 22 2 blend
          0 22 28 1 blend
          rrcurveto
          0 20 -14 14 -18 30 -26 22 -34 4 blend
          0 rrcurveto
          -18 -34 1 blend
          0 -14 -14 -26 -22 2 blend
          0 -20 -30 1 blend
          rrcurveto
          0 -22 14 -14 18 -28 26 -22 34 4 blend
          0 rrcurveto
        </CharString>
        <CharString name="dollar">
          1 vsindex
          244 2 1 blend
          -12 rmoveto
          92 66 1 blend
          0 76 64 24 1 blend
          0 106 12 1 blend
          rrcurveto
          0 194 -292 -10 -12 34 14 3 blend
          0 160 -84 1 blend
          rrcurveto
          0 68 50 54 72 -30 -29 -40 -33 4 blend
          0 rrcurveto
          64 -26 1 blend
          0 38 -22 30 -38 -2 6 4 8 4 blend
          rrcurveto
          20 16 66 78 2 blend
          rlineto
          -32 42 -46 30 -72 -18 12 -16 6 -16 5 blend
          0 rrcurveto
          -88 -47 1 blend
          0 -68 -64 -15 -12 2 blend
          0 -88 -34 1 blend
          rrcurveto
          0 -180 292 10 5 -34 -21 3 blend
          0 -174 92 1 blend
          rrcurveto
          0 -82 -48 -58 -88 46 28 40 38 4 blend
          0 rrcurveto
          -72 30 1 blend
          0 -56 32 -36 38 14 -22 -16 4 4 blend
          rrcurveto
          -18 -18 -58 -88 2 blend
          rlineto
          36 -46 68 -34 78 24 -14 10 10 -4 5 blend
          0 rrcurveto
          -16 -18 1 blend
          -98 rmoveto
          30 82 1 blend
          0 rlineto
          0 102 68 1 blend
          rlineto
          -30 -82 1 blend
          0 rlineto
          0 -102 -68 1 blend
          rlineto
          0 744 -40 1 blend
          rmoveto
          30 82 1 blend
          0 rlineto
          0 116 34 1 blend
          rlineto
          -30 -82 1 blend
          0 rlineto
          0 -116 -34 1 blend
          rlineto
        </CharString>
        <CharString name="e">
          272 10 18 1 blend
          -12 rmoveto
          72 -8 -16 1 blend
          0 40 22 36 24 20 32 -4 -2 10 18 10 14 4 blend
          rrcurveto
          -14 22 -26 -40 52 80 2 blend
          rlineto
          -34 -24 -44 -16 -54 0 -2 2 4 6 10 4 6 12 20 5 blend
          0 rrcurveto
          -114 36 58 1 blend
          0 -74 94 0 128 22 30 -46 -74 -12 -16 -46 -68 4 blend
          rrcurveto
          352 -42 -67 1 blend
          0 rlineto
          2 12 0 10 2 1 6 0 2 4 8 20 4 blend
          0 10 14 20 1 blend
          rrcurveto
          0 142 -70 78 -110 -4 -8 -2 0 18 30 -23 -38 4 blend
          0 rrcurveto
          -106 -9 -16 1 blend
          0 -100 -96 -12 -18 -2 -4 2 blend
          0 -156 -4 -6 1 blend
          rrcurveto
          0 -156 98 -94 120 -8 -10 8 14 0 -2 16 26 4 blend
          0 rrcurveto
          -186 278 60 92 32 44 2 blend
          rmoveto
          10 122 78 74 86 -48 -72 -30 -46 -34 -52 -30 -48 4 blend
          0 rrcurveto
          90 -26 -38 1 blend
          0 60 -64 -26 -44 22 30 2 blend
          0 -132 60 94 1 blend
          rrcurveto
          -324 112 176 1 blend
          0 rlineto
        </CharString>
        <CharString name="eacute">
          1 vsindex
          272 18 1 blend
          -12 rmoveto
          72 -16 1 blend
          0 40 22 36 24 32 -2 18 14 4 blend
          rrcurveto
          -14 22 -40 80 2 blend
          rlineto
          -34 -24 -44 -16 -54 -2 4 10 6 20 5 blend
          0 rrcurveto
          -114 58 1 blend
          0 -74 94 0 128 30 -74 -16 -68 4 blend
          rrcurveto
          352 -67 1 blend
          0 rlineto
          2 1 1 blend
          12 0 10 4 20 2 blend
          0 10 20 1 blend
          rrcurveto
          0 142 -8 1 blend
          -70 78 -110 30 -38 2 blend
          0 rrcurveto
          -106 -16 1 blend
          0 -100 -96 -18 -4 2 blend
          0 -156 -6 1 blend
          rrcurveto
          0 -156 98 -94 120 -10 14 -2 26 4 blend
          0 rrcurveto
          -186 278 92 44 2 blend
          rmoveto
          10 122 78 74 86 -72 -46 -52 -48 4 blend
          0 rrcurveto
          90 -38 1 blend
          0 60 -64 -44 30 2 blend
          0 -132 94 1 blend
          rrcurveto
          -324 176 1 blend
          0 rlineto
          130 308 -96 -46 2 blend
          rmoveto
          148 150 82 8 2 blend
          rlineto
          -24 20 -72 94 2 blend
          rlineto
          -142 -154 -76 -34 2 blend
          rlineto
          18 -16 66 -68 2 blend
          rlineto
        </CharString>
        <CharString name="ecircumflex">
          1 vsindex
          272 18 1 blend
          -12 rmoveto
          72 -16 1 blend
          0 40 22 36 24 32 -2 18 14 4 blend
          rrcurveto
          -14 22 -40 80 2 blend
          rlineto
          -34 -24 -44 -16 -54 -2 4 10 6 20 5 blend
          0 rrcurveto
          -114 58 1 blend
          0 -74 94 0 128 30 -74 -16 -68 4 blend
          rrcurveto
          352 -67 1 blend
          0 rlineto
          2 1 1 blend
          12 0 10 4 20 2 blend
          0 10 20 1 blend
          rrcurveto
          0 142 -8 1 blend
          -70 78 -110 30 -38 2 blend
          0 rrcurveto
          -106 -16 1 blend
          0 -100 -96 -18 -4 2 blend
          0 -156 -6 1 blend
          rrcurveto
          0 -156 98 -94 120 -10 14 -2 26 4 blend
          0 rrcurveto
          -186 278 92 44 2 blend
          rmoveto
          10 122 78 74 86 -72 -46 -52 -48 4 blend
          0 rrcurveto
          90 -38 1 blend
          0 60 -64 -44 30 2 blend
          0 -132 94 1 blend
          rrcurveto
          -324 176 1 blend
          0 rlineto
          60 308 -116 -60 2 blend
          rmoveto
          112 130 16 -46 2 blend
          rlineto
          4 0 rlineto
          112 -130 16 46 2 blend
          rlineto
          18 16 46 44 2 blend
          rlineto
          -118 146 12 -18 2 blend
          rlineto
          -28 -148 1 blend
          0 rlineto
          -118 -146 12 18 2 blend
          rlineto
          18 -16 46 -44 2 blend
          rlineto
        </CharString>
        <CharString name="edieresis">
          1 vsindex
          272 18 1 blend
          -12 rmoveto
          72 -16 1 blend
          0 40 22 36 24 32 -2 18 14 4 blend
          rrcurveto
          -14 22 -40 80 2 blend
          rlineto
          -34 -24 -44 -16 -54 -2 4 10 6 20 5 blend
          0 rrcurveto
          -114 58 1 blend
          0 -74 94 0 128 30 -74 -16 -68 4 blend
          rrcurveto
          352 -67 1 blend
          0 rlineto
          2 1 1 blend
          12 0 10 4 20 2 blend
          0 10 20 1 blend
          rrcurveto
          0 142 -8 1 blend
          -70 78 -110 30 -38 2 blend
          0 rrcurveto
          -106 -16 1 blend
          0 -100 -96 -18 -4 2 blend
          0 -156 -6 1 blend
          rrcurveto
          0 -156 98 -94 120 -10 14 -2 26 4 blend
          0 rrcurveto
          -186 278 92 44 2 blend
          rmoveto
          10 122 78 74 86 -72 -46 -52 -48 4 blend
          0 rrcurveto
          90 -38 1 blend
          0 60 -64 -44 30 2 blend
          0 -132 94 1 blend
          rrcurveto
          -324 176 1 blend
          0 rlineto
          88 336 -128 -84 2 blend
          rmoveto
          18 29 1 blend
          0 14 14 19 21 2 blend
          0 18 27 1 blend
          rrcurveto
          0 18 -14 14 -18 27 -19 21 -29 4 blend
          0 rrcurveto
          -18 -29 1 blend
          0 -14 -14 -19 -21 2 blend
          0 -18 -27 1 blend
          rrcurveto
          0 -18 14 -14 18 -27 19 -21 29 4 blend
          0 rrcurveto
          172 56 1 blend
          0 rmoveto
          18 29 1 blend
          0 14 14 19 21 2 blend
          0 18 27 1 blend
          rrcurveto
          0 18 -14 14 -18 27 -19 21 -29 4 blend
          0 rrcurveto
          -18 -29 1 blend
          0 -14 -14 -19 -21 2 blend
          0 -18 -27 1 blend
          rrcurveto
          0 -18 14 -14 18 -27 19 -21 29 4 blend
          0 rrcurveto
        </CharString>
        <CharString name="egrave">
          1 vsindex
          272 18 1 blend
          -12 rmoveto
          72 -16 1 blend
          0 40 22 36 24 32 -2 18 14 4 blend
          rrcurveto
          -14 22 -40 80 2 blend
          rlineto
          -34 -24 -44 -16 -54 -2 4 10 6 20 5 blend
          0 rrcurveto
          -114 58 1 blend
          0 -74 94 0 128 30 -74 -16 -68 4 blend
          rrcurveto
          352 -67 1 blend
          0 rlineto
          2 1 1 blend
          12 0 10 4 20 2 blend
          0 10 20 1 blend
          rrcurveto
          0 142 -8 1 blend
          -70 78 -110 30 -38 2 blend
          0 rrcurveto
          -106 -16 1 blend
          0 -100 -96 -18 -4 2 blend
          0 -156 -6 1 blend
          rrcurveto
          0 -156 98 -94 120 -10 14 -2 26 4 blend
          0 rrcurveto
          -186 278 92 44 2 blend
          rmoveto
          10 122 78 74 86 -72 -46 -52 -48 4 blend
          0 rrcurveto
          90 -38 1 blend
          0 60 -64 -44 30 2 blend
          0 -132 94 1 blend
          rrcurveto
          -324 176 1 blend
          0 rlineto
          218 308 -104 -46 2 blend
          rmoveto
          18 16 66 68 2 blend
          rlineto
          -142 154 -76 34 2 blend
          rlineto
          -24 -20 -72 -94 2 blend
          rlineto
          148 -150 82 -8 2 blend
          rlineto
        </CharString>
        <CharString name="eight">
          1 vsindex
          240 28 1 blend
          -12 rmoveto
          114 25 1 blend
          0 76 74 17 2 2 blend
          0 92 10 1 blend
          rrcurveto
          0 86 -58 42 -54 34 -2 11 8 -8 -1 5 blend
          rrcurveto
          0 4 rlineto
          36 30 56 64 9 -1 -20 -18 4 blend
          0 72 -14 1 blend
          rrcurveto
          0 94 -62 72 -108 14 -18 -4 -10 4 blend
          0 rrcurveto
          -90 -34 1 blend
          0 -72 -64 -16 -4 2 blend
          0 -90 -22 1 blend
          rrcurveto
          0 -68 46 -48 46 -30 2 -12 2 4 -8 5 blend
          rrcurveto
          0 -4 rlineto
          -60 -32 -70 -64 26 20 2 blend
          0 -88 14 1 blend
          rrcurveto
          0 -100 84 -76 116 -4 13 6 13 4 blend
          0 rrcurveto
          48 342 -10 48 2 blend
          rmoveto
          -86 34 -92 38 26 -10 58 -16 4 blend
          0 96 -54 1 blend
          rrcurveto
          0 72 54 54 76 -28 -27 -36 -45 4 blend
          0 rrcurveto
          88 -48 1 blend
          0 50 -64 -26 38 2 blend
          0 -74 30 1 blend
          rrcurveto
          0 -58 -32 -52 -58 -46 30 22 26 40 20 5 blend
          rrcurveto
          -48 -314 14 42 2 blend
          rmoveto
          -98 54 1 blend
          0 -70 66 31 -40 2 blend
          0 82 -32 1 blend
          rrcurveto
          0 74 52 56 70 40 -42 -38 -24 -51 -18 5 blend
          rrcurveto
          102 -40 102 -36 -27 8 -58 18 4 blend
          0 -104 58 1 blend
          rrcurveto
          0 -76 -62 -62 -96 28 31 44 58 4 blend
          0 rrcurveto
        </CharString>
        <CharString name="equal">
          1 vsindex
          34 416 -26 1 blend
          rmoveto
          404 68 1 blend
          0 rlineto
          0 28 92 1 blend
          rlineto
          -404 -68 1 blend
          0 rlineto
          0 -28 -92 1 blend
          rlineto
          0 -200 -40 1 blend
          rmoveto
          404 68 1 blend
          0 rlineto
          0 28 92 1 blend
          rlineto
          -404 -68 1 blend
          0 rlineto
          0 -28 -92 1 blend
          rlineto
        </CharString>
        <CharString name="eth">
          1 vsindex
          266 8 1 blend
          -12 rmoveto
          116 38 1 blend
          0 82 102 10 18 2 blend
          0 160 2 1 blend
          rrcurveto
          0 260 -138 128 -154 84 -4 -34 4 -17 2 5 blend
          rrcurveto
          -14 -22 -60 -82 2 blend
          rlineto
          146 -86 128 -104 33 -4 -50 7 4 blend
          0 -260 67 1 blend
          rrcurveto
          0 -128 -50 -106 -116 30 14 70 72 4 blend
          0 rrcurveto
          -94 48 1 blend
          0 -78 84 38 -50 2 blend
          0 118 -48 1 blend
          rrcurveto
          0 102 59 92 115 -27 -22 -65 -69 4 blend
          0 rrcurveto
          54 -21 1 blend
          0 56 -18 56 -86 -26 7 -30 57 4 blend
          rrcurveto
          0 38 -2 48 2 blend
          rlineto
          -42 62 -58 32 -64 22 -2 4 -12 14 5 blend
          0 rrcurveto
          -126 26 1 blend
          0 -82 -92 -20 10 2 blend
          0 -130 -16 1 blend
          rrcurveto
          0 -144 100 -86 104 -4 8 -8 24 4 blend
          0 rrcurveto
          -104 532 -54 -55 2 blend
          rmoveto
          302 158 84 35 2 blend
          rlineto
          -12 22 -32 53 2 blend
          rlineto
          -302 -158 -84 -36 2 blend
          rlineto
          12 -22 32 -52 2 blend
          rlineto
        </CharString>
        <CharString name="exclam">
          1 vsindex
          112 172 12 72 2 blend
          rmoveto
          24 88 1 blend
          0 rlineto
          4 436 20 -158 2 blend
          rlineto
          0 62 6 86 2 blend
          rlineto
          -32 -140 1 blend
          0 rlineto
          0 -62 6 -86 2 blend
          rlineto
          4 -436 20 158 2 blend
          rlineto
          12 -184 44 -72 2 blend
          rmoveto
          18 40 1 blend
          0 18 14 24 32 2 blend
          0 24 34 1 blend
          rrcurveto
          0 26 -18 14 -18 32 -24 32 -40 4 blend
          0 rrcurveto
          -18 -40 1 blend
          0 -18 -14 -24 -32 2 blend
          0 -26 -32 1 blend
          rrcurveto
          0 -24 18 -14 18 -34 24 -32 40 4 blend
          0 rrcurveto
        </CharString>
        <CharString name="exclamdown">
          1 vsindex
          108 -192 -14 22 2 blend
          rmoveto
          32 140 1 blend
          0 rlineto
          0 62 -6 86 2 blend
          rlineto
          -4 436 -20 -158 2 blend
          rlineto
          -24 -88 1 blend
          0 rlineto
          -4 -436 -20 158 2 blend
          rlineto
          0 -62 -6 -86 2 blend
          rlineto
          16 604 70 -130 2 blend
          rmoveto
          18 40 1 blend
          0 18 14 24 32 2 blend
          0 26 32 1 blend
          rrcurveto
          0 24 -18 14 -18 34 -24 32 -40 4 blend
          0 rrcurveto
          -18 -40 1 blend
          0 -18 -14 -24 -32 2 blend
          0 -24 -34 1 blend
          rrcurveto
          0 -26 18 -14 18 -32 24 -32 40 4 blend
          0 rrcurveto
        </CharString>
        <CharString name="f">
          1 vsindex
          100 -12 1 blend
          0 rmoveto
          30 142 1 blend
          0 rlineto
          0 592 -80 1 blend
          rlineto
          0 72 24 42 54 -26 -4 -26 -22 4 blend
          0 rrcurveto
          18 -2 1 blend
          0 19 -4 21 -8 -3 2 -5 4 4 blend
          rrcurveto
          10 24 22 98 2 blend
          rlineto
          -20 10 -26 6 -20 -2 -2 -12 4 -26 5 blend
          0 rrcurveto
          -68 -80 1 blend
          0 -42 -44 -8 -51 2 blend
          0 -94 -13 1 blend
          rrcurveto
          0 -596 90 1 blend
          rlineto
          -66 450 -84 1 blend
          rmoveto
          210 112 1 blend
          0 rlineto
          0 28 106 1 blend
          rlineto
          -144 -102 1 blend
          0 rlineto
          -66 -4 -10 -2 2 blend
          rlineto
          0 -24 -104 1 blend
          rlineto
        </CharString>
        <CharString name="five">
          1 vsindex
          224 28 1 blend
          -12 rmoveto
          100 29 1 blend
          0 100 76 11 6 2 blend
          0 136 6 1 blend
          rrcurveto
          0 140 -86 -6 -8 2 blend
          62 -108 -2 1 blend
          0 rrcurveto
          -50 29 1 blend
          0 -36 -15 -34 -21 19 13 12 13 4 blend
          rrcurveto
          22 246 -14 -154 2 blend
          rlineto
          258 -30 1 blend
          0 rlineto
          0 28 116 1 blend
          rlineto
          -286 -90 1 blend
          0 rlineto
          -24 -296 8 -30 2 blend
          rlineto
          26 -16 48 -32 2 blend
          rlineto
          38 26 34 18 50 -2 -18 -12 -16 4 blend
          0 rrcurveto
          100 -50 1 blend
          0 64 -66 -28 38 2 blend
          0 -108 54 1 blend
          rrcurveto
          0 -108 -78 -74 -88 52 44 48 28 4 blend
          0 rrcurveto
          -92 46 1 blend
          0 -50 40 6 -14 2 blend
          -38 40 -6 1 blend
          rrcurveto
          -20 -22 -56 -86 2 blend
          rlineto
          40 -40 56 -46 102 12 -12 18 8 2 5 blend
          0 rrcurveto
        </CharString>
        <CharString name="four">
          1 vsindex
          312 -22 1 blend
          0 rmoveto
          30 130 1 blend
          0 rlineto
          0 640 -6 1 blend
          rlineto
          -20 -194 1 blend
          0 rlineto
          -306 -428 90 56 2 blend
          rlineto
          0 -16 -104 1 blend
          rlineto
          424 74 1 blend
          0 rlineto
          0 28 102 1 blend
          rlineto
          -382 46 1 blend
          0 rlineto
          202 282 -144 -174 2 blend
          rlineto
          18 28 10 1 blend
          18 22 16 1 blend
          16 26 12 1 blend
          rrcurveto
          4 0 rlineto
          -2 -28 -2 -50 -15 -2 -14 3 blend
          0 -28 -15 1 blend
          rrcurveto
          0 -476 132 1 blend
          rlineto
        </CharString>
        <CharString name="g">
          1 vsindex
          250 -234 -10 28 2 blend
          rmoveto
          134 44 1 blend
          0 86 80 26 -6 2 blend
          0 80 28 1 blend
          rrcurveto
          0 74 -48 34 -106 18 -24 4 -19 4 blend
          0 rrcurveto
          -106 31 1 blend
          0 rlineto
          -74 24 1 blend
          0 -20 30 -22 1 blend
          0 36 -14 1 blend
          rrcurveto
          0 34 20 22 22 18 -20 -18 -16 -12 -9 5 blend
          rrcurveto
          22 -14 32 -8 28 9 -14 6 -12 4 blend
          0 rrcurveto
          92 20 1 blend
          0 72 74 18 -26 2 blend
          0 96 22 1 blend
          rrcurveto
          0 54 -24 46 -34 28 -34 20 -26 30 -16 5 blend
          rrcurveto
          116 -44 1 blend
          0 rlineto
          0 28 96 1 blend
          rlineto
          -160 -26 1 blend
          0 rlineto
          -14 6 -22 6 -26 -10 2 -6 -2 -2 5 blend
          0 rrcurveto
          -92 -18 1 blend
          0 -72 -72 -32 14 2 blend
          0 -96 -28 1 blend
          rrcurveto
          0 -58 30 -48 30 -26 2 2 6 2 4 blend
          rrcurveto
          0 -4 rlineto
          -20 -14 -32 -30 -14 -10 10 -6 4 blend
          0 -44 10 1 blend
          rrcurveto
          0 -36 18 -6 2 2 blend
          -26 24 -14 2 -4 2 blend
          rrcurveto
          0 -4 rlineto
          -44 -32 -28 -44 -2 8 4 13 4 blend
          0 -42 1 1 blend
          rrcurveto
          0 -80 74 -54 122 -10 22 20 -8 4 blend
          0 rrcurveto
          -10 414 26 52 2 blend
          rmoveto
          -70 38 1 blend
          0 -62 58 40 -36 2 blend
          0 84 -36 1 blend
          rrcurveto
          0 86 60 54 72 -40 -38 -32 -40 4 blend
          0 rrcurveto
          72 -40 1 blend
          0 60 -55 -38 33 2 blend
          0 -85 39 1 blend
          rrcurveto
          0 -84 -62 -58 -70 36 40 36 38 4 blend
          0 rrcurveto
          12 -386 26 1 blend
          rmoveto
          -106 48 1 blend
          0 -60 44 20 -30 2 blend
          0 64 -32 1 blend
          rrcurveto
          0 36 20 40 48 32 -22 -14 -30 -36 -20 5 blend
          rrcurveto
          26 -6 26 -12 2 -8 3 blend
          -2 6 34 1 blend
          0 rrcurveto
          110 -71 1 blend
          0 rlineto
          76 -33 1 blend
          0 40 -22 -16 18 2 blend
          0 -56 30 1 blend
          rrcurveto
          0 -64 -72 -66 -114 36 30 48 58 4 blend
          0 rrcurveto
        </CharString>
        <CharString name="germandbls">
          1 vsindex
          360 74 1 blend
          -12 rmoveto
          80 50 1 blend
          0 60 58 4 18 2 blend
          0 78 16 1 blend
          rrcurveto
          0 170 -204 -38 -20 50 42 3 blend
          0 122 -68 1 blend
          rrcurveto
          0 84 112 36 -40 -34 -8 3 blend
          0 104 -10 1 blend
          rrcurveto
          0 74 -54 56 -86 14 -28 30 -62 4 blend
          0 rrcurveto
          -102 -74 1 blend
          0 -70 -72 -18 -28 2 blend
          0 -122 -8 1 blend
          rrcurveto
          0 -538 62 1 blend
          rlineto
          30 140 1 blend
          0 rlineto
          0 524 -66 1 blend
          rlineto
          0 124 56 56 84 -56 -20 -10 -26 4 blend
          0 rrcurveto
          72 -36 1 blend
          0 38 -44 -8 18 2 blend
          0 -60 26 1 blend
          rrcurveto
          0 -92 -112 -32 22 42 6 3 blend
          0 -100 28 1 blend
          rrcurveto
          0 -146 204 40 18 -50 -46 3 blend
          0 -148 88 1 blend
          rrcurveto
          0 -54 -36 -52 -72 32 18 38 46 4 blend
          0 rrcurveto
          -44 16 1 blend
          0 -36 12 -36 32 6 -2 4 -8 4 blend
          rrcurveto
          -18 -20 -40 -96 2 blend
          rlineto
          36 -36 46 14 8 -2 3 blend
          -16 52 8 1 blend
          0 rrcurveto
        </CharString>
        <CharString name="glyph00084">
          1 vsindex
          100 -28 1 blend
          0 rmoveto
          342 76 1 blend
          0 rlineto
          0 28 116 1 blend
          rlineto
          -310 64 1 blend
          0 rlineto
          0 632 -126 1 blend
          rlineto
          -32 -140 1 blend
          0 rlineto
          0 -660 10 1 blend
          rlineto
          250 284 101 -58 2 blend
          rmoveto
          18 40 1 blend
          0 18 14 24 32 2 blend
          0 24 34 1 blend
          rrcurveto
          0 26 -18 14 -18 32 -24 32 -40 4 blend
          0 rrcurveto
          -18 -40 1 blend
          0 -18 -14 -24 -32 2 blend
          0 -26 -32 1 blend
          rrcurveto
          0 -24 18 -14 18 -34 24 -32 40 4 blend
          0 rrcurveto
          210 -284 -31 58 2 blend
          rmoveto
          342 76 1 blend
          0 rlineto
          0 28 116 1 blend
          rlineto
          -310 64 1 blend
          0 rlineto
          0 632 -126 1 blend
          rlineto
          -32 -140 1 blend
          0 rlineto
          0 -660 10 1 blend
          rlineto
        </CharString>
        <CharString name="glyph00117">
          1 vsindex
          144 68 1 blend
          -12 rmoveto
          10 28 1 blend
          0 8 2 8 4 20 4 10 4 4 blend
          rrcurveto
          -6 24 -14 102 2 blend
          rlineto
          -8 -2 -4 0 -4 -2 1 blend
          0 rrcurveto
          -14 2 1 blend
          0 -8 8 -8 2 2 blend
          0 22 12 1 blend
          rrcurveto
          0 676 -150 1 blend
          rlineto
          -30 -142 1 blend
          0 rlineto
          0 -670 150 1 blend
          rlineto
          0 -46 18 -18 30 -66 20 -58 86 4 blend
          0 rrcurveto
          110 296 66 -58 2 blend
          rmoveto
          18 40 1 blend
          0 18 14 24 32 2 blend
          0 24 34 1 blend
          rrcurveto
          0 26 -18 14 -18 32 -24 32 -40 4 blend
          0 rrcurveto
          -18 -40 1 blend
          0 -18 -14 -24 -32 2 blend
          0 -26 -32 1 blend
          rrcurveto
          0 -24 18 -14 18 -34 24 -32 40 4 blend
          0 rrcurveto
          178 -296 134 58 2 blend
          rmoveto
          10 28 1 blend
          0 8 2 8 4 20 4 10 4 4 blend
          rrcurveto
          -6 24 -14 102 2 blend
          rlineto
          -8 -2 -4 0 -4 -2 1 blend
          0 rrcurveto
          -14 2 1 blend
          0 -8 8 -8 2 2 blend
          0 22 12 1 blend
          rrcurveto
          0 676 -150 1 blend
          rlineto
          -30 -142 1 blend
          0 rlineto
          0 -670 150 1 blend
          rlineto
          0 -46 18 -18 30 -66 20 -58 86 4 blend
          0 rrcurveto
        </CharString>
        <CharString name="glyph00118">
          1 vsindex
          100 -12 1 blend
          0 rmoveto
          30 142 1 blend
          0 rlineto
          0 572 -64 1 blend
          rlineto
          0 78 30 46 60 -38 -6 -30 -32 4 blend
          0 rrcurveto
          22 6 1 blend
          0 23 -9 1 blend
          -4 25 -12 -11 6 2 blend
          rrcurveto
          10 26 20 100 2 blend
          rlineto
          -26 12 -28 6 -24 4 -3 -12 3 -22 5 blend
          0 rrcurveto
          -74 -74 1 blend
          0 -48 -48 -6 -42 2 blend
          0 -100 -2 1 blend
          rrcurveto
          0 -576 70 1 blend
          rlineto
          260 68 1 blend
          0 rmoveto
          30 142 1 blend
          0 rlineto
          0 592 -80 1 blend
          rlineto
          0 72 24 42 54 -25 -4 -27 -22 4 blend
          0 rrcurveto
          18 -2 1 blend
          0 20 -2 1 blend
          -4 20 -10 -4 4 2 blend
          rrcurveto
          10 26 20 100 2 blend
          rlineto
          -22 10 -24 6 -20 -2 -14 4 -26 4 blend
          0 rrcurveto
          -68 -80 1 blend
          0 -42 -44 -8 -51 2 blend
          0 -94 -13 1 blend
          rrcurveto
          0 -596 90 1 blend
          rlineto
          -326 450 -68 -84 2 blend
          rmoveto
          470 180 1 blend
          0 rlineto
          0 28 106 1 blend
          rlineto
          -404 -170 1 blend
          0 rlineto
          -66 -4 -10 -2 2 blend
          rlineto
          0 -24 -104 1 blend
          rlineto
        </CharString>
        <CharString name="glyph00119">
          1 vsindex
          100 -12 1 blend
          0 rmoveto
          30 142 1 blend
          0 rlineto
          0 592 -80 1 blend
          rlineto
          0 72 24 42 54 -25 -4 -27 -22 4 blend
          0 rrcurveto
          18 -2 1 blend
          0 20 -2 1 blend
          -4 20 -10 -4 4 2 blend
          rrcurveto
          10 26 20 100 2 blend
          rlineto
          -22 10 -24 6 -20 -2 -14 4 -26 4 blend
          0 rrcurveto
          -68 -80 1 blend
          0 -42 -44 -8 -51 2 blend
          0 -94 -13 1 blend
          rrcurveto
          0 -596 90 1 blend
          rlineto
          334 166 1 blend
          -12 rmoveto
          16 39 1 blend
          0 30 8 28 10 7 2 -2 -2 4 blend
          rrcurveto
          -10 26 -16 98 2 blend
          rlineto
          -18 -8 -26 -8 -18 6 4 10 4 2 5 blend
          0 rrcurveto
          -70 38 1 blend
          0 -14 44 -14 -26 2 blend
          0 62 -7 1 blend
          rrcurveto
          0 328 -157 1 blend
          rlineto
          142 -28 1 blend
          0 rlineto
          0 28 106 1 blend
          rlineto
          -142 28 1 blend
          0 rlineto
          0 140 -10 1 blend
          rlineto
          -26 -116 1 blend
          0 rlineto
          -4 -140 -16 10 2 blend
          rlineto
          -222 -94 1 blend
          0 rlineto
          -66 -4 -10 -2 2 blend
          rlineto
          0 -24 -104 1 blend
          rlineto
          288 94 1 blend
          0 rlineto
          0 -324 150 1 blend
          rlineto
          0 -82 24 -56 88 -40 30 -26 42 4 blend
          0 rrcurveto
        </CharString>
        <CharString name="glyph00120">
          1 vsindex
          100 -12 1 blend
          0 rmoveto
          30 142 1 blend
          0 rlineto
          0 572 -64 1 blend
          rlineto
          0 78 30 46 60 -38 -6 -30 -32 4 blend
          0 rrcurveto
          22 6 1 blend
          0 23 -9 1 blend
          -4 25 -12 -11 6 2 blend
          rrcurveto
          10 26 20 100 2 blend
          rlineto
          -26 12 -28 6 -24 4 -3 -12 3 -22 5 blend
          0 rrcurveto
          -74 -74 1 blend
          0 -48 -48 -6 -42 2 blend
          0 -100 -2 1 blend
          rrcurveto
          0 -576 70 1 blend
          rlineto
          260 68 1 blend
          0 rmoveto
          30 142 1 blend
          0 rlineto
          0 592 -80 1 blend
          rlineto
          0 72 24 42 54 -25 -4 -27 -22 4 blend
          0 rrcurveto
          18 -2 1 blend
          0 20 -2 1 blend
          -4 20 -10 -4 4 2 blend
          rrcurveto
          10 26 20 100 2 blend
          rlineto
          -22 10 -24 6 -20 -2 -14 4 -26 4 blend
          0 rrcurveto
          -68 -80 1 blend
          0 -42 -44 -8 -51 2 blend
          0 -94 -13 1 blend
          rrcurveto
          0 -596 90 1 blend
          rlineto
          334 166 1 blend
          -12 rmoveto
          16 39 1 blend
          0 30 8 28 10 7 2 -2 -2 4 blend
          rrcurveto
          -10 26 -16 98 2 blend
          rlineto
          -18 -8 -26 -8 -18 6 4 10 4 2 5 blend
          0 rrcurveto
          -70 38 1 blend
          0 -14 44 -14 -26 2 blend
          0 62 -7 1 blend
          rrcurveto
          0 328 -157 1 blend
          rlineto
          142 -28 1 blend
          0 rlineto
          0 28 106 1 blend
          rlineto
          -142 28 1 blend
          0 rlineto
          0 140 -10 1 blend
          rlineto
          -26 -116 1 blend
          0 rlineto
          -4 -140 -16 10 2 blend
          rlineto
          -482 -162 1 blend
          0 rlineto
          -66 -4 -10 -2 2 blend
          rlineto
          0 -24 -104 1 blend
          rlineto
          548 162 1 blend
          0 rlineto
          0 -324 150 1 blend
          rlineto
          0 -82 24 -56 88 -40 30 -26 42 4 blend
          0 rrcurveto
        </CharString>
        <CharString name="glyph00165">
          1 vsindex
          180 398 10 -42 2 blend
          rmoveto
          86 10 1 blend
          0 52 74 20 4 2 blend
          0 134 -4 1 blend
          rrcurveto
          0 132 -52 74 -86 -2 -20 2 -10 4 blend
          0 rrcurveto
          -86 -10 1 blend
          0 -52 -74 -20 -2 2 blend
          0 -132 2 1 blend
          rrcurveto
          0 -134 52 -74 86 4 20 -4 10 4 blend
          0 rrcurveto
          0 26 68 1 blend
          rmoveto
          -66 40 1 blend
          0 -42 68 18 -42 2 blend
          0 114 -26 1 blend
          rrcurveto
          0 114 42 66 66 -26 -18 -42 -40 4 blend
          0 rrcurveto
          66 -40 1 blend
          0 42 -66 -18 42 2 blend
          0 -114 26 1 blend
          rrcurveto
          0 -114 -42 -68 -66 26 18 42 40 4 blend
          0 rrcurveto
        </CharString>
        <CharString name="glyph00169">
          1 vsindex
          224 410 -12 -42 2 blend
          rmoveto
          28 82 1 blend
          0 rlineto
          0 390 rlineto
          -22 -136 1 blend
          0 rlineto
          -182 -256 50 8 2 blend
          rlineto
          0 -16 -46 1 blend
          rlineto
          262 86 1 blend
          0 rlineto
          0 26 54 1 blend
          rlineto
          -222 -14 1 blend
          0 rlineto
          78 112 -44 -38 2 blend
          rlineto
          58 84 -22 -8 2 blend
          rlineto
          4 0 rlineto
          -4 -102 -2 -18 2 blend
          rlineto
          0 -238 48 1 blend
          rlineto
        </CharString>
        <CharString name="glyph00170">
          1 vsindex
          180 398 8 -42 2 blend
          rmoveto
          72 20 1 blend
          0 58 52 6 7 2 blend
          0 82 -5 1 blend
          rrcurveto
          0 88 -56 46 -72 -10 -3 2 4 4 blend
          0 rrcurveto
          -32 26 1 blend
          0 -24 -10 -20 -12 7 10 4 9 4 blend
          rrcurveto
          14 128 -10 -89 2 blend
          rlineto
          168 -21 1 blend
          0 rlineto
          0 28 76 1 blend
          rlineto
          -194 -51 1 blend
          0 rlineto
          -20 -184 4 -12 2 blend
          rlineto
          20 -14 31 -22 2 blend
          rlineto
          22 18 26 20 38 -3 -2 -12 -16 -19 5 blend
          0 rrcurveto
          60 -33 1 blend
          0 40 -42 -16 26 2 blend
          0 -66 34 1 blend
          rrcurveto
          0 -64 -42 -44 -56 39 22 21 28 4 blend
          0 rrcurveto
          -54 24 1 blend
          0 -36 28 -26 38 14 -16 2 -6 4 blend
          rrcurveto
          -24 -18 -50 -40 2 blend
          rlineto
          28 -38 42 -36 68 8 -16 16 10 2 5 blend
          0 rrcurveto
        </CharString>
        <CharString name="glyph00171">
          1 vsindex
          192 398 12 -42 2 blend
          rmoveto
          70 10 1 blend
          0 52 56 10 4 2 blend
          0 72 8 1 blend
          rrcurveto
          0 72 -42 54 -80 4 -6 -8 6 4 blend
          0 rrcurveto
          -44 10 1 blend
          0 -38 -18 -34 -34 6 4 13 7 4 blend
          rrcurveto
          0 -35 5 -34 2 blend
          rlineto
          42 47 32 14 40 -26 -29 -13 -4 -23 5 blend
          0 rrcurveto
          62 -36 1 blend
          0 32 -44 -16 30 2 blend
          0 -56 26 1 blend
          rrcurveto
          0 -56 -36 -46 -54 24 17 36 35 4 blend
          0 rrcurveto
          -70 44 1 blend
          0 -42 62 14 -40 2 blend
          0 104 -32 1 blend
          rrcurveto
          0 142 68 54 60 -66 -52 2 8 4 blend
          0 rrcurveto
          28 -1 1 blend
          0 22 -10 18 -12 -3 -2 2 -3 4 blend
          rrcurveto
          14 26 34 50 2 blend
          rlineto
          -22 14 -22 8 -36 -2 7 -16 16 -25 5 blend
          0 rrcurveto
          -80 -43 1 blend
          0 -80 -58 16 -33 2 blend
          0 -166 51 1 blend
          rrcurveto
          0 -122 58 -68 82 -2 3 -16 29 4 blend
          0 rrcurveto
        </CharString>
        <CharString name="glyph00172">
          1 vsindex
          142 410 -30 -42 2 blend
          rmoveto
          30 102 1 blend
          0 rlineto
          8 140 26 104 100 128 -2 -10 -10 -20 -14 -18 6 blend
          rrcurveto
          0 18 48 1 blend
          rlineto
          -256 -46 1 blend
          0 rlineto
          0 -26 -78 1 blend
          rlineto
          222 -58 1 blend
          0 rlineto
          -88 -114 24 14 2 blend
          -32 -104 -10 -146 34 4 30 3 blend
          rrcurveto
        </CharString>
        <CharString name="glyph00173">
          1 vsindex
          178 398 12 -42 2 blend
          rmoveto
          72 18 1 blend
          0 56 48 8 2 2 blend
          0 64 -2 1 blend
          rrcurveto
          0 46 -26 28 -48 24 4 -6 8 10 -4 5 blend
          rrcurveto
          0 4 rlineto
          22 12 1 blend
          18 38 30 -14 2 2 blend
          0 52 -18 1 blend
          rrcurveto
          0 60 -50 8 -12 2 blend
          40 -64 -16 1 blend
          0 rrcurveto
          -62 -16 1 blend
          0 -48 -42 -16 2 2 blend
          0 -58 -10 1 blend
          rrcurveto
          0 -42 2 1 blend
          24 -24 -4 1 blend
          34 -22 -2 1 blend
          rrcurveto
          0 -4 rlineto
          -40 -22 6 2 2 blend
          -36 -40 5 1 blend
          0 -52 9 1 blend
          rrcurveto
          0 -58 50 -4 14 2 blend
          -50 78 12 1 blend
          0 rrcurveto
          28 222 -14 34 2 blend
          rmoveto
          -60 18 -48 26 34 -6 28 -16 4 blend
          0 48 -24 1 blend
          rrcurveto
          0 42 36 30 44 -26 -22 -18 -27 4 blend
          0 rrcurveto
          46 -27 1 blend
          0 38 -28 -24 16 2 blend
          0 -42 20 1 blend
          rrcurveto
          0 -34 -18 -32 -38 -28 22 12 18 26 14 5 blend
          rrcurveto
          -28 -196 14 22 2 blend
          rmoveto
          -60 36 1 blend
          0 -38 42 20 -24 2 blend
          0 42 -18 1 blend
          rrcurveto
          0 40 24 34 46 26 -22 -14 -16 -30 -14 5 blend
          rrcurveto
          64 -24 62 -14 -30 6 -38 6 4 blend
          0 -62 38 1 blend
          rrcurveto
          0 -46 -44 -38 -54 24 26 20 30 4 blend
          0 rrcurveto
        </CharString>
        <CharString name="glyph00174">
          1 vsindex
          144 398 17 -42 2 blend
          rmoveto
          80 43 1 blend
          0 80 58 -16 33 2 blend
          0 166 -51 1 blend
          rrcurveto
          0 122 -58 68 -82 2 -3 16 -29 4 blend
          0 rrcurveto
          -70 -10 1 blend
          0 -52 -56 -10 -4 2 blend
          0 -72 -8 1 blend
          rrcurveto
          0 -72 42 -54 80 -4 6 8 -6 4 blend
          0 rrcurveto
          44 -10 1 blend
          0 38 18 34 34 -6 -4 -13 -7 4 blend
          rrcurveto
          0 35 -5 34 2 blend
          rlineto
          -42 -47 -32 -14 -40 26 29 13 4 23 5 blend
          0 rrcurveto
          -62 36 1 blend
          0 -32 44 16 -30 2 blend
          0 56 -26 1 blend
          rrcurveto
          0 56 36 46 54 -24 -17 -36 -35 4 blend
          0 rrcurveto
          70 -44 1 blend
          0 42 -62 -14 40 2 blend
          0 -104 32 1 blend
          rrcurveto
          0 -142 -68 -54 -60 66 52 -2 -8 4 blend
          0 rrcurveto
          -28 1 1 blend
          0 -22 10 -18 12 3 2 -2 3 4 blend
          rrcurveto
          -14 -26 -34 -50 2 blend
          rlineto
          22 -14 22 -8 36 2 -7 16 -16 25 5 blend
          0 rrcurveto
        </CharString>
        <CharString name="glyph00175">
          1 vsindex
          164 450 -24 -55 2 blend
          rmoveto
          30 70 1 blend
          0 rlineto
          0 144 -19 1 blend
          rlineto
          132 -16 1 blend
          0 rlineto
          0 28 68 1 blend
          rlineto
          -132 16 1 blend
          0 rlineto
          0 144 -20 1 blend
          rlineto
          -30 -70 1 blend
          0 rlineto
          0 -144 20 1 blend
          rlineto
          -130 14 1 blend
          0 rlineto
          0 -28 -68 1 blend
          rlineto
          130 -14 1 blend
          0 rlineto
          0 -144 19 1 blend
          rlineto
        </CharString>
        <CharString name="glyph00176">
          1 vsindex
          34 674 -10 -64 2 blend
          rmoveto
          292 40 1 blend
          0 rlineto
          0 28 68 1 blend
          rlineto
          -292 -40 1 blend
          0 rlineto
          0 -28 -68 1 blend
          rlineto
          0 -160 -20 1 blend
          rmoveto
          292 40 1 blend
          0 rlineto
          0 28 68 1 blend
          rlineto
          -292 -40 1 blend
          0 rlineto
          0 -28 -68 1 blend
          rlineto
        </CharString>
        <CharString name="glyph00177">
          1 vsindex
          152 340 2 -66 2 blend
          rmoveto
          18 14 74 22 2 blend
          rlineto
          -56 78 -18 84 14 4 -6 -2 4 blend
          0 88 2 1 blend
          rrcurveto
          0 88 18 84 56 76 2 6 -2 -14 6 5 blend
          rrcurveto
          -18 14 -74 22 2 blend
          rlineto
          -56 -76 -30 -80 -2 -14 -4 2 4 blend
          0 -106 -16 1 blend
          rrcurveto
          0 -108 30 -80 56 -76 -14 4 2 2 -14 5 blend
          rrcurveto
        </CharString>
        <CharString name="glyph00178">
          1 vsindex
          62 340 64 -66 2 blend
          rmoveto
          54 76 30 80 4 14 4 -2 4 blend
          0 108 14 1 blend
          rrcurveto
          0 106 -30 80 -54 76 16 -4 -2 -4 14 5 blend
          rrcurveto
          -20 -14 -72 -22 2 blend
          rlineto
          56 -76 18 -84 -14 -6 6 2 4 blend
          0 -88 -2 1 blend
          rrcurveto
          0 -88 -18 -84 -56 -78 -2 -6 2 14 -4 5 blend
          rrcurveto
          20 -14 72 -22 2 blend
          rlineto
        </CharString>
        <CharString name="glyph00179">
          1 vsindex
          76 402 34 -42 2 blend
          rmoveto
          18 22 1 blend
          0 14 12 16 18 2 blend
          0 22 18 1 blend
          rrcurveto
          0 22 -14 12 -18 18 -16 20 -22 4 blend
          0 rrcurveto
          -18 -22 1 blend
          0 -14 -12 -16 -20 2 blend
          0 -22 -18 1 blend
          rrcurveto
          0 -22 14 -12 18 -18 16 -18 22 4 blend
          0 rrcurveto
        </CharString>
        <CharString name="glyph00180">
          1 vsindex
          46 306 8 -74 2 blend
          rmoveto
          42 20 30 44 46 4 18 14 4 blend
          0 46 36 1 blend
          rrcurveto
          0 36 -16 18 -24 32 -12 20 -26 4 blend
          0 rrcurveto
          -16 -24 1 blend
          0 -16 -12 -16 -16 2 blend
          0 -22 -16 1 blend
          rrcurveto
          0 -20 16 -8 16 -22 17 -16 20 4 blend
          0 rrcurveto
          8 7 1 blend
          0 10 2 6 4 6 4 3 blend
          8 rrcurveto
          -24 32 -10 30 2 blend
          rlineto
          10 -38 -12 -38 2 blend
          rlineto
          0 1 1 blend
          -40 -22 -30 -32 -14 -6 9 -23 -3 4 blend
          rrcurveto
          12 -22 12 -40 2 blend
          rlineto
        </CharString>
        <CharString name="glyph00181">
          1 vsindex
          180 10 1 blend
          -12 rmoveto
          86 10 1 blend
          0 52 74 20 4 2 blend
          0 134 -4 1 blend
          rrcurveto
          0 132 -52 74 -86 -2 -20 2 -10 4 blend
          0 rrcurveto
          -86 -10 1 blend
          0 -52 -74 -20 -2 2 blend
          0 -132 2 1 blend
          rrcurveto
          0 -134 52 -74 86 4 20 -4 10 4 blend
          0 rrcurveto
          0 26 68 1 blend
          rmoveto
          -66 40 1 blend
          0 -42 68 18 -42 2 blend
          0 114 -26 1 blend
          rrcurveto
          0 114 42 66 66 -26 -18 -42 -40 4 blend
          0 rrcurveto
          66 -40 1 blend
          0 42 -66 -18 42 2 blend
          0 -114 26 1 blend
          rrcurveto
          0 -114 -42 -68 -66 26 18 42 40 4 blend
          0 rrcurveto
        </CharString>
        <CharString name="glyph00182">
          1 vsindex
          178 -16 1 blend
          0 rmoveto
          28 98 1 blend
          0 rlineto
          0 390 rlineto
          -26 -72 1 blend
          0 rlineto
          -22 -18 -26 -14 -6 2 3 blend
          -12 -36 -22 1 blend
          -8 rrcurveto
          0 -22 -54 1 blend
          rlineto
          82 8 1 blend
          0 rlineto
          0 -330 60 1 blend
          rlineto
        </CharString>
        <CharString name="glyph00183">
          1 vsindex
          58 -16 1 blend
          0 rmoveto
          250 48 1 blend
          0 rlineto
          0 26 78 1 blend
          rlineto
          -202 102 1 blend
          0 rlineto
          106 104 72 66 -62 -52 -28 -13 4 blend
          0 84 -25 1 blend
          rrcurveto
          0 82 -48 40 -70 2 -12 10 -20 4 blend
          0 rrcurveto
          -48 -14 1 blend
          0 -46 -34 -22 -38 -4 8 -22 -18 4 blend
          rrcurveto
          20 -18 50 -46 2 blend
          rlineto
          22 34 34 30 38 -6 -14 -14 -14 4 blend
          0 rrcurveto
          54 -22 1 blend
          0 36 -38 -18 18 2 blend
          0 -60 26 1 blend
          rrcurveto
          0 -68 -58 -60 -138 -130 24 -16 -4 46 58 5 blend
          rrcurveto
          0 -20 -46 1 blend
          rlineto
        </CharString>
        <CharString name="glyph00184">
          1 vsindex
          176 12 1 blend
          -12 rmoveto
          72 10 1 blend
          0 56 42 18 8 2 blend
          0 72 rrcurveto
          0 56 -46 34 -48 8 -12 18 -2 10 10 5 blend
          rrcurveto
          44 16 34 34 -10 6 -16 -8 4 blend
          0 50 -10 1 blend
          rrcurveto
          0 64 -52 38 -64 4 -14 4 -10 4 blend
          0 rrcurveto
          -48 -16 1 blend
          0 -40 -28 -26 -34 8 -20 -14 3 blend
          rrcurveto
          20 -18 50 -44 2 blend
          rlineto
          26 32 34 22 32 -10 -12 -16 -6 -8 5 blend
          0 rrcurveto
          54 -30 1 blend
          0 34 -32 -18 20 2 blend
          0 -46 24 1 blend
          rrcurveto
          0 -46 -46 -42 -82 16 19 32 41 4 blend
          0 rrcurveto
          0 -24 -46 1 blend
          rlineto
          88 -31 1 blend
          0 56 -30 -31 16 2 blend
          0 -54 24 1 blend
          rrcurveto
          0 -56 -44 -32 -52 32 23 18 25 4 blend
          0 rrcurveto
          -46 16 1 blend
          0 -42 28 20 -16 2 blend
          -24 38 -6 1 blend
          rrcurveto
          -24 -18 -50 -40 2 blend
          rlineto
          26 -38 48 -36 60 10 -16 10 10 10 5 blend
          0 rrcurveto
        </CharString>
        <CharString name="glyph00185">
          1 vsindex
          224 -12 1 blend
          0 rmoveto
          28 82 1 blend
          0 rlineto
          0 390 rlineto
          -22 -136 1 blend
          0 rlineto
          -182 -256 50 8 2 blend
          rlineto
          0 -16 -46 1 blend
          rlineto
          262 86 1 blend
          0 rlineto
          0 26 54 1 blend
          rlineto
          -222 -14 1 blend
          0 rlineto
          78 112 -44 -38 2 blend
          rlineto
          58 84 -22 -8 2 blend
          rlineto
          4 0 rlineto
          -4 -102 -2 -18 2 blend
          rlineto
          0 -238 48 1 blend
          rlineto
        </CharString>
        <CharString name="glyph00186">
          1 vsindex
          180 8 1 blend
          -12 rmoveto
          72 20 1 blend
          0 58 52 6 7 2 blend
          0 82 -5 1 blend
          rrcurveto
          0 88 -56 46 -72 -10 -3 2 4 4 blend
          0 rrcurveto
          -32 26 1 blend
          0 -24 -10 -20 -12 7 10 4 9 4 blend
          rrcurveto
          14 128 -10 -89 2 blend
          rlineto
          168 -21 1 blend
          0 rlineto
          0 28 76 1 blend
          rlineto
          -194 -51 1 blend
          0 rlineto
          -20 -184 4 -12 2 blend
          rlineto
          20 -14 31 -22 2 blend
          rlineto
          22 18 26 20 38 -3 -2 -12 -16 -19 5 blend
          0 rrcurveto
          60 -33 1 blend
          0 40 -42 -16 26 2 blend
          0 -66 34 1 blend
          rrcurveto
          0 -64 -42 -44 -56 39 22 21 28 4 blend
          0 rrcurveto
          -54 24 1 blend
          0 -36 28 -26 38 14 -16 2 -6 4 blend
          rrcurveto
          -24 -18 -50 -40 2 blend
          rlineto
          28 -38 42 -36 68 8 -16 16 10 2 5 blend
          0 rrcurveto
        </CharString>
        <CharString name="glyph00187">
          1 vsindex
          192 12 1 blend
          -12 rmoveto
          70 10 1 blend
          0 52 56 10 4 2 blend
          0 72 8 1 blend
          rrcurveto
          0 72 -42 54 -80 4 -6 -8 6 4 blend
          0 rrcurveto
          -44 10 1 blend
          0 -38 -18 -34 -34 6 4 13 7 4 blend
          rrcurveto
          0 -35 5 -34 2 blend
          rlineto
          42 47 32 14 40 -26 -29 -13 -4 -23 5 blend
          0 rrcurveto
          62 -36 1 blend
          0 32 -44 -16 30 2 blend
          0 -56 26 1 blend
          rrcurveto
          0 -56 -36 -46 -54 24 17 36 35 4 blend
          0 rrcurveto
          -70 44 1 blend
          0 -42 62 14 -40 2 blend
          0 104 -32 1 blend
          rrcurveto
          0 142 68 54 60 -66 -52 2 8 4 blend
          0 rrcurveto
          28 -1 1 blend
          0 22 -10 18 -12 -3 -2 2 -3 4 blend
          rrcurveto
          14 26 34 50 2 blend
          rlineto
          -22 14 -22 8 -36 -2 7 -16 16 -25 5 blend
          0 rrcurveto
          -80 -43 1 blend
          0 -80 -58 16 -33 2 blend
          0 -166 51 1 blend
          rrcurveto
          0 -122 58 -68 82 -2 3 -16 29 4 blend
          0 rrcurveto
        </CharString>
        <CharString name="glyph00188">
          1 vsindex
          142 -30 1 blend
          0 rmoveto
          30 102 1 blend
          0 rlineto
          8 140 26 104 100 128 -2 -10 -10 -20 -14 -18 6 blend
          rrcurveto
          0 18 48 1 blend
          rlineto
          -256 -46 1 blend
          0 rlineto
          0 -26 -78 1 blend
          rlineto
          222 -58 1 blend
          0 rlineto
          -88 -114 24 14 2 blend
          -32 -104 -10 -146 34 4 30 3 blend
          rrcurveto
        </CharString>
        <CharString name="glyph00189">
          1 vsindex
          178 12 1 blend
          -12 rmoveto
          72 18 1 blend
          0 56 48 8 2 2 blend
          0 64 -2 1 blend
          rrcurveto
          0 46 -26 28 -48 24 4 -6 8 10 -4 5 blend
          rrcurveto
          0 4 rlineto
          22 12 1 blend
          18 38 30 -14 2 2 blend
          0 52 -18 1 blend
          rrcurveto
          0 60 -50 8 -12 2 blend
          40 -64 -16 1 blend
          0 rrcurveto
          -62 -16 1 blend
          0 -48 -42 -16 2 2 blend
          0 -58 -10 1 blend
          rrcurveto
          0 -42 2 1 blend
          24 -24 -4 1 blend
          34 -22 -2 1 blend
          rrcurveto
          0 -4 rlineto
          -40 -22 6 2 2 blend
          -36 -40 5 1 blend
          0 -52 9 1 blend
          rrcurveto
          0 -58 50 -4 14 2 blend
          -50 78 12 1 blend
          0 rrcurveto
          28 222 -14 34 2 blend
          rmoveto
          -60 18 -48 26 34 -6 28 -16 4 blend
          0 48 -24 1 blend
          rrcurveto
          0 42 36 30 44 -26 -22 -18 -27 4 blend
          0 rrcurveto
          46 -27 1 blend
          0 38 -28 -24 16 2 blend
          0 -42 20 1 blend
          rrcurveto
          0 -34 -18 -32 -38 -28 22 12 18 26 14 5 blend
          rrcurveto
          -28 -196 14 22 2 blend
          rmoveto
          -60 36 1 blend
          0 -38 42 20 -24 2 blend
          0 42 -18 1 blend
          rrcurveto
          0 40 24 34 46 26 -22 -14 -16 -30 -14 5 blend
          rrcurveto
          64 -24 62 -14 -30 6 -38 6 4 blend
          0 -62 38 1 blend
          rrcurveto
          0 -46 -44 -38 -54 24 26 20 30 4 blend
          0 rrcurveto
        </CharString>
        <CharString name="glyph00190">
          1 vsindex
          144 17 1 blend
          -12 rmoveto
          80 43 1 blend
          0 80 58 -16 33 2 blend
          0 166 -51 1 blend
          rrcurveto
          0 122 -58 68 -82 2 -3 16 -29 4 blend
          0 rrcurveto
          -70 -10 1 blend
          0 -52 -56 -10 -4 2 blend
          0 -72 -8 1 blend
          rrcurveto
          0 -72 42 -54 80 -4 6 8 -6 4 blend
          0 rrcurveto
          44 -10 1 blend
          0 38 18 34 34 -6 -4 -13 -7 4 blend
          rrcurveto
          0 35 -5 34 2 blend
          rlineto
          -42 -47 -32 -14 -40 26 29 13 4 23 5 blend
          0 rrcurveto
          -62 36 1 blend
          0 -32 44 16 -30 2 blend
          0 56 -26 1 blend
          rrcurveto
          0 56 36 46 54 -24 -17 -36 -35 4 blend
          0 rrcurveto
          70 -44 1 blend
          0 42 -62 -14 40 2 blend
          0 -104 32 1 blend
          rrcurveto
          0 -142 -68 -54 -60 66 52 -2 -8 4 blend
          0 rrcurveto
          -28 1 1 blend
          0 -22 10 -18 12 3 2 -2 3 4 blend
          rrcurveto
          -14 -26 -34 -50 2 blend
          rlineto
          22 -14 22 -8 36 2 -7 16 -16 25 5 blend
          0 rrcurveto
        </CharString>
        <CharString name="glyph00191">
          1 vsindex
          152 -70 2 -24 2 blend
          rmoveto
          18 14 74 22 2 blend
          rlineto
          -56 78 -18 84 14 4 -6 -2 4 blend
          0 88 2 1 blend
          rrcurveto
          0 88 18 84 56 76 2 6 -2 -14 6 5 blend
          rrcurveto
          -18 14 -74 22 2 blend
          rlineto
          -56 -76 -30 -80 -2 -14 -4 2 4 blend
          0 -106 -16 1 blend
          rrcurveto
          0 -108 30 -80 56 -76 -14 4 2 2 -14 5 blend
          rrcurveto
        </CharString>
        <CharString name="glyph00192">
          1 vsindex
          62 -70 64 -24 2 blend
          rmoveto
          54 76 30 80 4 14 4 -2 4 blend
          0 108 14 1 blend
          rrcurveto
          0 106 -30 80 -54 76 16 -4 -2 -4 14 5 blend
          rrcurveto
          -20 -14 -72 -22 2 blend
          rlineto
          56 -76 18 -84 -14 -6 6 2 4 blend
          0 -88 -2 1 blend
          rrcurveto
          0 -88 -18 -84 -56 -78 -2 -6 2 14 -4 5 blend
          rrcurveto
          20 -14 72 -22 2 blend
          rlineto
        </CharString>
        <CharString name="glyph00193">
          1 vsindex
          76 34 1 blend
          -8 rmoveto
          18 22 1 blend
          0 14 12 16 18 2 blend
          0 22 18 1 blend
          rrcurveto
          0 22 -14 12 -18 18 -16 20 -22 4 blend
          0 rrcurveto
          -18 -22 1 blend
          0 -14 -12 -16 -20 2 blend
          0 -22 -18 1 blend
          rrcurveto
          0 -22 14 -12 18 -18 16 -18 22 4 blend
          0 rrcurveto
        </CharString>
        <CharString name="glyph00194">
          1 vsindex
          46 -104 8 -32 2 blend
          rmoveto
          42 20 30 44 46 4 18 14 4 blend
          0 46 36 1 blend
          rrcurveto
          0 36 -16 18 -24 32 -12 20 -26 4 blend
          0 rrcurveto
          -16 -24 1 blend
          0 -16 -12 -16 -16 2 blend
          0 -22 -16 1 blend
          rrcurveto
          0 -20 16 -8 16 -22 17 -16 20 4 blend
          0 rrcurveto
          8 7 1 blend
          0 10 2 6 4 6 4 3 blend
          8 rrcurveto
          -24 32 -10 30 2 blend
          rlineto
          10 -38 -12 -38 2 blend
          rlineto
          0 1 1 blend
          -40 -22 -30 -32 -14 -6 9 -23 -3 4 blend
          rrcurveto
          12 -22 12 -40 2 blend
          rlineto
        </CharString>
        <CharString name="glyph00195">
          1 vsindex
          180 258 10 -10 2 blend
          rmoveto
          86 10 1 blend
          0 52 74 20 4 2 blend
          0 134 -4 1 blend
          rrcurveto
          0 132 -52 74 -86 -2 -20 2 -10 4 blend
          0 rrcurveto
          -86 -10 1 blend
          0 -52 -74 -20 -2 2 blend
          0 -132 2 1 blend
          rrcurveto
          0 -134 52 -74 86 4 20 -4 10 4 blend
          0 rrcurveto
          0 26 68 1 blend
          rmoveto
          -66 40 1 blend
          0 -42 68 18 -42 2 blend
          0 114 -26 1 blend
          rrcurveto
          0 114 42 66 66 -26 -18 -42 -40 4 blend
          0 rrcurveto
          66 -40 1 blend
          0 42 -66 -18 42 2 blend
          0 -114 26 1 blend
          rrcurveto
          0 -114 -42 -68 -66 26 18 42 40 4 blend
          0 rrcurveto
        </CharString>
        <CharString name="glyph00196">
          1 vsindex
          178 270 -16 -10 2 blend
          rmoveto
          28 98 1 blend
          0 rlineto
          0 390 rlineto
          -26 -72 1 blend
          0 rlineto
          -22 -18 -26 -14 -6 2 3 blend
          -12 -36 -22 1 blend
          -8 rrcurveto
          0 -22 -54 1 blend
          rlineto
          82 8 1 blend
          0 rlineto
          0 -330 60 1 blend
          rlineto
        </CharString>
        <CharString name="glyph00197">
          1 vsindex
          58 270 -16 -10 2 blend
          rmoveto
          250 48 1 blend
          0 rlineto
          0 26 78 1 blend
          rlineto
          -202 102 1 blend
          0 rlineto
          106 104 72 66 -62 -52 -28 -13 4 blend
          0 84 -25 1 blend
          rrcurveto
          0 82 -48 40 -70 2 -12 10 -20 4 blend
          0 rrcurveto
          -48 -14 1 blend
          0 -46 -34 -22 -38 -4 8 -22 -18 4 blend
          rrcurveto
          20 -18 50 -46 2 blend
          rlineto
          22 34 34 30 38 -6 -14 -14 -14 4 blend
          0 rrcurveto
          54 -22 1 blend
          0 36 -38 -18 18 2 blend
          0 -60 26 1 blend
          rrcurveto
          0 -68 -58 -60 -138 -130 24 -16 -4 46 58 5 blend
          rrcurveto
          0 -20 -46 1 blend
          rlineto
        </CharString>
        <CharString name="glyph00198">
          1 vsindex
          176 258 12 -10 2 blend
          rmoveto
          72 10 1 blend
          0 56 42 18 8 2 blend
          0 72 rrcurveto
          0 56 -46 34 -48 8 -12 18 -2 10 10 5 blend
          rrcurveto
          44 16 34 34 -10 6 -16 -8 4 blend
          0 50 -10 1 blend
          rrcurveto
          0 64 -52 38 -64 4 -14 4 -10 4 blend
          0 rrcurveto
          -48 -16 1 blend
          0 -40 -28 -26 -34 8 -20 -14 3 blend
          rrcurveto
          20 -18 50 -44 2 blend
          rlineto
          26 32 34 22 32 -10 -12 -16 -6 -8 5 blend
          0 rrcurveto
          54 -30 1 blend
          0 34 -32 -18 20 2 blend
          0 -46 24 1 blend
          rrcurveto
          0 -46 -46 -42 -82 16 19 32 41 4 blend
          0 rrcurveto
          0 -24 -46 1 blend
          rlineto
          88 -31 1 blend
          0 56 -30 -31 16 2 blend
          0 -54 24 1 blend
          rrcurveto
          0 -56 -44 -32 -52 32 23 18 25 4 blend
          0 rrcurveto
          -46 16 1 blend
          0 -42 28 20 -16 2 blend
          -24 38 -6 1 blend
          rrcurveto
          -24 -18 -50 -40 2 blend
          rlineto
          26 -38 48 -36 60 10 -16 10 10 10 5 blend
          0 rrcurveto
        </CharString>
        <CharString name="glyph00199">
          1 vsindex
          224 270 -12 -10 2 blend
          rmoveto
          28 82 1 blend
          0 rlineto
          0 390 rlineto
          -22 -136 1 blend
          0 rlineto
          -182 -256 50 8 2 blend
          rlineto
          0 -16 -46 1 blend
          rlineto
          262 86 1 blend
          0 rlineto
          0 26 54 1 blend
          rlineto
          -222 -14 1 blend
          0 rlineto
          78 112 -44 -38 2 blend
          rlineto
          58 84 -22 -8 2 blend
          rlineto
          4 0 rlineto
          -4 -102 -2 -18 2 blend
          rlineto
          0 -238 48 1 blend
          rlineto
        </CharString>
        <CharString name="glyph00200">
          1 vsindex
          180 258 8 -10 2 blend
          rmoveto
          72 20 1 blend
          0 58 52 6 7 2 blend
          0 82 -5 1 blend
          rrcurveto
          0 88 -56 46 -72 -10 -3 2 4 4 blend
          0 rrcurveto
          -32 26 1 blend
          0 -24 -10 -20 -12 7 10 4 9 4 blend
          rrcurveto
          14 128 -10 -89 2 blend
          rlineto
          168 -21 1 blend
          0 rlineto
          0 28 76 1 blend
          rlineto
          -194 -51 1 blend
          0 rlineto
          -20 -184 4 -12 2 blend
          rlineto
          20 -14 31 -22 2 blend
          rlineto
          22 18 26 20 38 -3 -2 -12 -16 -19 5 blend
          0 rrcurveto
          60 -33 1 blend
          0 40 -42 -16 26 2 blend
          0 -66 34 1 blend
          rrcurveto
          0 -64 -42 -44 -56 39 22 21 28 4 blend
          0 rrcurveto
          -54 24 1 blend
          0 -36 28 -26 38 14 -16 2 -6 4 blend
          rrcurveto
          -24 -18 -50 -40 2 blend
          rlineto
          28 -38 42 -36 68 8 -16 16 10 2 5 blend
          0 rrcurveto
        </CharString>
        <CharString name="glyph00201">
          1 vsindex
          192 258 12 -10 2 blend
          rmoveto
          70 10 1 blend
          0 52 56 10 4 2 blend
          0 72 8 1 blend
          rrcurveto
          0 72 -42 54 -80 4 -6 -8 6 4 blend
          0 rrcurveto
          -44 10 1 blend
          0 -38 -18 -34 -34 6 4 13 7 4 blend
          rrcurveto
          0 -35 5 -34 2 blend
          rlineto
          42 47 32 14 40 -26 -29 -13 -4 -23 5 blend
          0 rrcurveto
          62 -36 1 blend
          0 32 -44 -16 30 2 blend
          0 -56 26 1 blend
          rrcurveto
          0 -56 -36 -46 -54 24 17 36 35 4 blend
          0 rrcurveto
          -70 44 1 blend
          0 -42 62 14 -40 2 blend
          0 104 -32 1 blend
          rrcurveto
          0 142 68 54 60 -66 -52 2 8 4 blend
          0 rrcurveto
          28 -1 1 blend
          0 22 -10 18 -12 -3 -2 2 -3 4 blend
          rrcurveto
          14 26 34 50 2 blend
          rlineto
          -22 14 -22 8 -36 -2 7 -16 16 -25 5 blend
          0 rrcurveto
          -80 -43 1 blend
          0 -80 -58 16 -33 2 blend
          0 -166 51 1 blend
          rrcurveto
          0 -122 58 -68 82 -2 3 -16 29 4 blend
          0 rrcurveto
        </CharString>
        <CharString name="glyph00202">
          1 vsindex
          142 270 -30 -10 2 blend
          rmoveto
          30 102 1 blend
          0 rlineto
          8 140 26 104 100 128 -2 -10 -10 -20 -14 -18 6 blend
          rrcurveto
          0 18 48 1 blend
          rlineto
          -256 -46 1 blend
          0 rlineto
          0 -26 -78 1 blend
          rlineto
          222 -58 1 blend
          0 rlineto
          -88 -114 24 14 2 blend
          -32 -104 -10 -146 34 4 30 3 blend
          rrcurveto
        </CharString>
        <CharString name="glyph00203">
          1 vsindex
          178 258 12 -10 2 blend
          rmoveto
          72 18 1 blend
          0 56 48 8 2 2 blend
          0 64 -2 1 blend
          rrcurveto
          0 46 -26 28 -48 24 4 -6 8 10 -4 5 blend
          rrcurveto
          0 4 rlineto
          22 12 1 blend
          18 38 30 -14 2 2 blend
          0 52 -18 1 blend
          rrcurveto
          0 60 -50 8 -12 2 blend
          40 -64 -16 1 blend
          0 rrcurveto
          -62 -16 1 blend
          0 -48 -42 -16 2 2 blend
          0 -58 -10 1 blend
          rrcurveto
          0 -42 2 1 blend
          24 -24 -4 1 blend
          34 -22 -2 1 blend
          rrcurveto
          0 -4 rlineto
          -40 -22 6 2 2 blend
          -36 -40 5 1 blend
          0 -52 9 1 blend
          rrcurveto
          0 -58 50 -4 14 2 blend
          -50 78 12 1 blend
          0 rrcurveto
          28 222 -14 34 2 blend
          rmoveto
          -60 18 -48 26 34 -6 28 -16 4 blend
          0 48 -24 1 blend
          rrcurveto
          0 42 36 30 44 -26 -22 -18 -27 4 blend
          0 rrcurveto
          46 -27 1 blend
          0 38 -28 -24 16 2 blend
          0 -42 20 1 blend
          rrcurveto
          0 -34 -18 -32 -38 -28 22 12 18 26 14 5 blend
          rrcurveto
          -28 -196 14 22 2 blend
          rmoveto
          -60 36 1 blend
          0 -38 42 20 -24 2 blend
          0 42 -18 1 blend
          rrcurveto
          0 40 24 34 46 26 -22 -14 -16 -30 -14 5 blend
          rrcurveto
          64 -24 62 -14 -30 6 -38 6 4 blend
          0 -62 38 1 blend
          rrcurveto
          0 -46 -44 -38 -54 24 26 20 30 4 blend
          0 rrcurveto
        </CharString>
        <CharString name="glyph00204">
          1 vsindex
          144 258 17 -10 2 blend
          rmoveto
          80 43 1 blend
          0 80 58 -16 33 2 blend
          0 166 -51 1 blend
          rrcurveto
          0 122 -58 68 -82 2 -3 16 -29 4 blend
          0 rrcurveto
          -70 -10 1 blend
          0 -52 -56 -10 -4 2 blend
          0 -72 -8 1 blend
          rrcurveto
          0 -72 42 -54 80 -4 6 8 -6 4 blend
          0 rrcurveto
          44 -10 1 blend
          0 38 18 34 34 -6 -4 -13 -7 4 blend
          rrcurveto
          0 35 -5 34 2 blend
          rlineto
          -42 -47 -32 -14 -40 26 29 13 4 23 5 blend
          0 rrcurveto
          -62 36 1 blend
          0 -32 44 16 -30 2 blend
          0 56 -26 1 blend
          rrcurveto
          0 56 36 46 54 -24 -17 -36 -35 4 blend
          0 rrcurveto
          70 -44 1 blend
          0 42 -62 -14 40 2 blend
          0 -104 32 1 blend
          rrcurveto
          0 -142 -68 -54 -60 66 52 -2 -8 4 blend
          0 rrcurveto
          -28 1 1 blend
          0 -22 10 -18 12 3 2 -2 3 4 blend
          rrcurveto
          -14 -26 -34 -50 2 blend
          rlineto
          22 -14 22 -8 36 2 -7 16 -16 25 5 blend
          0 rrcurveto
        </CharString>
        <CharString name="glyph00205">
          1 vsindex
          152 200 2 -34 2 blend
          rmoveto
          18 14 74 22 2 blend
          rlineto
          -56 78 -18 84 14 4 -6 -2 4 blend
          0 88 2 1 blend
          rrcurveto
          0 88 18 84 56 76 2 6 -2 -14 6 5 blend
          rrcurveto
          -18 14 -74 22 2 blend
          rlineto
          -56 -76 -30 -80 -2 -14 -4 2 4 blend
          0 -106 -16 1 blend
          rrcurveto
          0 -108 30 -80 56 -76 -14 4 2 2 -14 5 blend
          rrcurveto
        </CharString>
        <CharString name="glyph00206">
          1 vsindex
          62 200 64 -34 2 blend
          rmoveto
          54 76 30 80 4 14 4 -2 4 blend
          0 108 14 1 blend
          rrcurveto
          0 106 -30 80 -54 76 16 -4 -2 -4 14 5 blend
          rrcurveto
          -20 -14 -72 -22 2 blend
          rlineto
          56 -76 18 -84 -14 -6 6 2 4 blend
          0 -88 -2 1 blend
          rrcurveto
          0 -88 -18 -84 -56 -78 -2 -6 2 14 -4 5 blend
          rrcurveto
          20 -14 72 -22 2 blend
          rlineto
        </CharString>
        <CharString name="glyph00207">
          1 vsindex
          76 262 34 -10 2 blend
          rmoveto
          18 22 1 blend
          0 14 12 16 18 2 blend
          0 22 18 1 blend
          rrcurveto
          0 22 -14 12 -18 18 -16 20 -22 4 blend
          0 rrcurveto
          -18 -22 1 blend
          0 -14 -12 -16 -20 2 blend
          0 -22 -18 1 blend
          rrcurveto
          0 -22 14 -12 18 -18 16 -18 22 4 blend
          0 rrcurveto
        </CharString>
        <CharString name="glyph00208">
          1 vsindex
          46 166 8 -42 2 blend
          rmoveto
          42 20 30 44 46 4 18 14 4 blend
          0 46 36 1 blend
          rrcurveto
          0 36 -16 18 -24 32 -12 20 -26 4 blend
          0 rrcurveto
          -16 -24 1 blend
          0 -16 -12 -16 -16 2 blend
          0 -22 -16 1 blend
          rrcurveto
          0 -20 16 -8 16 -22 17 -16 20 4 blend
          0 rrcurveto
          8 7 1 blend
          0 10 2 6 4 6 4 3 blend
          8 rrcurveto
          -24 32 -10 30 2 blend
          rlineto
          10 -38 -12 -38 2 blend
          rlineto
          0 1 1 blend
          -40 -22 -30 -32 -14 -6 9 -23 -3 4 blend
          rrcurveto
          12 -22 12 -40 2 blend
          rlineto
        </CharString>
        <CharString name="glyph00211">
          1 vsindex
          3 410 -10 -42 2 blend
          rmoveto
          29 94 1 blend
          0 rlineto
          90 255 -42 -45 2 blend
          rlineto
          18 52 15 44 16 53 -9 -12 -2 7 -7 -10 6 blend
          rrcurveto
          2 0 rlineto
          16 -51 15 -45 18 -53 -5 9 -3 -7 -9 13 6 blend
          rrcurveto
          88 -255 -40 45 2 blend
          rlineto
          31 97 1 blend
          0 rlineto
          -154 21 1 blend
          432 rlineto
          -29 -117 1 blend
          0 rlineto
          -155 22 1 blend
          -432 rlineto
          71 149 25 -59 2 blend
          rmoveto
          195 21 1 blend
          0 rlineto
          0 25 66 1 blend
          rlineto
          -195 -21 1 blend
          0 rlineto
          0 -25 -66 1 blend
          rlineto
        </CharString>
        <CharString name="glyph00212">
          1 vsindex
          63 410 -16 -42 2 blend
          rmoveto
          126 49 1 blend
          0 rlineto
          99 -6 1 blend
          0 64 42 14 -2 2 blend
          0 84 5 1 blend
          rrcurveto
          0 60 -40 35 -65 10 -4 10 -3 4 2 5 blend
          rrcurveto
          0 3 -1 1 blend
          rlineto
          51 12 27 36 4 -6 6 3 blend
          0 45 -8 1 blend
          rrcurveto
          0 72 -56 33 -88 12 -19 -11 -3 4 blend
          0 rrcurveto
          -118 -43 1 blend
          0 rlineto
          0 -432 rlineto
          29 242 91 21 2 blend
          rmoveto
          0 166 -88 1 blend
          rlineto
          81 -44 1 blend
          0 rlineto
          81 -44 1 blend
          0 42 -24 -26 13 2 blend
          0 -56 32 1 blend
          rrcurveto
          0 -58 -36 -28 -91 34 19 9 55 4 blend
          0 rrcurveto
          -77 40 1 blend
          0 rlineto
          0 -218 46 1 blend
          rmoveto
          0 194 -104 1 blend
          rlineto
          89 -43 1 blend
          0 rlineto
          90 -46 1 blend
          0 52 -30 -33 17 2 blend
          0 -63 34 1 blend
          rrcurveto
          0 -73 -54 -28 -88 43 35 10 44 4 blend
          0 rrcurveto
          -89 43 1 blend
          0 rlineto
        </CharString>
        <CharString name="glyph00213">
          1 vsindex
          218 402 18 -42 2 blend
          rmoveto
          56 3 1 blend
          0 40 24 32 37 11 -3 6 8 4 blend
          rrcurveto
          -17 18 -48 53 2 blend
          rlineto
          -31 -34 -34 -19 -45 12 13 10 5 12 5 blend
          0 rrcurveto
          -95 40 1 blend
          0 -59 78 23 -34 2 blend
          0 122 -45 1 blend
          rrcurveto
          0 119 60 78 97 -44 -17 -32 -46 4 blend
          0 rrcurveto
          39 -12 1 blend
          0 32 -18 24 -27 -14 8 -2 9 4 blend
          rrcurveto
          18 19 47 54 2 blend
          rlineto
          -24 27 -39 24 -51 -5 6 -9 2 -6 5 blend
          0 rrcurveto
          -111 -2 1 blend
          0 -76 -87 -26 2 2 blend
          0 -136 -8 1 blend
          rrcurveto
          0 -138 76 -87 108 -8 19 14 4 4 blend
          0 rrcurveto
        </CharString>
        <CharString name="glyph00214">
          1 vsindex
          63 410 -16 -42 2 blend
          rmoveto
          102 35 1 blend
          0 rlineto
          134 -6 1 blend
          0 64 87 28 -22 2 blend
          0 131 24 1 blend
          rrcurveto
          0 129 -64 85 -134 23 -28 -25 -1 4 blend
          0 rrcurveto
          -102 -28 1 blend
          0 rlineto
          0 -432 rlineto
          29 25 91 70 2 blend
          rmoveto
          0 382 -140 1 blend
          rlineto
          70 -64 1 blend
          0 rlineto
          118 -56 1 blend
          0 52 -76 -6 59 2 blend
          0 -113 11 1 blend
          rrcurveto
          0 -114 -51 -79 -116 15 5 55 54 4 blend
          0 rrcurveto
          -73 67 1 blend
          0 rlineto
        </CharString>
        <CharString name="glyph00215">
          1 vsindex
          63 410 -16 -42 2 blend
          rmoveto
          245 47 1 blend
          0 rlineto
          0 25 74 1 blend
          rlineto
          -216 44 1 blend
          0 rlineto
          0 193 -121 1 blend
          rlineto
          177 -35 1 blend
          0 rlineto
          0 25 74 1 blend
          rlineto
          -177 35 1 blend
          0 rlineto
          0 164 -101 1 blend
          rlineto
          210 -44 1 blend
          0 rlineto
          0 25 74 1 blend
          rlineto
          -239 -47 1 blend
          0 rlineto
          0 -432 rlineto
        </CharString>
        <CharString name="glyph00216">
          1 vsindex
          63 410 -16 -42 2 blend
          rmoveto
          29 91 1 blend
          0 rlineto
          0 209 -54 1 blend
          rlineto
          177 -32 1 blend
          0 rlineto
          0 25 74 1 blend
          rlineto
          -177 32 1 blend
          0 rlineto
          0 173 -94 1 blend
          rlineto
          209 -40 1 blend
          0 rlineto
          0 25 74 1 blend
          rlineto
          -238 -51 1 blend
          0 rlineto
          0 -432 rlineto
        </CharString>
        <CharString name="glyph00217">
          1 vsindex
          222 402 28 -42 2 blend
          rmoveto
          57 5 1 blend
          0 45 20 26 9 4 8 3 blend
          28 rrcurveto
          0 172 38 1 blend
          rlineto
          -132 -34 1 blend
          0 rlineto
          0 -25 -71 1 blend
          rlineto
          105 -43 1 blend
          0 rlineto
          0 -136 78 1 blend
          rlineto
          -21 -20 -38 -13 -40 13 16 26 11 27 5 blend
          0 rrcurveto
          -100 24 1 blend
          0 -59 78 24 -33 2 blend
          0 122 -43 1 blend
          rrcurveto
          0 119 62 78 101 -43 -19 -34 -44 4 blend
          0 rrcurveto
          48 -12 1 blend
          0 31 -21 22 -24 -12 11 -1 6 4 blend
          rrcurveto
          17 19 47 55 2 blend
          rlineto
          -23 24 -37 27 -58 -11 6 -7 -1 -4 5 blend
          0 rrcurveto
          -116 -4 1 blend
          0 -78 -87 -24 5 2 blend
          0 -136 -10 1 blend
          rrcurveto
          0 -138 76 -87 112 -8 20 13 12 4 blend
          0 rrcurveto
        </CharString>
        <CharString name="glyph00218">
          1 vsindex
          63 410 -16 -42 2 blend
          rmoveto
          29 91 1 blend
          0 rlineto
          0 218 -48 1 blend
          rlineto
          236 -110 1 blend
          0 rlineto
          0 -218 48 1 blend
          rlineto
          29 91 1 blend
          0 rlineto
          0 432 rlineto
          -29 -91 1 blend
          0 rlineto
          0 -189 30 1 blend
          rlineto
          -236 110 1 blend
          0 rlineto
          0 189 -30 1 blend
          rlineto
          -29 -91 1 blend
          0 rlineto
          0 -432 rlineto
        </CharString>
        <CharString name="glyph00219">
          1 vsindex
          63 410 -16 -42 2 blend
          rmoveto
          29 91 1 blend
          0 rlineto
          0 432 rlineto
          -29 -91 1 blend
          0 rlineto
          0 -432 rlineto
        </CharString>
        <CharString name="glyph00220">
          1 vsindex
          131 402 24 -42 2 blend
          rmoveto
          79 27 1 blend
          0 31 55 16 19 2 blend
          0 70 17 1 blend
          rrcurveto
          0 315 -36 1 blend
          rlineto
          -29 -91 1 blend
          0 rlineto
          0 -312 43 1 blend
          rlineto
          0 -70 -27 -32 -54 14 11 19 24 4 blend
          0 rrcurveto
          -36 16 1 blend
          0 -26 15 -22 36 5 -2 8 -7 4 blend
          rrcurveto
          -22 -14 -59 -46 2 blend
          rlineto
          22 -39 35 -24 49 11 -18 11 -3 21 5 blend
          0 rrcurveto
        </CharString>
        <CharString name="glyph00221">
          1 vsindex
          63 410 -16 -42 2 blend
          rmoveto
          29 91 1 blend
          0 rlineto
          0 150 -40 1 blend
          rlineto
          90 101 -49 -45 2 blend
          rlineto
          146 -251 -52 85 2 blend
          rlineto
          33 98 1 blend
          0 rlineto
          -159 273 3 -15 2 blend
          rlineto
          140 159 -10 15 2 blend
          rlineto
          -35 -96 1 blend
          0 rlineto
          -213 -241 107 85 2 blend
          rlineto
          -2 -1 1 blend
          0 rlineto
          0 241 -85 1 blend
          rlineto
          -29 -91 1 blend
          0 rlineto
          0 -432 rlineto
        </CharString>
        <CharString name="glyph00222">
          1 vsindex
          63 410 -16 -42 2 blend
          rmoveto
          231 54 1 blend
          0 rlineto
          0 25 74 1 blend
          rlineto
          -202 37 1 blend
          0 rlineto
          0 407 -74 1 blend
          rlineto
          -29 -91 1 blend
          0 rlineto
          0 -432 rlineto
        </CharString>
        <CharString name="glyph00223">
          63 410 -10 -16 -25 -42 2 blend
          rmoveto
          27 52 83 1 blend
          0 rlineto
          0 285 -98 -163 1 blend
          rlineto
          0 34 -2 45 -2 36 7 11 -2 -8 6 24 -4 -3 10 4 5 blend
          rrcurveto
          3 -1 -1 1 blend
          0 rlineto
          35 -94 -3 2 -10 -6 2 blend
          rlineto
          95 -261 -27 -36 79 121 2 blend
          rlineto
          27 25 16 1 blend
          0 rlineto
          94 261 -26 -35 -79 -121 2 blend
          rlineto
          34 94 -2 4 10 6 2 blend
          rlineto
          2 0 1 1 blend
          0 rlineto
          -1 -36 -2 -45 -5 -5 -10 -4 -3 -8 -6 -24 4 blend
          0 -34 -7 -11 1 blend
          rrcurveto
          0 -285 98 163 1 blend
          rlineto
          28 53 84 1 blend
          0 rlineto
          0 432 rlineto
          -42 -54 -83 1 blend
          0 rlineto
          -90 -253 14 26 46 78 2 blend
          rlineto
          -34 -96 12 11 14 27 2 blend
          rlineto
          -3 0 rlineto
          -35 96 12 11 -14 -27 2 blend
          rlineto
          -91 253 11 21 -46 -78 2 blend
          rlineto
          -43 -52 -80 1 blend
          0 rlineto
          0 -432 rlineto
        </CharString>
        <CharString name="glyph00224">
          63 410 -10 -16 -25 -42 2 blend
          rmoveto
          27 51 85 1 blend
          0 rlineto
          0 271 -91 -151 1 blend
          rlineto
          0 41 -2 39 -1 41 7 11 -1 -5 12 24 -5 -5 9 9 5 blend
          rrcurveto
          2 1 1 1 blend
          0 rlineto
          51 -85 -6 -10 -15 -11 2 blend
          rlineto
          185 -307 -61 -94 78 118 2 blend
          rlineto
          31 61 94 1 blend
          0 rlineto
          0 432 rlineto
          -27 -51 -85 1 blend
          0 rlineto
          0 -267 90 150 1 blend
          rlineto
          0 -42 2 -42 2 -41 -7 -12 0 5 -13 -24 5 4 -7 -7 5 blend
          rrcurveto
          -3 0 rlineto
          -50 85 6 9 15 14 2 blend
          rlineto
          -185 307 61 94 -78 -121 2 blend
          rlineto
          -32 -61 -93 1 blend
          0 rlineto
          0 -432 rlineto
        </CharString>
        <CharString name="glyph00225">
          1 vsindex
          214 402 20 -42 2 blend
          rmoveto
          106 14 1 blend
          0 75 88 11 -3 2 blend
          0 138 3 1 blend
          rrcurveto
          0 136 -75 86 -106 6 -11 -6 -14 4 blend
          0 rrcurveto
          -104 -18 1 blend
          0 -76 -85 -8 5 2 blend
          0 -137 -5 1 blend
          rrcurveto
          0 -138 76 -88 104 -3 8 3 18 4 blend
          0 rrcurveto
          0 26 76 1 blend
          rmoveto
          -89 37 1 blend
          0 -60 79 30 -31 2 blend
          0 121 -45 1 blend
          rrcurveto
          0 120 60 77 89 -42 -30 -35 -37 4 blend
          0 rrcurveto
          91 -41 1 blend
          0 59 -77 -27 35 2 blend
          0 -120 42 1 blend
          rrcurveto
          0 -121 -59 -79 -91 45 27 31 41 4 blend
          0 rrcurveto
        </CharString>
        <CharString name="glyph00226">
          1 vsindex
          63 410 -16 -42 2 blend
          rmoveto
          29 91 1 blend
          0 rlineto
          0 186 -51 1 blend
          rlineto
          90 -36 1 blend
          0 rlineto
          97 -7 1 blend
          0 59 41 26 6 2 blend
          0 85 22 1 blend
          rrcurveto
          0 88 -58 32 -98 20 -24 3 5 4 blend
          0 rrcurveto
          -119 -55 1 blend
          0 rlineto
          0 -432 rlineto
          29 211 91 17 2 blend
          rmoveto
          0 196 -86 1 blend
          rlineto
          83 -37 1 blend
          0 rlineto
          89 -46 1 blend
          0 44 -22 -21 8 2 blend
          0 -73 38 1 blend
          rrcurveto
          0 -72 -44 -29 -89 35 23 5 44 4 blend
          0 rrcurveto
          -83 37 1 blend
          0 rlineto
        </CharString>
        <CharString name="glyph00227">
          1 vsindex
          214 402 17 -42 2 blend
          rmoveto
          105 17 1 blend
          0 75 89 9 -5 2 blend
          0 138 3 1 blend
          rrcurveto
          0 135 -75 86 -105 7 -9 -5 -17 4 blend
          0 rrcurveto
          -104 -19 1 blend
          0 -76 -85 -6 5 2 blend
          0 -136 -7 1 blend
          rrcurveto
          0 -138 76 -89 104 -3 6 5 19 4 blend
          0 rrcurveto
          0 26 72 1 blend
          rmoveto
          -89 37 1 blend
          0 -60 80 30 -32 2 blend
          0 121 -42 1 blend
          rrcurveto
          0 119 60 77 89 -42 -30 -34 -37 4 blend
          0 rrcurveto
          90 -39 1 blend
          0 59 -77 -27 34 2 blend
          0 -119 42 1 blend
          rrcurveto
          0 -121 -59 -80 -90 42 27 32 39 4 blend
          0 rrcurveto
          127 -119 23 -93 2 blend
          rmoveto
          22 17 1 blend
          0 21 4 11 3 8 3 7 7 4 blend
          rrcurveto
          -7 25 -14 60 2 blend
          rlineto
          -11 -2 -13 -3 -3 -4 3 blend
          -3 -20 0 rrcurveto
          -58 21 1 blend
          0 -41 26 -18 49 -5 -19 2 -11 4 blend
          rrcurveto
          -32 -1 -89 -12 2 blend
          rlineto
          20 -58 50 -43 76 12 -17 21 -8 27 5 blend
          0 rrcurveto
        </CharString>
        <CharString name="glyph00228">
          1 vsindex
          63 410 -16 -42 2 blend
          rmoveto
          29 91 1 blend
          0 rlineto
          0 199 -56 1 blend
          rlineto
          95 -46 1 blend
          0 rlineto
          87 7 1 blend
          0 57 41 25 7 2 blend
          0 79 23 1 blend
          rrcurveto
          0 81 -57 26 -25 2 blend
          32 -87 -7 1 blend
          0 rrcurveto
          -124 -45 1 blend
          0 rlineto
          0 -432 rlineto
          29 224 91 12 2 blend
          rmoveto
          0 183 -81 1 blend
          rlineto
          87 -46 1 blend
          0 rlineto
          79 -35 1 blend
          0 43 -23 -20 9 2 blend
          0 -65 30 1 blend
          rrcurveto
          0 -65 -43 -30 -79 32 20 10 35 4 blend
          0 rrcurveto
          -87 46 1 blend
          0 rlineto
          213 -224 -97 -12 2 blend
          rmoveto
          34 100 1 blend
          0 rlineto
          -130 216 -12 37 2 blend
          rlineto
          -28 -8 -53 -71 2 blend
          rlineto
          124 -208 -35 34 2 blend
          rlineto
        </CharString>
        <CharString name="glyph00229">
          1 vsindex
          177 402 13 -42 2 blend
          rmoveto
          84 25 1 blend
          0 55 50 6 16 2 blend
          0 69 11 1 blend
          rrcurveto
          0 63 -42 26 -50 22 -9 20 4 -12 4 5 blend
          rrcurveto
          -68 30 14 -7 2 blend
          rlineto
          -31 13 -43 21 -7 3 17 -14 4 blend
          0 50 -30 1 blend
          rrcurveto
          0 48 39 31 58 -31 -27 -20 -30 4 blend
          0 rrcurveto
          45 -11 1 blend
          0 34 -18 26 -27 -7 4 4 7 4 blend
          rrcurveto
          17 19 43 55 2 blend
          rlineto
          -27 28 -42 23 -53 -14 11 -14 -4 4 5 blend
          0 rrcurveto
          -72 -27 1 blend
          0 -55 -43 -12 -19 2 blend
          0 -62 -11 1 blend
          rrcurveto
          0 -64 51 -27 38 -17 3 -16 -7 16 -6 5 blend
          rrcurveto
          68 -30 -14 7 2 blend
          rlineto
          43 -19 35 -17 -7 4 -13 10 4 blend
          0 -55 35 1 blend
          rrcurveto
          0 -53 -43 -35 -67 37 33 21 35 4 blend
          0 rrcurveto
          -51 17 1 blend
          0 -46 21 2 -7 2 blend
          -32 38 -12 1 blend
          rrcurveto
          -19 -20 -43 -58 2 blend
          rlineto
          35 -38 49 -27 64 13 -4 13 7 -8 5 blend
          0 rrcurveto
        </CharString>
        <CharString name="glyph00230">
          1 vsindex
          156 410 -23 -42 2 blend
          rmoveto
          29 91 1 blend
          0 rlineto
          0 407 -74 1 blend
          rlineto
          139 -24 1 blend
          0 rlineto
          0 25 74 1 blend
          rlineto
          -307 -45 1 blend
          0 rlineto
          0 -25 -74 1 blend
          rlineto
          139 -22 1 blend
          0 rlineto
          0 -407 74 1 blend
          rlineto
        </CharString>
        <CharString name="glyph00231">
          1 vsindex
          209 402 21 -42 2 blend
          rmoveto
          74 50 1 blend
          0 73 39 -17 31 2 blend
          0 134 16 1 blend
          rrcurveto
          0 267 -47 1 blend
          rlineto
          -27 -89 1 blend
          0 rlineto
          0 -263 28 1 blend
          rlineto
          0 -116 -57 -35 -63 40 37 8 19 4 blend
          0 rrcurveto
          -62 15 1 blend
          0 -56 35 38 -8 2 blend
          0 116 -40 1 blend
          rrcurveto
          0 263 -28 1 blend
          rlineto
          -29 -91 1 blend
          0 rlineto
          0 -267 47 1 blend
          rlineto
          0 -134 73 -39 74 -16 -20 -31 58 4 blend
          0 rrcurveto
        </CharString>
        <CharString name="glyph00232">
          1 vsindex
          146 410 -23 -42 2 blend
          rmoveto
          31 114 1 blend
          0 rlineto
          143 -14 1 blend
          432 rlineto
          -30 -92 1 blend
          0 rlineto
          -81 -252 37 67 2 blend
          rlineto
          -17 -53 -10 -40 -18 -52 6 8 1 -4 6 4 6 blend
          rrcurveto
          -3 1 1 blend
          0 rlineto
          -18 52 -12 40 -17 53 6 -4 3 4 6 -8 6 blend
          rrcurveto
          -82 252 37 -67 2 blend
          rlineto
          -31 -96 1 blend
          0 rlineto
          145 -15 1 blend
          -432 rlineto
        </CharString>
        <CharString name="glyph00233">
          117 410 -20 -34 -25 -42 2 blend
          rmoveto
          32 77 118 1 blend
          0 rlineto
          79 298 -33 -50 -79 -131 2 blend
          rlineto
          9 33 7 30 8 34 -2 -3 0 -1 -2 -2 3 6 -4 -3 -2 -3 6 blend
          rrcurveto
          3 -1 -1 1 blend
          0 rlineto
          8 -34 6 -30 9 -33 -4 -4 2 3 1 0 -3 -6 -2 -3 0 1 6 blend
          rrcurveto
          81 -298 -33 -48 79 131 2 blend
          rlineto
          31 78 121 1 blend
          0 rlineto
          100 -18 -29 1 blend
          432 rlineto
          -29 -52 -85 1 blend
          0 rlineto
          -56 -254 18 33 41 69 2 blend
          rlineto
          -11 -48 -8 -47 -10 -46 4 6 2 5 3 4 13 1 6 5 -12 -1 6 blend
          rrcurveto
          -3 -1 1 1 blend
          0 rlineto
          -12 46 -10 47 -13 48 4 4 12 1 2 2 -13 0 3 5 -2 -6 6 blend
          rrcurveto
          -69 254 17 27 -41 -69 2 blend
          rlineto
          -30 -48 -70 1 blend
          0 rlineto
          -69 -254 19 29 41 69 2 blend
          rlineto
          -13 -48 -10 -47 -11 -46 2 4 2 4 3 4 13 2 3 3 -12 -1 6 blend
          rrcurveto
          -3 -1 0 1 blend
          0 rlineto
          -9 46 -9 47 -11 48 3 3 12 1 5 4 -13 -3 3 6 -2 -3 6 blend
          rrcurveto
          -56 254 20 34 -41 -69 2 blend
          rlineto
          -31 -57 -92 1 blend
          0 rlineto
          100 -13 -23 1 blend
          -432 rlineto
        </CharString>
        <CharString name="glyph00234">
          1 vsindex
          9 410 -2 -42 2 blend
          rmoveto
          30 98 1 blend
          0 rlineto
          77 134 -47 -59 2 blend
          rlineto
          12 21 12 21 14 26 -3 2 -1 1 -4 1 6 blend
          rrcurveto
          3 -1 1 blend
          0 rlineto
          16 -26 13 -21 12 -21 -5 -1 -3 -1 -2 -2 6 blend
          rrcurveto
          76 -134 -44 59 2 blend
          rlineto
          31 103 1 blend
          0 rlineto
          -132 223 15 -6 2 blend
          rlineto
          123 209 -12 6 2 blend
          rlineto
          -30 -99 1 blend
          0 rlineto
          -73 -128 50 62 2 blend
          rlineto
          -11 4 1 blend
          -20 -9 -15 -13 -23 -9 3 -7 3 blend
          rrcurveto
          -3 0 rlineto
          -14 23 -9 15 -12 2 7 -3 9 4 5 blend
          20 rrcurveto
          -72 128 45 -62 2 blend
          rlineto
          -32 -102 1 blend
          0 rlineto
          123 -208 -11 -2 2 blend
          rlineto
          -132 -224 13 2 2 blend
          rlineto
        </CharString>
        <CharString name="glyph00235">
          1 vsindex
          131 410 -5 -42 2 blend
          rmoveto
          29 91 1 blend
          0 rlineto
          0 176 -28 1 blend
          rlineto
          132 256 -1 28 2 blend
          rlineto
          -30 -95 1 blend
          0 rlineto
          -67 -136 37 50 2 blend
          rlineto
          -14 -32 -16 -29 -17 -32 2 -1 5 -2 6 -2 6 blend
          rrcurveto
          -3 1 1 blend
          0 rlineto
          -17 32 -15 29 -15 32 5 2 5 2 2 1 6 blend
          rrcurveto
          -68 136 38 -50 2 blend
          rlineto
          -31 -97 1 blend
          0 rlineto
          132 -256 1 -28 2 blend
          rlineto
          0 -176 28 1 blend
          rlineto
        </CharString>
        <CharString name="glyph00236">
          1 vsindex
          31 410 -10 -42 2 blend
          rmoveto
          293 32 1 blend
          0 rlineto
          0 25 74 1 blend
          rlineto
          -257 80 1 blend
          0 rlineto
          254 390 -78 -129 2 blend
          rlineto
          0 17 55 1 blend
          rlineto
          -268 -39 1 blend
          0 rlineto
          0 -25 -74 1 blend
          rlineto
          232 -73 1 blend
          0 rlineto
          -254 -390 78 129 2 blend
          rlineto
          0 -17 -55 1 blend
          rlineto
        </CharString>
        <CharString name="glyph00237">
          140 402 -7 -12 -25 -42 2 blend
          rmoveto
          44 -5 -8 1 blend
          0 36 24 28 -4 -6 -5 -8 -2 -4 3 blend
          24 rrcurveto
          4 0 rlineto
          6 -40 2 4 5 8 2 blend
          rlineto
          22 45 74 1 blend
          0 rlineto
          0 202 -10 -16 1 blend
          rlineto
          0 72 -22 50 -76 21 34 -21 -34 -2 -2 -6 -10 4 blend
          0 rrcurveto
          -52 0 -48 -26 -24 -16 -1 -2 6 10 -14 -24 -7 -12 4 blend
          rrcurveto
          12 -22 18 30 -33 -56 2 blend
          rlineto
          22 16 46 22 42 8 13 1 2 -12 -19 -7 -12 -11 -18 5 blend
          0 rrcurveto
          58 -18 -31 1 blend
          0 14 -44 0 -54 21 35 2 3 19 31 3 blend
          rrcurveto
          -144 -14 -64 -34 8 16 2 2 7 10 -2 -4 4 blend
          0 -70 -2 0 1 blend
          rrcurveto
          0 -58 40 -32 56 2 4 -1 -2 -9 -16 5 8 4 blend
          0 rrcurveto
          6 26 21 35 38 64 2 blend
          rmoveto
          -44 15 25 1 blend
          0 -28 20 11 18 -7 -12 2 blend
          0 46 -20 -32 1 blend
          rrcurveto
          0 48 46 32 132 14 -20 -30 -18 -30 -10 -14 -48 -80 -4 -8 5 blend
          rrcurveto
          0 -108 42 64 1 blend
          rlineto
          -38 -36 -36 -16 -32 15 26 14 24 16 26 5 8 9 15 5 blend
          0 rrcurveto
        </CharString>
        <CharString name="glyph00238">
          1 vsindex
          186 402 42 -42 2 blend
          rmoveto
          76 -6 1 blend
          0 64 4 1 blend
          64 0 108 8 1 blend
          rrcurveto
          0 98 -42 62 -88 2 -10 6 10 4 blend
          0 rrcurveto
          -42 13 1 blend
          0 -34 -24 -34 -28 4 11 11 7 4 blend
          rrcurveto
          2 64 2 -17 2 blend
          rlineto
          0 138 -31 1 blend
          rlineto
          -28 -92 1 blend
          0 rlineto
          0 -474 14 1 blend
          rlineto
          22 70 1 blend
          0 rlineto
          4 30 6 6 2 blend
          rlineto
          4 0 rlineto
          30 -24 36 -8 -6 -4 3 blend
          -14 30 0 rrcurveto
          2 26 -32 68 2 blend
          rmoveto
          -28 14 1 blend
          0 -38 12 -34 30 26 -8 20 -20 4 blend
          rrcurveto
          0 184 -62 1 blend
          rlineto
          36 34 38 20 32 -22 -18 -26 -14 -16 5 blend
          0 rrcurveto
          72 -44 1 blend
          0 30 -56 -14 36 2 blend
          0 -78 24 1 blend
          rrcurveto
          0 -88 -46 -58 -62 26 24 36 38 4 blend
          0 rrcurveto
        </CharString>
        <CharString name="glyph00239">
          1 vsindex
          182 402 6 -42 2 blend
          rmoveto
          48 6 1 blend
          0 28 18 24 20 12 2 -2 -2 4 blend
          rrcurveto
          -14 20 -34 56 2 blend
          rlineto
          -22 -18 -26 -14 -38 10 8 12 4 12 5 blend
          0 rrcurveto
          -70 34 1 blend
          0 -48 58 24 -26 2 blend
          0 82 -34 1 blend
          rrcurveto
          0 82 50 58 66 -34 -24 -26 -30 4 blend
          0 rrcurveto
          38 -24 1 blend
          0 18 -10 24 -20 -4 4 -12 10 4 blend
          rrcurveto
          16 20 38 56 2 blend
          rlineto
          -22 18 -28 6 -2 -10 3 blend
          18 -44 -8 1 blend
          0 rrcurveto
          -78 -14 1 blend
          0 -70 -60 -10 -6 2 blend
          0 -106 -2 1 blend
          rrcurveto
          0 -106 62 -60 86 -4 8 -4 10 4 blend
          0 rrcurveto
        </CharString>
        <CharString name="glyph00240">
          1 vsindex
          176 402 -16 -42 2 blend
          rmoveto
          40 -8 1 blend
          0 28 22 28 24 2 -6 -6 -2 4 blend
          rrcurveto
          4 -2 1 blend
          0 rlineto
          6 -38 2 8 2 blend
          rlineto
          22 76 1 blend
          0 rlineto
          0 474 -14 1 blend
          rlineto
          -28 -92 1 blend
          0 rlineto
          0 -130 28 1 blend
          rlineto
          2 -58 4 6 2 blend
          rlineto
          -32 24 -30 14 -4 4 3 blend
          14 -36 2 1 blend
          0 rrcurveto
          -76 12 1 blend
          0 -66 -62 -6 -2 2 blend
          0 -98 -6 1 blend
          rrcurveto
          0 -110 52 -62 86 -4 1 -4 -3 4 blend
          0 rrcurveto
          2 26 32 68 2 blend
          rmoveto
          -76 46 1 blend
          0 -34 58 16 -36 2 blend
          0 88 -24 1 blend
          rrcurveto
          0 76 50 58 60 -24 -28 -36 -36 4 blend
          0 rrcurveto
          30 -16 1 blend
          0 34 -12 34 -30 -22 8 -20 18 4 blend
          rrcurveto
          0 -186 66 1 blend
          rlineto
          -36 -32 -30 -20 -32 26 14 18 14 16 5 blend
          0 rrcurveto
        </CharString>
        <CharString name="glyph00241">
          180 402 10 16 -26 -42 2 blend
          rmoveto
          48 -6 -11 1 blend
          0 32 18 26 16 8 15 -4 -4 8 12 8 10 4 blend
          rrcurveto
          -14 22 -14 -24 28 46 2 blend
          rlineto
          -22 -16 -32 -14 -36 0 -2 2 2 4 10 6 10 8 14 5 blend
          0 rrcurveto
          -74 25 38 1 blend
          0 -46 56 0 80 9 16 -28 -46 -6 -10 -28 -38 4 blend
          rrcurveto
          234 -29 -46 1 blend
          0 rlineto
          2 16 0 4 1 2 -2 -2 2 2 8 6 4 blend
          0 10 8 10 1 blend
          rrcurveto
          0 48 -22 92 -102 24 42 -15 -26 -12 -20 1 4 4 blend
          0 rrcurveto
          -78 -5 -8 1 blend
          0 -64 -64 -7 -12 -2 -4 2 blend
          0 -102 -2 -4 1 blend
          rrcurveto
          0 -108 66 -58 82 6 10 -6 -8 10 16 3 blend
          0 rrcurveto
          -118 188 36 56 16 20 2 blend
          rmoveto
          8 72 42 46 62 -2 -2 -28 -36 -14 -22 -18 -32 -22 -37 5 blend
          0 rrcurveto
          72 -26 -39 1 blend
          0 24 -64 -8 -12 26 42 2 blend
          0 -54 20 26 1 blend
          rrcurveto
          -208 72 112 1 blend
          0 rlineto
        </CharString>
        <CharString name="glyph00242">
          1 vsindex
          68 410 -10 -42 2 blend
          rmoveto
          28 92 1 blend
          0 rlineto
          0 386 -50 1 blend
          rlineto
          0 40 16 30 34 -5 -2 -17 -14 4 blend
          0 rrcurveto
          18 -6 1 blend
          0 12 -4 10 -4 2 -2 2 3 blend
          rrcurveto
          8 24 14 60 2 blend
          rlineto
          -18 8 -12 2 -18 2 -2 -14 4 -12 5 blend
          0 rrcurveto
          -50 -52 1 blend
          0 -28 -38 -6 -32 2 blend
          0 -62 -12 1 blend
          rrcurveto
          0 -382 50 1 blend
          rlineto
          -46 292 2 -52 2 blend
          rmoveto
          150 69 1 blend
          0 rlineto
          0 24 68 1 blend
          rlineto
          -104 -64 1 blend
          0 rlineto
          -46 -2 -5 -2 2 blend
          rlineto
          0 -22 -66 1 blend
          rlineto
        </CharString>
        <CharString name="glyph00243">
          1 vsindex
          166 258 -6 -26 2 blend
          rmoveto
          94 28 1 blend
          0 58 52 16 -2 2 blend
          0 54 18 1 blend
          rrcurveto
          0 52 -32 22 -73 9 -14 3 -13 4 blend
          0 rrcurveto
          -69 19 1 blend
          0 rlineto
          -46 12 1 blend
          0 -16 16 4 -12 2 blend
          0 24 -10 1 blend
          rrcurveto
          0 20 12 14 14 10 -12 -10 -10 -8 -4 5 blend
          rrcurveto
          16 -10 20 -4 18 6 -10 4 -8 4 blend
          0 rrcurveto
          63 11 1 blend
          0 51 48 11 -16 2 blend
          0 66 12 1 blend
          rrcurveto
          0 30 -14 30 -20 16 -18 12 -17 18 -9 5 blend
          rrcurveto
          72 -26 1 blend
          0 rlineto
          0 26 60 1 blend
          rlineto
          -103 -21 1 blend
          0 rlineto
          -14 -2 1 blend
          6 -14 4 -21 -6 -2 3 3 blend
          0 rrcurveto
          -64 -11 1 blend
          0 -50 -46 -20 7 2 blend
          0 -66 -17 1 blend
          rrcurveto
          0 -38 20 1 1 blend
          -31 21 -17 4 2 2 blend
          rrcurveto
          0 -4 rlineto
          -15 -10 -20 -20 -9 -6 7 -4 4 blend
          0 -26 4 1 blend
          rrcurveto
          0 -24 -4 1 blend
          12 -18 16 -10 2 2 -2 3 blend
          rrcurveto
          0 -4 rlineto
          -30 -20 6 1 blend
          -16 -26 6 1 blend
          0 -28 rrcurveto
          0 -54 48 -34 82 -6 16 12 -6 4 blend
          0 rrcurveto
          -4 276 16 34 2 blend
          rmoveto
          -50 30 1 blend
          0 -36 36 22 -22 2 blend
          0 52 -22 1 blend
          rrcurveto
          0 54 36 32 50 -24 -22 -18 -30 4 blend
          0 rrcurveto
          46 -26 1 blend
          0 40 -33 -27 19 2 blend
          0 -53 23 1 blend
          rrcurveto
          0 -52 -40 -36 -46 22 27 22 26 4 blend
          0 rrcurveto
          8 -250 12 1 blend
          rmoveto
          -68 30 1 blend
          0 -38 24 12 -14 2 blend
          0 41 -21 1 blend
          rrcurveto
          0 23 14 22 28 18 -15 -9 -15 -21 -11 5 blend
          rrcurveto
          14 -4 18 -2 1 blend
          0 8 8 1 blend
          0 rrcurveto
          68 -42 1 blend
          0 rlineto
          48 -20 1 blend
          0 28 -12 -14 8 2 blend
          0 -34 19 1 blend
          rrcurveto
          0 -40 -48 -38 -72 23 22 26 36 4 blend
          0 rrcurveto
        </CharString>
</ttFont>
